<title> Binary MIDI file to MIDI XML conversion </title>
<h1> Binary MIDI file to MIDI XML conversion </h1>
<link href="../gif/style.css" rel="stylesheet" type="text/css">

<table id="tbl" cellspacing="0">
<tr valign="top"><td>

<p>&nbsp;</p>
<h1><a href=index.html>Midi online tools</a></h1>
<table center border="0" width="100%">
<tr>
<td>&nbsp;<!--#include file="banner_doska.html"--></td>
<td>&nbsp;<!--#include file="banner_doska.html"--></td>
</tr>
</table>

<p>&nbsp;</p>
<p>
<?xml version="1.0" encoding="ISO-8859-1"?>
<!DOCTYPE MIDIFile PUBLIC
  "-//Recordare//DTD MusicXML 0.9 MIDI//EN"
  "http://www.musicxml.org/dtds/midixml.dtd">
<MIDIFile>
<Format>0</Format>
<TrackCount>1</TrackCount>
<TicksPerBeat>960</TicksPerBeat>
<TimestampType>Absolute</TimestampType>
<Track Number="0">
  <Event>
    <Absolute>38400</Absolute>
    <NoteOn Channel="1" Note="5" Velocity="96"/>
  </Event>
  <Event>
    <Absolute>38640</Absolute>
    <NoteOff Channel="1" Note="5" Velocity="0"/>
  </Event>
  <Event>
    <Absolute>38880</Absolute>
    <NoteOn Channel="1" Note="7" Velocity="96"/>
  </Event>
  <Event>
    <Absolute>39120</Absolute>
    <NoteOff Channel="1" Note="7" Velocity="0"/>
  </Event>
  <Event>
    <Absolute>39360</Absolute>
    <NoteOn Channel="1" Note="9" Velocity="96"/>
  </Event>
  <Event>
    <Absolute>39600</Absolute>
    <NoteOff Channel="1" Note="9" Velocity="0"/>
  </Event>
  <Event>
    <Absolute>39840</Absolute>
    <NoteOn Channel="1" Note="8" Velocity="96"/>
  </Event>
  <Event>
    <Absolute>40080</Absolute>
    <NoteOff Channel="1" Note="8" Velocity="0"/>
  </Event>
  <Event>
    <Absolute>40320</Absolute>
    <NoteOn Channel="1" Note="4" Velocity="96"/>
  </Event>
  <Event>
    <Absolute>40560</Absolute>
    <NoteOff Channel="1" Note="4" Velocity="0"/>
  </Event>
  <Event>
    <Absolute>40560</Absolute>
    <NoteOn Channel="1" Note="5" Velocity="96"/>
  </Event>
  <Event>
    <Absolute>40800</Absolute>
    <NoteOff Channel="1" Note="5" Velocity="0"/>
  </Event>
  <Event>
    <Absolute>40800</Absolute>
    <NoteOn Channel="1" Note="6" Velocity="96"/>
  </Event>
  <Event>
    <Absolute>41040</Absolute>
    <NoteOff Channel="1" Note="6" Velocity="0"/>
  </Event>
  <Event>
    <Absolute>41040</Absolute>
    <NoteOn Channel="1" Note="2" Velocity="96"/>
  </Event>
  <Event>
    <Absolute>41280</Absolute>
    <NoteOff Channel="1" Note="2" Velocity="0"/>
  </Event>
  <Event>
    <Absolute>41280</Absolute>
    <NoteOn Channel="1" Note="3" Velocity="96"/>
  </Event>
  <Event>
    <Absolute>41520</Absolute>
    <NoteOff Channel="1" Note="3" Velocity="0"/>
  </Event>
  <Event>
    <Absolute>41520</Absolute>
    <NoteOn Channel="1" Note="4" Velocity="96"/>
  </Event>
  <Event>
    <Absolute>41760</Absolute>
    <NoteOff Channel="1" Note="4" Velocity="0"/>
  </Event>
  <Event>
    <Absolute>42240</Absolute>
    <NoteOn Channel="1" Note="2" Velocity="96"/>
  </Event>
  <Event>
    <Absolute>42480</Absolute>
    <NoteOff Channel="1" Note="2" Velocity="0"/>
  </Event>
  <Event>
    <Absolute>42480</Absolute>
    <NoteOn Channel="1" Note="3" Velocity="96"/>
  </Event>
  <Event>
    <Absolute>42720</Absolute>
    <NoteOff Channel="1" Note="3" Velocity="0"/>
  </Event>
  <Event>
    <Absolute>42720</Absolute>
    <NoteOn Channel="1" Note="4" Velocity="96"/>
  </Event>
  <Event>
    <Absolute>42960</Absolute>
    <NoteOff Channel="1" Note="4" Velocity="0"/>
  </Event>
  <Event>
    <Absolute>42960</Absolute>
    <NoteOn Channel="1" Note="3" Velocity="96"/>
  </Event>
  <Event>
    <Absolute>43200</Absolute>
    <NoteOff Channel="1" Note="3" Velocity="0"/>
  </Event>
  <Event>
    <Absolute>43200</Absolute>
    <NoteOn Channel="1" Note="2" Velocity="96"/>
  </Event>
  <Event>
    <Absolute>43440</Absolute>
    <NoteOff Channel="1" Note="2" Velocity="0"/>
  </Event>
  <Event>
    <Absolute>43440</Absolute>
    <NoteOn Channel="1" Note="3" Velocity="96"/>
  </Event>
  <Event>
    <Absolute>43680</Absolute>
    <NoteOff Channel="1" Note="3" Velocity="0"/>
  </Event>
  <Event>
    <Absolute>43680</Absolute>
    <NoteOn Channel="1" Note="2" Velocity="96"/>
  </Event>
  <Event>
    <Absolute>43920</Absolute>
    <NoteOff Channel="1" Note="2" Velocity="0"/>
  </Event>
  <Event>
    <Absolute>43920</Absolute>
    <NoteOn Channel="1" Note="1" Velocity="96"/>
  </Event>
  <Event>
    <Absolute>44160</Absolute>
    <NoteOff Channel="1" Note="1" Velocity="0"/>
  </Event>
  <Event>
    <Absolute>44160</Absolute>
    <NoteOn Channel="1" Note="0" Velocity="96"/>
  </Event>
  <Event>
    <Absolute>44400</Absolute>
    <NoteOff Channel="1" Note="0" Velocity="0"/>
  </Event>
  <Event>
    <Absolute>44400</Absolute>
    <NoteOn Channel="1" Note="1" Velocity="96"/>
  </Event>
  <Event>
    <Absolute>44640</Absolute>
    <NoteOff Channel="1" Note="1" Velocity="0"/>
  </Event>
  <Event>
    <Absolute>44640</Absolute>
    <NoteOn Channel="1" Note="2" Velocity="96"/>
  </Event>
  <Event>
    <Absolute>44880</Absolute>
    <NoteOff Channel="1" Note="2" Velocity="0"/>
  </Event>
  <Event>
    <Absolute>44880</Absolute>
    <NoteOn Channel="1" Note="3" Velocity="96"/>
  </Event>
  <Event>
    <Absolute>45120</Absolute>
    <NoteOff Channel="1" Note="3" Velocity="0"/>
  </Event>
  <Event>
    <Absolute>45120</Absolute>
    <NoteOn Channel="1" Note="4" Velocity="96"/>
  </Event>
  <Event>
    <Absolute>45360</Absolute>
    <NoteOff Channel="1" Note="4" Velocity="0"/>
  </Event>
  <Event>
    <Absolute>45360</Absolute>
    <NoteOn Channel="1" Note="5" Velocity="96"/>
  </Event>
  <Event>
    <Absolute>45600</Absolute>
    <NoteOff Channel="1" Note="5" Velocity="0"/>
  </Event>
  <Event>
    <Absolute>45600</Absolute>
    <NoteOn Channel="1" Note="6" Velocity="96"/>
  </Event>
  <Event>
    <Absolute>45840</Absolute>
    <NoteOff Channel="1" Note="6" Velocity="0"/>
  </Event>
  <Event>
    <Absolute>45840</Absolute>
    <NoteOn Channel="1" Note="7" Velocity="96"/>
  </Event>
  <Event>
    <Absolute>46080</Absolute>
    <NoteOff Channel="1" Note="7" Velocity="0"/>
  </Event>
  <Event>
    <Absolute>46080</Absolute>
    <NoteOn Channel="1" Note="4" Velocity="96"/>
  </Event>
  <Event>
    <Absolute>46320</Absolute>
    <NoteOff Channel="1" Note="4" Velocity="0"/>
  </Event>
  <Event>
    <Absolute>46320</Absolute>
    <NoteOn Channel="1" Note="5" Velocity="96"/>
  </Event>
  <Event>
    <Absolute>46560</Absolute>
    <NoteOff Channel="1" Note="5" Velocity="0"/>
  </Event>
  <Event>
    <Absolute>46560</Absolute>
    <NoteOn Channel="1" Note="6" Velocity="96"/>
  </Event>
  <Event>
    <Absolute>46800</Absolute>
    <NoteOff Channel="1" Note="6" Velocity="0"/>
  </Event>
  <Event>
    <Absolute>46800</Absolute>
    <NoteOn Channel="1" Note="5" Velocity="96"/>
  </Event>
  <Event>
    <Absolute>47040</Absolute>
    <NoteOff Channel="1" Note="5" Velocity="0"/>
  </Event>
  <Event>
    <Absolute>47040</Absolute>
    <NoteOn Channel="1" Note="6" Velocity="96"/>
  </Event>
  <Event>
    <Absolute>47280</Absolute>
    <NoteOff Channel="1" Note="6" Velocity="0"/>
  </Event>
  <Event>
    <Absolute>47520</Absolute>
    <NoteOn Channel="1" Note="5" Velocity="96"/>
  </Event>
  <Event>
    <Absolute>47760</Absolute>
    <NoteOff Channel="1" Note="5" Velocity="0"/>
  </Event>
  <Event>
    <Absolute>47760</Absolute>
    <NoteOn Channel="1" Note="6" Velocity="96"/>
  </Event>
  <Event>
    <Absolute>48000</Absolute>
    <NoteOff Channel="1" Note="6" Velocity="0"/>
  </Event>
  <Event>
    <Absolute>48240</Absolute>
    <NoteOn Channel="1" Note="3" Velocity="96"/>
  </Event>
  <Event>
    <Absolute>48480</Absolute>
    <NoteOff Channel="1" Note="3" Velocity="0"/>
  </Event>
  <Event>
    <Absolute>48480</Absolute>
    <NoteOn Channel="1" Note="4" Velocity="96"/>
  </Event>
  <Event>
    <Absolute>48720</Absolute>
    <NoteOff Channel="1" Note="4" Velocity="0"/>
  </Event>
  <Event>
    <Absolute>48720</Absolute>
    <NoteOn Channel="1" Note="5" Velocity="96"/>
  </Event>
  <Event>
    <Absolute>48960</Absolute>
    <NoteOff Channel="1" Note="5" Velocity="0"/>
  </Event>
  <Event>
    <Absolute>49440</Absolute>
    <NoteOn Channel="1" Note="5" Velocity="96"/>
  </Event>
  <Event>
    <Absolute>49680</Absolute>
    <NoteOff Channel="1" Note="5" Velocity="0"/>
  </Event>
  <Event>
    <Absolute>49680</Absolute>
    <NoteOn Channel="1" Note="6" Velocity="96"/>
  </Event>
  <Event>
    <Absolute>49920</Absolute>
    <NoteOff Channel="1" Note="6" Velocity="0"/>
  </Event>
  <Event>
    <Absolute>49920</Absolute>
    <NoteOn Channel="1" Note="7" Velocity="96"/>
  </Event>
  <Event>
    <Absolute>50160</Absolute>
    <NoteOff Channel="1" Note="7" Velocity="0"/>
  </Event>
  <Event>
    <Absolute>50160</Absolute>
    <NoteOn Channel="1" Note="8" Velocity="96"/>
  </Event>
  <Event>
    <Absolute>50400</Absolute>
    <NoteOff Channel="1" Note="8" Velocity="0"/>
  </Event>
  <Event>
    <Absolute>50400</Absolute>
    <NoteOn Channel="1" Note="7" Velocity="96"/>
  </Event>
  <Event>
    <Absolute>50640</Absolute>
    <NoteOff Channel="1" Note="7" Velocity="0"/>
  </Event>
  <Event>
    <Absolute>50640</Absolute>
    <NoteOn Channel="1" Note="6" Velocity="96"/>
  </Event>
  <Event>
    <Absolute>50880</Absolute>
    <NoteOff Channel="1" Note="6" Velocity="0"/>
  </Event>
  <Event>
    <Absolute>50880</Absolute>
    <NoteOn Channel="1" Note="5" Velocity="96"/>
  </Event>
  <Event>
    <Absolute>51120</Absolute>
    <NoteOff Channel="1" Note="5" Velocity="0"/>
  </Event>
  <Event>
    <Absolute>51120</Absolute>
    <NoteOn Channel="1" Note="4" Velocity="96"/>
  </Event>
  <Event>
    <Absolute>51360</Absolute>
    <NoteOff Channel="1" Note="4" Velocity="0"/>
  </Event>
  <Event>
    <Absolute>51360</Absolute>
    <NoteOn Channel="1" Note="5" Velocity="96"/>
  </Event>
  <Event>
    <Absolute>51600</Absolute>
    <NoteOff Channel="1" Note="5" Velocity="0"/>
  </Event>
  <Event>
    <Absolute>51600</Absolute>
    <NoteOn Channel="1" Note="6" Velocity="96"/>
  </Event>
  <Event>
    <Absolute>51840</Absolute>
    <NoteOff Channel="1" Note="6" Velocity="0"/>
  </Event>
  <Event>
    <Absolute>51840</Absolute>
    <NoteOn Channel="1" Note="7" Velocity="96"/>
  </Event>
  <Event>
    <Absolute>52080</Absolute>
    <NoteOff Channel="1" Note="7" Velocity="0"/>
  </Event>
  <Event>
    <Absolute>52080</Absolute>
    <NoteOn Channel="1" Note="8" Velocity="96"/>
  </Event>
  <Event>
    <Absolute>52320</Absolute>
    <NoteOff Channel="1" Note="8" Velocity="0"/>
  </Event>
  <Event>
    <Absolute>52320</Absolute>
    <NoteOn Channel="1" Note="7" Velocity="96"/>
  </Event>
  <Event>
    <Absolute>52560</Absolute>
    <NoteOff Channel="1" Note="7" Velocity="0"/>
  </Event>
  <Event>
    <Absolute>52560</Absolute>
    <NoteOn Channel="1" Note="6" Velocity="96"/>
  </Event>
  <Event>
    <Absolute>52800</Absolute>
    <NoteOff Channel="1" Note="6" Velocity="0"/>
  </Event>
  <Event>
    <Absolute>52800</Absolute>
    <NoteOn Channel="1" Note="5" Velocity="96"/>
  </Event>
  <Event>
    <Absolute>53040</Absolute>
    <NoteOff Channel="1" Note="5" Velocity="0"/>
  </Event>
  <Event>
    <Absolute>53040</Absolute>
    <NoteOn Channel="1" Note="4" Velocity="96"/>
  </Event>
  <Event>
    <Absolute>53280</Absolute>
    <NoteOff Channel="1" Note="4" Velocity="0"/>
  </Event>
  <Event>
    <Absolute>53280</Absolute>
    <NoteOn Channel="1" Note="5" Velocity="96"/>
  </Event>
  <Event>
    <Absolute>53520</Absolute>
    <NoteOff Channel="1" Note="5" Velocity="0"/>
  </Event>
  <Event>
    <Absolute>53520</Absolute>
    <NoteOn Channel="1" Note="6" Velocity="96"/>
  </Event>
  <Event>
    <Absolute>53760</Absolute>
    <NoteOff Channel="1" Note="6" Velocity="0"/>
  </Event>
  <Event>
    <Absolute>53760</Absolute>
    <NoteOn Channel="1" Note="5" Velocity="96"/>
  </Event>
  <Event>
    <Absolute>54000</Absolute>
    <NoteOff Channel="1" Note="5" Velocity="0"/>
  </Event>
  <Event>
    <Absolute>54240</Absolute>
    <NoteOn Channel="1" Note="7" Velocity="96"/>
  </Event>
  <Event>
    <Absolute>54480</Absolute>
    <NoteOff Channel="1" Note="7" Velocity="0"/>
  </Event>
  <Event>
    <Absolute>54720</Absolute>
    <NoteOn Channel="1" Note="9" Velocity="96"/>
  </Event>
  <Event>
    <Absolute>54960</Absolute>
    <NoteOff Channel="1" Note="9" Velocity="0"/>
  </Event>
  <Event>
    <Absolute>55200</Absolute>
    <NoteOn Channel="1" Note="8" Velocity="96"/>
  </Event>
  <Event>
    <Absolute>55440</Absolute>
    <NoteOff Channel="1" Note="8" Velocity="0"/>
  </Event>
  <Event>
    <Absolute>55680</Absolute>
    <NoteOn Channel="1" Note="4" Velocity="96"/>
  </Event>
  <Event>
    <Absolute>55920</Absolute>
    <NoteOff Channel="1" Note="4" Velocity="0"/>
  </Event>
  <Event>
    <Absolute>55920</Absolute>
    <NoteOn Channel="1" Note="5" Velocity="96"/>
  </Event>
  <Event>
    <Absolute>56160</Absolute>
    <NoteOff Channel="1" Note="5" Velocity="0"/>
  </Event>
  <Event>
    <Absolute>56160</Absolute>
    <NoteOn Channel="1" Note="6" Velocity="96"/>
  </Event>
  <Event>
    <Absolute>56400</Absolute>
    <NoteOff Channel="1" Note="6" Velocity="0"/>
  </Event>
  <Event>
    <Absolute>56400</Absolute>
    <NoteOn Channel="1" Note="2" Velocity="96"/>
  </Event>
  <Event>
    <Absolute>56640</Absolute>
    <NoteOff Channel="1" Note="2" Velocity="0"/>
  </Event>
  <Event>
    <Absolute>56640</Absolute>
    <NoteOn Channel="1" Note="3" Velocity="96"/>
  </Event>
  <Event>
    <Absolute>56880</Absolute>
    <NoteOff Channel="1" Note="3" Velocity="0"/>
  </Event>
  <Event>
    <Absolute>56880</Absolute>
    <NoteOn Channel="1" Note="4" Velocity="96"/>
  </Event>
  <Event>
    <Absolute>57120</Absolute>
    <NoteOff Channel="1" Note="4" Velocity="0"/>
  </Event>
  <Event>
    <Absolute>57600</Absolute>
    <NoteOn Channel="1" Note="2" Velocity="96"/>
  </Event>
  <Event>
    <Absolute>57840</Absolute>
    <NoteOff Channel="1" Note="2" Velocity="0"/>
  </Event>
  <Event>
    <Absolute>57840</Absolute>
    <NoteOn Channel="1" Note="3" Velocity="96"/>
  </Event>
  <Event>
    <Absolute>58080</Absolute>
    <NoteOff Channel="1" Note="3" Velocity="0"/>
  </Event>
  <Event>
    <Absolute>58080</Absolute>
    <NoteOn Channel="1" Note="4" Velocity="96"/>
  </Event>
  <Event>
    <Absolute>58320</Absolute>
    <NoteOff Channel="1" Note="4" Velocity="0"/>
  </Event>
  <Event>
    <Absolute>58320</Absolute>
    <NoteOn Channel="1" Note="3" Velocity="96"/>
  </Event>
  <Event>
    <Absolute>58560</Absolute>
    <NoteOff Channel="1" Note="3" Velocity="0"/>
  </Event>
  <Event>
    <Absolute>58560</Absolute>
    <NoteOn Channel="1" Note="2" Velocity="96"/>
  </Event>
  <Event>
    <Absolute>58800</Absolute>
    <NoteOff Channel="1" Note="2" Velocity="0"/>
  </Event>
  <Event>
    <Absolute>58800</Absolute>
    <NoteOn Channel="1" Note="3" Velocity="96"/>
  </Event>
  <Event>
    <Absolute>59040</Absolute>
    <NoteOff Channel="1" Note="3" Velocity="0"/>
  </Event>
  <Event>
    <Absolute>59040</Absolute>
    <NoteOn Channel="1" Note="2" Velocity="96"/>
  </Event>
  <Event>
    <Absolute>59280</Absolute>
    <NoteOff Channel="1" Note="2" Velocity="0"/>
  </Event>
  <Event>
    <Absolute>59280</Absolute>
    <NoteOn Channel="1" Note="1" Velocity="96"/>
  </Event>
  <Event>
    <Absolute>59520</Absolute>
    <NoteOff Channel="1" Note="1" Velocity="0"/>
  </Event>
  <Event>
    <Absolute>59520</Absolute>
    <NoteOn Channel="1" Note="0" Velocity="96"/>
  </Event>
  <Event>
    <Absolute>59760</Absolute>
    <NoteOff Channel="1" Note="0" Velocity="0"/>
  </Event>
  <Event>
    <Absolute>59760</Absolute>
    <NoteOn Channel="1" Note="1" Velocity="96"/>
  </Event>
  <Event>
    <Absolute>60000</Absolute>
    <NoteOff Channel="1" Note="1" Velocity="0"/>
  </Event>
  <Event>
    <Absolute>60000</Absolute>
    <NoteOn Channel="1" Note="2" Velocity="96"/>
  </Event>
  <Event>
    <Absolute>60240</Absolute>
    <NoteOff Channel="1" Note="2" Velocity="0"/>
  </Event>
  <Event>
    <Absolute>60240</Absolute>
    <NoteOn Channel="1" Note="3" Velocity="96"/>
  </Event>
  <Event>
    <Absolute>60480</Absolute>
    <NoteOff Channel="1" Note="3" Velocity="0"/>
  </Event>
  <Event>
    <Absolute>60480</Absolute>
    <NoteOn Channel="1" Note="4" Velocity="96"/>
  </Event>
  <Event>
    <Absolute>60720</Absolute>
    <NoteOff Channel="1" Note="4" Velocity="0"/>
  </Event>
  <Event>
    <Absolute>60720</Absolute>
    <NoteOn Channel="1" Note="5" Velocity="96"/>
  </Event>
  <Event>
    <Absolute>60960</Absolute>
    <NoteOff Channel="1" Note="5" Velocity="0"/>
  </Event>
  <Event>
    <Absolute>60960</Absolute>
    <NoteOn Channel="1" Note="6" Velocity="96"/>
  </Event>
  <Event>
    <Absolute>61200</Absolute>
    <NoteOff Channel="1" Note="6" Velocity="0"/>
  </Event>
  <Event>
    <Absolute>61200</Absolute>
    <NoteOn Channel="1" Note="7" Velocity="96"/>
  </Event>
  <Event>
    <Absolute>61440</Absolute>
    <NoteOff Channel="1" Note="7" Velocity="0"/>
  </Event>
  <Event>
    <Absolute>61440</Absolute>
    <NoteOn Channel="1" Note="4" Velocity="96"/>
  </Event>
  <Event>
    <Absolute>61680</Absolute>
    <NoteOff Channel="1" Note="4" Velocity="0"/>
  </Event>
  <Event>
    <Absolute>61680</Absolute>
    <NoteOn Channel="1" Note="5" Velocity="96"/>
  </Event>
  <Event>
    <Absolute>61920</Absolute>
    <NoteOff Channel="1" Note="5" Velocity="0"/>
  </Event>
  <Event>
    <Absolute>61920</Absolute>
    <NoteOn Channel="1" Note="6" Velocity="96"/>
  </Event>
  <Event>
    <Absolute>62160</Absolute>
    <NoteOff Channel="1" Note="6" Velocity="0"/>
  </Event>
  <Event>
    <Absolute>62160</Absolute>
    <NoteOn Channel="1" Note="5" Velocity="96"/>
  </Event>
  <Event>
    <Absolute>62400</Absolute>
    <NoteOff Channel="1" Note="5" Velocity="0"/>
  </Event>
  <Event>
    <Absolute>62400</Absolute>
    <NoteOn Channel="1" Note="6" Velocity="96"/>
  </Event>
  <Event>
    <Absolute>62640</Absolute>
    <NoteOff Channel="1" Note="6" Velocity="0"/>
  </Event>
  <Event>
    <Absolute>62880</Absolute>
    <NoteOn Channel="1" Note="5" Velocity="96"/>
  </Event>
  <Event>
    <Absolute>63120</Absolute>
    <NoteOff Channel="1" Note="5" Velocity="0"/>
  </Event>
  <Event>
    <Absolute>63120</Absolute>
    <NoteOn Channel="1" Note="6" Velocity="96"/>
  </Event>
  <Event>
    <Absolute>63360</Absolute>
    <NoteOff Channel="1" Note="6" Velocity="0"/>
  </Event>
  <Event>
    <Absolute>63600</Absolute>
    <NoteOn Channel="1" Note="3" Velocity="96"/>
  </Event>
  <Event>
    <Absolute>63840</Absolute>
    <NoteOff Channel="1" Note="3" Velocity="0"/>
  </Event>
  <Event>
    <Absolute>63840</Absolute>
    <NoteOn Channel="1" Note="4" Velocity="96"/>
  </Event>
  <Event>
    <Absolute>64080</Absolute>
    <NoteOff Channel="1" Note="4" Velocity="0"/>
  </Event>
  <Event>
    <Absolute>64080</Absolute>
    <NoteOn Channel="1" Note="5" Velocity="96"/>
  </Event>
  <Event>
    <Absolute>64320</Absolute>
    <NoteOff Channel="1" Note="5" Velocity="0"/>
  </Event>
  <Event>
    <Absolute>64800</Absolute>
    <NoteOn Channel="1" Note="5" Velocity="96"/>
  </Event>
  <Event>
    <Absolute>65040</Absolute>
    <NoteOff Channel="1" Note="5" Velocity="0"/>
  </Event>
  <Event>
    <Absolute>65040</Absolute>
    <NoteOn Channel="1" Note="6" Velocity="96"/>
  </Event>
  <Event>
    <Absolute>65280</Absolute>
    <NoteOff Channel="1" Note="6" Velocity="0"/>
  </Event>
  <Event>
    <Absolute>65280</Absolute>
    <NoteOn Channel="1" Note="7" Velocity="96"/>
  </Event>
  <Event>
    <Absolute>65520</Absolute>
    <NoteOff Channel="1" Note="7" Velocity="0"/>
  </Event>
  <Event>
    <Absolute>65520</Absolute>
    <NoteOn Channel="1" Note="8" Velocity="96"/>
  </Event>
  <Event>
    <Absolute>65760</Absolute>
    <NoteOff Channel="1" Note="8" Velocity="0"/>
  </Event>
  <Event>
    <Absolute>65760</Absolute>
    <NoteOn Channel="1" Note="7" Velocity="96"/>
  </Event>
  <Event>
    <Absolute>66000</Absolute>
    <NoteOff Channel="1" Note="7" Velocity="0"/>
  </Event>
  <Event>
    <Absolute>66000</Absolute>
    <NoteOn Channel="1" Note="6" Velocity="96"/>
  </Event>
  <Event>
    <Absolute>66240</Absolute>
    <NoteOff Channel="1" Note="6" Velocity="0"/>
  </Event>
  <Event>
    <Absolute>66240</Absolute>
    <NoteOn Channel="1" Note="5" Velocity="96"/>
  </Event>
  <Event>
    <Absolute>66480</Absolute>
    <NoteOff Channel="1" Note="5" Velocity="0"/>
  </Event>
  <Event>
    <Absolute>66480</Absolute>
    <NoteOn Channel="1" Note="4" Velocity="96"/>
  </Event>
  <Event>
    <Absolute>66720</Absolute>
    <NoteOff Channel="1" Note="4" Velocity="0"/>
  </Event>
  <Event>
    <Absolute>66720</Absolute>
    <NoteOn Channel="1" Note="5" Velocity="96"/>
  </Event>
  <Event>
    <Absolute>66960</Absolute>
    <NoteOff Channel="1" Note="5" Velocity="0"/>
  </Event>
  <Event>
    <Absolute>66960</Absolute>
    <NoteOn Channel="1" Note="6" Velocity="96"/>
  </Event>
  <Event>
    <Absolute>67200</Absolute>
    <NoteOff Channel="1" Note="6" Velocity="0"/>
  </Event>
  <Event>
    <Absolute>67200</Absolute>
    <NoteOn Channel="1" Note="7" Velocity="96"/>
  </Event>
  <Event>
    <Absolute>67440</Absolute>
    <NoteOff Channel="1" Note="7" Velocity="0"/>
  </Event>
  <Event>
    <Absolute>67440</Absolute>
    <NoteOn Channel="1" Note="8" Velocity="96"/>
  </Event>
  <Event>
    <Absolute>67680</Absolute>
    <NoteOff Channel="1" Note="8" Velocity="0"/>
  </Event>
  <Event>
    <Absolute>67680</Absolute>
    <NoteOn Channel="1" Note="7" Velocity="96"/>
  </Event>
  <Event>
    <Absolute>67920</Absolute>
    <NoteOff Channel="1" Note="7" Velocity="0"/>
  </Event>
  <Event>
    <Absolute>67920</Absolute>
    <NoteOn Channel="1" Note="6" Velocity="96"/>
  </Event>
  <Event>
    <Absolute>68160</Absolute>
    <NoteOff Channel="1" Note="6" Velocity="0"/>
  </Event>
  <Event>
    <Absolute>68160</Absolute>
    <NoteOn Channel="1" Note="5" Velocity="96"/>
  </Event>
  <Event>
    <Absolute>68400</Absolute>
    <NoteOff Channel="1" Note="5" Velocity="0"/>
  </Event>
  <Event>
    <Absolute>68400</Absolute>
    <NoteOn Channel="1" Note="4" Velocity="96"/>
  </Event>
  <Event>
    <Absolute>68640</Absolute>
    <NoteOff Channel="1" Note="4" Velocity="0"/>
  </Event>
  <Event>
    <Absolute>68640</Absolute>
    <NoteOn Channel="1" Note="5" Velocity="96"/>
  </Event>
  <Event>
    <Absolute>68880</Absolute>
    <NoteOff Channel="1" Note="5" Velocity="0"/>
  </Event>
  <Event>
    <Absolute>68880</Absolute>
    <NoteOn Channel="1" Note="6" Velocity="96"/>
  </Event>
  <Event>
    <Absolute>69120</Absolute>
    <NoteOff Channel="1" Note="6" Velocity="0"/>
  </Event>
  <Event>
    <Absolute>257280</Absolute>
    <ControlChange Channel="1" Control="123" Value="0"/>
  </Event>
  <Event>
    <Absolute>257280</Absolute>
    <EndOfTrack/>
  </Event>
</Track>
</MIDIFile>