<MIDIFile>
<Format>0</Format>
<TrackCount>1</TrackCount>
<TicksPerBeat>960</TicksPerBeat>
<TimestampType>Absolute</TimestampType>
<Track Number="0">
  <Event>
    <Absolute>38400</Absolute>
    <NoteOn Channel="1" Note="5" Velocity="127"/>
  </Event>
  <Event>
    <Absolute>38640</Absolute>
    <NoteOff Channel="1" Note="5" Velocity="0"/>
  </Event>
  <Event>
    <Absolute>38880</Absolute>
    <NoteOn Channel="1" Note="7" Velocity="127"/>
  </Event>
  <Event>
    <Absolute>39120</Absolute>
    <NoteOff Channel="1" Note="7" Velocity="0"/>
  </Event>
  <Event>
    <Absolute>39360</Absolute>
    <NoteOn Channel="1" Note="8" Velocity="127"/>
  </Event>
  <Event>
    <Absolute>39600</Absolute>
    <NoteOff Channel="1" Note="8" Velocity="0"/>
  </Event>
  <Event>
    <Absolute>39600</Absolute>
    <NoteOn Channel="1" Note="7" Velocity="96"/>
  </Event>
  <Event>
    <Absolute>39840</Absolute>
    <NoteOff Channel="1" Note="7" Velocity="0"/>
  </Event>
  <Event>
    <Absolute>39840</Absolute>
    <NoteOn Channel="1" Note="6" Velocity="127"/>
  </Event>
  <Event>
    <Absolute>40080</Absolute>
    <NoteOff Channel="1" Note="6" Velocity="0"/>
  </Event>
  <Event>
    <Absolute>40320</Absolute>
    <NoteOn Channel="1" Note="4" Velocity="127"/>
  </Event>
  <Event>
    <Absolute>40560</Absolute>
    <NoteOff Channel="1" Note="4" Velocity="0"/>
  </Event>
  <Event>
    <Absolute>40560</Absolute>
    <NoteOn Channel="1" Note="5" Velocity="96"/>
  </Event>
  <Event>
    <Absolute>40800</Absolute>
    <NoteOff Channel="1" Note="5" Velocity="0"/>
  </Event>
  <Event>
    <Absolute>40800</Absolute>
    <NoteOn Channel="1" Note="6" Velocity="127"/>
  </Event>
  <Event>
    <Absolute>41040</Absolute>
    <NoteOff Channel="1" Note="6" Velocity="0"/>
  </Event>
  <Event>
    <Absolute>41040</Absolute>
    <NoteOn Channel="1" Note="2" Velocity="127"/>
  </Event>
  <Event>
    <Absolute>41280</Absolute>
    <NoteOff Channel="1" Note="2" Velocity="0"/>
  </Event>
  <Event>
    <Absolute>41280</Absolute>
    <NoteOn Channel="1" Note="2" Velocity="127"/>
  </Event>
  <Event>
    <Absolute>41520</Absolute>
    <NoteOff Channel="1" Note="2" Velocity="0"/>
  </Event>
  <Event>
    <Absolute>41520</Absolute>
    <NoteOn Channel="1" Note="3" Velocity="96"/>
  </Event>
  <Event>
    <Absolute>41760</Absolute>
    <NoteOff Channel="1" Note="3" Velocity="0"/>
  </Event>
  <Event>
    <Absolute>41760</Absolute>
    <NoteOn Channel="1" Note="4" Velocity="127"/>
  </Event>
  <Event>
    <Absolute>42000</Absolute>
    <NoteOff Channel="1" Note="4" Velocity="0"/>
  </Event>
  <Event>
    <Absolute>42240</Absolute>
    <NoteOn Channel="1" Note="2" Velocity="127"/>
  </Event>
  <Event>
    <Absolute>42480</Absolute>
    <NoteOff Channel="1" Note="2" Velocity="0"/>
  </Event>
  <Event>
    <Absolute>42480</Absolute>
    <NoteOn Channel="1" Note="3" Velocity="96"/>
  </Event>
  <Event>
    <Absolute>42720</Absolute>
    <NoteOff Channel="1" Note="3" Velocity="0"/>
  </Event>
  <Event>
    <Absolute>42720</Absolute>
    <NoteOn Channel="1" Note="4" Velocity="127"/>
  </Event>
  <Event>
    <Absolute>42960</Absolute>
    <NoteOff Channel="1" Note="4" Velocity="0"/>
  </Event>
  <Event>
    <Absolute>42960</Absolute>
    <NoteOn Channel="1" Note="3" Velocity="96"/>
  </Event>
  <Event>
    <Absolute>43200</Absolute>
    <NoteOff Channel="1" Note="3" Velocity="0"/>
  </Event>
  <Event>
    <Absolute>43200</Absolute>
    <NoteOn Channel="1" Note="2" Velocity="127"/>
  </Event>
  <Event>
    <Absolute>43440</Absolute>
    <NoteOff Channel="1" Note="2" Velocity="0"/>
  </Event>
  <Event>
    <Absolute>43440</Absolute>
    <NoteOn Channel="1" Note="3" Velocity="127"/>
  </Event>
  <Event>
    <Absolute>43680</Absolute>
    <NoteOff Channel="1" Note="3" Velocity="0"/>
  </Event>
  <Event>
    <Absolute>43680</Absolute>
    <NoteOn Channel="1" Note="2" Velocity="96"/>
  </Event>
  <Event>
    <Absolute>43920</Absolute>
    <NoteOff Channel="1" Note="2" Velocity="0"/>
  </Event>
  <Event>
    <Absolute>43920</Absolute>
    <NoteOn Channel="1" Note="1" Velocity="96"/>
  </Event>
  <Event>
    <Absolute>44160</Absolute>
    <NoteOff Channel="1" Note="1" Velocity="0"/>
  </Event>
  <Event>
    <Absolute>44160</Absolute>
    <NoteOn Channel="1" Note="0" Velocity="127"/>
  </Event>
  <Event>
    <Absolute>44400</Absolute>
    <NoteOff Channel="1" Note="0" Velocity="0"/>
  </Event>
  <Event>
    <Absolute>44400</Absolute>
    <NoteOn Channel="1" Note="1" Velocity="96"/>
  </Event>
  <Event>
    <Absolute>44640</Absolute>
    <NoteOff Channel="1" Note="1" Velocity="0"/>
  </Event>
  <Event>
    <Absolute>44640</Absolute>
    <NoteOn Channel="1" Note="2" Velocity="96"/>
  </Event>
  <Event>
    <Absolute>44880</Absolute>
    <NoteOff Channel="1" Note="2" Velocity="0"/>
  </Event>
  <Event>
    <Absolute>44880</Absolute>
    <NoteOn Channel="1" Note="3" Velocity="96"/>
  </Event>
  <Event>
    <Absolute>45120</Absolute>
    <NoteOff Channel="1" Note="3" Velocity="0"/>
  </Event>
  <Event>
    <Absolute>45120</Absolute>
    <NoteOn Channel="1" Note="4" Velocity="96"/>
  </Event>
  <Event>
    <Absolute>45360</Absolute>
    <NoteOff Channel="1" Note="4" Velocity="0"/>
  </Event>
  <Event>
    <Absolute>45360</Absolute>
    <NoteOn Channel="1" Note="5" Velocity="96"/>
  </Event>
  <Event>
    <Absolute>45600</Absolute>
    <NoteOff Channel="1" Note="5" Velocity="0"/>
  </Event>
  <Event>
    <Absolute>45600</Absolute>
    <NoteOn Channel="1" Note="6" Velocity="96"/>
  </Event>
  <Event>
    <Absolute>45840</Absolute>
    <NoteOff Channel="1" Note="6" Velocity="0"/>
  </Event>
  <Event>
    <Absolute>45840</Absolute>
    <NoteOn Channel="1" Note="7" Velocity="127"/>
  </Event>
  <Event>
    <Absolute>46080</Absolute>
    <NoteOff Channel="1" Note="7" Velocity="0"/>
  </Event>
  <Event>
    <Absolute>46080</Absolute>
    <NoteOn Channel="1" Note="4" Velocity="127"/>
  </Event>
  <Event>
    <Absolute>46320</Absolute>
    <NoteOff Channel="1" Note="4" Velocity="0"/>
  </Event>
  <Event>
    <Absolute>46320</Absolute>
    <NoteOn Channel="1" Note="5" Velocity="96"/>
  </Event>
  <Event>
    <Absolute>46560</Absolute>
    <NoteOff Channel="1" Note="5" Velocity="0"/>
  </Event>
  <Event>
    <Absolute>46560</Absolute>
    <NoteOn Channel="1" Note="6" Velocity="127"/>
  </Event>
  <Event>
    <Absolute>46800</Absolute>
    <NoteOff Channel="1" Note="6" Velocity="0"/>
  </Event>
  <Event>
    <Absolute>46800</Absolute>
    <NoteOn Channel="1" Note="5" Velocity="127"/>
  </Event>
  <Event>
    <Absolute>47040</Absolute>
    <NoteOff Channel="1" Note="5" Velocity="0"/>
  </Event>
  <Event>
    <Absolute>47280</Absolute>
    <NoteOn Channel="1" Note="6" Velocity="127"/>
  </Event>
  <Event>
    <Absolute>47520</Absolute>
    <NoteOff Channel="1" Note="6" Velocity="0"/>
  </Event>
  <Event>
    <Absolute>47520</Absolute>
    <NoteOn Channel="1" Note="5" Velocity="127"/>
  </Event>
  <Event>
    <Absolute>47760</Absolute>
    <NoteOff Channel="1" Note="5" Velocity="0"/>
  </Event>
  <Event>
    <Absolute>47760</Absolute>
    <NoteOn Channel="1" Note="6" Velocity="127"/>
  </Event>
  <Event>
    <Absolute>48000</Absolute>
    <NoteOff Channel="1" Note="6" Velocity="0"/>
  </Event>
  <Event>
    <Absolute>48000</Absolute>
    <NoteOn Channel="1" Note="3" Velocity="127"/>
  </Event>
  <Event>
    <Absolute>48240</Absolute>
    <NoteOff Channel="1" Note="3" Velocity="0"/>
  </Event>
  <Event>
    <Absolute>48240</Absolute>
    <NoteOn Channel="1" Note="3" Velocity="127"/>
  </Event>
  <Event>
    <Absolute>48480</Absolute>
    <NoteOff Channel="1" Note="3" Velocity="0"/>
  </Event>
  <Event>
    <Absolute>48480</Absolute>
    <NoteOn Channel="1" Note="4" Velocity="96"/>
  </Event>
  <Event>
    <Absolute>48720</Absolute>
    <NoteOff Channel="1" Note="4" Velocity="0"/>
  </Event>
  <Event>
    <Absolute>48720</Absolute>
    <NoteOn Channel="1" Note="5" Velocity="127"/>
  </Event>
  <Event>
    <Absolute>48960</Absolute>
    <NoteOff Channel="1" Note="5" Velocity="0"/>
  </Event>
  <Event>
    <Absolute>48960</Absolute>
    <NoteOn Channel="1" Note="4" Velocity="127"/>
  </Event>
  <Event>
    <Absolute>49200</Absolute>
    <NoteOff Channel="1" Note="4" Velocity="0"/>
  </Event>
  <Event>
    <Absolute>49200</Absolute>
    <NoteOn Channel="1" Note="4" Velocity="127"/>
  </Event>
  <Event>
    <Absolute>49440</Absolute>
    <NoteOff Channel="1" Note="4" Velocity="0"/>
  </Event>
  <Event>
    <Absolute>49440</Absolute>
    <NoteOn Channel="1" Note="5" Velocity="96"/>
  </Event>
  <Event>
    <Absolute>49680</Absolute>
    <NoteOff Channel="1" Note="5" Velocity="0"/>
  </Event>
  <Event>
    <Absolute>49680</Absolute>
    <NoteOn Channel="1" Note="6" Velocity="96"/>
  </Event>
  <Event>
    <Absolute>49920</Absolute>
    <NoteOff Channel="1" Note="6" Velocity="0"/>
  </Event>
  <Event>
    <Absolute>49920</Absolute>
    <NoteOn Channel="1" Note="7" Velocity="96"/>
  </Event>
  <Event>
    <Absolute>50160</Absolute>
    <NoteOff Channel="1" Note="7" Velocity="0"/>
  </Event>
  <Event>
    <Absolute>50160</Absolute>
    <NoteOn Channel="1" Note="8" Velocity="127"/>
  </Event>
  <Event>
    <Absolute>50400</Absolute>
    <NoteOff Channel="1" Note="8" Velocity="0"/>
  </Event>
  <Event>
    <Absolute>50400</Absolute>
    <NoteOn Channel="1" Note="7" Velocity="96"/>
  </Event>
  <Event>
    <Absolute>50640</Absolute>
    <NoteOff Channel="1" Note="7" Velocity="0"/>
  </Event>
  <Event>
    <Absolute>50640</Absolute>
    <NoteOn Channel="1" Note="6" Velocity="96"/>
  </Event>
  <Event>
    <Absolute>50880</Absolute>
    <NoteOff Channel="1" Note="6" Velocity="0"/>
  </Event>
  <Event>
    <Absolute>50880</Absolute>
    <NoteOn Channel="1" Note="5" Velocity="96"/>
  </Event>
  <Event>
    <Absolute>51120</Absolute>
    <NoteOff Channel="1" Note="5" Velocity="0"/>
  </Event>
  <Event>
    <Absolute>51120</Absolute>
    <NoteOn Channel="1" Note="4" Velocity="127"/>
  </Event>
  <Event>
    <Absolute>51360</Absolute>
    <NoteOff Channel="1" Note="4" Velocity="0"/>
  </Event>
  <Event>
    <Absolute>51360</Absolute>
    <NoteOn Channel="1" Note="5" Velocity="96"/>
  </Event>
  <Event>
    <Absolute>51600</Absolute>
    <NoteOff Channel="1" Note="5" Velocity="0"/>
  </Event>
  <Event>
    <Absolute>51600</Absolute>
    <NoteOn Channel="1" Note="6" Velocity="96"/>
  </Event>
  <Event>
    <Absolute>51840</Absolute>
    <NoteOff Channel="1" Note="6" Velocity="0"/>
  </Event>
  <Event>
    <Absolute>51840</Absolute>
    <NoteOn Channel="1" Note="7" Velocity="96"/>
  </Event>
  <Event>
    <Absolute>52080</Absolute>
    <NoteOff Channel="1" Note="7" Velocity="0"/>
  </Event>
  <Event>
    <Absolute>52080</Absolute>
    <NoteOn Channel="1" Note="8" Velocity="127"/>
  </Event>
  <Event>
    <Absolute>52320</Absolute>
    <NoteOff Channel="1" Note="8" Velocity="0"/>
  </Event>
  <Event>
    <Absolute>52320</Absolute>
    <NoteOn Channel="1" Note="7" Velocity="96"/>
  </Event>
  <Event>
    <Absolute>52560</Absolute>
    <NoteOff Channel="1" Note="7" Velocity="0"/>
  </Event>
  <Event>
    <Absolute>52560</Absolute>
    <NoteOn Channel="1" Note="6" Velocity="96"/>
  </Event>
  <Event>
    <Absolute>52800</Absolute>
    <NoteOff Channel="1" Note="6" Velocity="0"/>
  </Event>
  <Event>
    <Absolute>52800</Absolute>
    <NoteOn Channel="1" Note="5" Velocity="96"/>
  </Event>
  <Event>
    <Absolute>53040</Absolute>
    <NoteOff Channel="1" Note="5" Velocity="0"/>
  </Event>
  <Event>
    <Absolute>53040</Absolute>
    <NoteOn Channel="1" Note="4" Velocity="127"/>
  </Event>
  <Event>
    <Absolute>53280</Absolute>
    <NoteOff Channel="1" Note="4" Velocity="0"/>
  </Event>
  <Event>
    <Absolute>53280</Absolute>
    <NoteOn Channel="1" Note="5" Velocity="96"/>
  </Event>
  <Event>
    <Absolute>53520</Absolute>
    <NoteOff Channel="1" Note="5" Velocity="0"/>
  </Event>
  <Event>
    <Absolute>53520</Absolute>
    <NoteOn Channel="1" Note="6" Velocity="96"/>
  </Event>
  <Event>
    <Absolute>53760</Absolute>
    <NoteOff Channel="1" Note="6" Velocity="0"/>
  </Event>
  <Event>
    <Absolute>53760</Absolute>
    <NoteOn Channel="1" Note="5" Velocity="127"/>
  </Event>
  <Event>
    <Absolute>54000</Absolute>
    <NoteOff Channel="1" Note="5" Velocity="0"/>
  </Event>
  <Event>
    <Absolute>54240</Absolute>
    <NoteOn Channel="1" Note="7" Velocity="127"/>
  </Event>
  <Event>
    <Absolute>54480</Absolute>
    <NoteOff Channel="1" Note="7" Velocity="0"/>
  </Event>
  <Event>
    <Absolute>54720</Absolute>
    <NoteOn Channel="1" Note="8" Velocity="127"/>
  </Event>
  <Event>
    <Absolute>54960</Absolute>
    <NoteOff Channel="1" Note="8" Velocity="0"/>
  </Event>
  <Event>
    <Absolute>54960</Absolute>
    <NoteOn Channel="1" Note="7" Velocity="96"/>
  </Event>
  <Event>
    <Absolute>55200</Absolute>
    <NoteOff Channel="1" Note="7" Velocity="0"/>
  </Event>
  <Event>
    <Absolute>55200</Absolute>
    <NoteOn Channel="1" Note="6" Velocity="127"/>
  </Event>
  <Event>
    <Absolute>55440</Absolute>
    <NoteOff Channel="1" Note="6" Velocity="0"/>
  </Event>
  <Event>
    <Absolute>55680</Absolute>
    <NoteOn Channel="1" Note="4" Velocity="127"/>
  </Event>
  <Event>
    <Absolute>55920</Absolute>
    <NoteOff Channel="1" Note="4" Velocity="0"/>
  </Event>
  <Event>
    <Absolute>55920</Absolute>
    <NoteOn Channel="1" Note="5" Velocity="96"/>
  </Event>
  <Event>
    <Absolute>56160</Absolute>
    <NoteOff Channel="1" Note="5" Velocity="0"/>
  </Event>
  <Event>
    <Absolute>56160</Absolute>
    <NoteOn Channel="1" Note="6" Velocity="127"/>
  </Event>
  <Event>
    <Absolute>56400</Absolute>
    <NoteOff Channel="1" Note="6" Velocity="0"/>
  </Event>
  <Event>
    <Absolute>56400</Absolute>
    <NoteOn Channel="1" Note="2" Velocity="127"/>
  </Event>
  <Event>
    <Absolute>56640</Absolute>
    <NoteOff Channel="1" Note="2" Velocity="0"/>
  </Event>
  <Event>
    <Absolute>56640</Absolute>
    <NoteOn Channel="1" Note="2" Velocity="127"/>
  </Event>
  <Event>
    <Absolute>56880</Absolute>
    <NoteOff Channel="1" Note="2" Velocity="0"/>
  </Event>
  <Event>
    <Absolute>56880</Absolute>
    <NoteOn Channel="1" Note="3" Velocity="96"/>
  </Event>
  <Event>
    <Absolute>57120</Absolute>
    <NoteOff Channel="1" Note="3" Velocity="0"/>
  </Event>
  <Event>
    <Absolute>57120</Absolute>
    <NoteOn Channel="1" Note="4" Velocity="127"/>
  </Event>
  <Event>
    <Absolute>57360</Absolute>
    <NoteOff Channel="1" Note="4" Velocity="0"/>
  </Event>
  <Event>
    <Absolute>57600</Absolute>
    <NoteOn Channel="1" Note="2" Velocity="127"/>
  </Event>
  <Event>
    <Absolute>57840</Absolute>
    <NoteOff Channel="1" Note="2" Velocity="0"/>
  </Event>
  <Event>
    <Absolute>57840</Absolute>
    <NoteOn Channel="1" Note="3" Velocity="96"/>
  </Event>
  <Event>
    <Absolute>58080</Absolute>
    <NoteOff Channel="1" Note="3" Velocity="0"/>
  </Event>
  <Event>
    <Absolute>58080</Absolute>
    <NoteOn Channel="1" Note="4" Velocity="127"/>
  </Event>
  <Event>
    <Absolute>58320</Absolute>
    <NoteOff Channel="1" Note="4" Velocity="0"/>
  </Event>
  <Event>
    <Absolute>58320</Absolute>
    <NoteOn Channel="1" Note="3" Velocity="96"/>
  </Event>
  <Event>
    <Absolute>58560</Absolute>
    <NoteOff Channel="1" Note="3" Velocity="0"/>
  </Event>
  <Event>
    <Absolute>58560</Absolute>
    <NoteOn Channel="1" Note="2" Velocity="127"/>
  </Event>
  <Event>
    <Absolute>58800</Absolute>
    <NoteOff Channel="1" Note="2" Velocity="0"/>
  </Event>
  <Event>
    <Absolute>58800</Absolute>
    <NoteOn Channel="1" Note="3" Velocity="127"/>
  </Event>
  <Event>
    <Absolute>59040</Absolute>
    <NoteOff Channel="1" Note="3" Velocity="0"/>
  </Event>
  <Event>
    <Absolute>59040</Absolute>
    <NoteOn Channel="1" Note="2" Velocity="96"/>
  </Event>
  <Event>
    <Absolute>59280</Absolute>
    <NoteOff Channel="1" Note="2" Velocity="0"/>
  </Event>
  <Event>
    <Absolute>59280</Absolute>
    <NoteOn Channel="1" Note="1" Velocity="96"/>
  </Event>
  <Event>
    <Absolute>59520</Absolute>
    <NoteOff Channel="1" Note="1" Velocity="0"/>
  </Event>
  <Event>
    <Absolute>59520</Absolute>
    <NoteOn Channel="1" Note="0" Velocity="127"/>
  </Event>
  <Event>
    <Absolute>59760</Absolute>
    <NoteOff Channel="1" Note="0" Velocity="0"/>
  </Event>
  <Event>
    <Absolute>59760</Absolute>
    <NoteOn Channel="1" Note="1" Velocity="96"/>
  </Event>
  <Event>
    <Absolute>60000</Absolute>
    <NoteOff Channel="1" Note="1" Velocity="0"/>
  </Event>
  <Event>
    <Absolute>60000</Absolute>
    <NoteOn Channel="1" Note="2" Velocity="96"/>
  </Event>
  <Event>
    <Absolute>60240</Absolute>
    <NoteOff Channel="1" Note="2" Velocity="0"/>
  </Event>
  <Event>
    <Absolute>60240</Absolute>
    <NoteOn Channel="1" Note="3" Velocity="96"/>
  </Event>
  <Event>
    <Absolute>60480</Absolute>
    <NoteOff Channel="1" Note="3" Velocity="0"/>
  </Event>
  <Event>
    <Absolute>60480</Absolute>
    <NoteOn Channel="1" Note="4" Velocity="96"/>
  </Event>
  <Event>
    <Absolute>60720</Absolute>
    <NoteOff Channel="1" Note="4" Velocity="0"/>
  </Event>
  <Event>
    <Absolute>60720</Absolute>
    <NoteOn Channel="1" Note="5" Velocity="96"/>
  </Event>
  <Event>
    <Absolute>60960</Absolute>
    <NoteOff Channel="1" Note="5" Velocity="0"/>
  </Event>
  <Event>
    <Absolute>60960</Absolute>
    <NoteOn Channel="1" Note="6" Velocity="96"/>
  </Event>
  <Event>
    <Absolute>61200</Absolute>
    <NoteOff Channel="1" Note="6" Velocity="0"/>
  </Event>
  <Event>
    <Absolute>61200</Absolute>
    <NoteOn Channel="1" Note="7" Velocity="127"/>
  </Event>
  <Event>
    <Absolute>61440</Absolute>
    <NoteOff Channel="1" Note="7" Velocity="0"/>
  </Event>
  <Event>
    <Absolute>61440</Absolute>
    <NoteOn Channel="1" Note="4" Velocity="127"/>
  </Event>
  <Event>
    <Absolute>61680</Absolute>
    <NoteOff Channel="1" Note="4" Velocity="0"/>
  </Event>
  <Event>
    <Absolute>61680</Absolute>
    <NoteOn Channel="1" Note="5" Velocity="96"/>
  </Event>
  <Event>
    <Absolute>61920</Absolute>
    <NoteOff Channel="1" Note="5" Velocity="0"/>
  </Event>
  <Event>
    <Absolute>61920</Absolute>
    <NoteOn Channel="1" Note="6" Velocity="127"/>
  </Event>
  <Event>
    <Absolute>62160</Absolute>
    <NoteOff Channel="1" Note="6" Velocity="0"/>
  </Event>
  <Event>
    <Absolute>62160</Absolute>
    <NoteOn Channel="1" Note="5" Velocity="127"/>
  </Event>
  <Event>
    <Absolute>62400</Absolute>
    <NoteOff Channel="1" Note="5" Velocity="0"/>
  </Event>
  <Event>
    <Absolute>62640</Absolute>
    <NoteOn Channel="1" Note="6" Velocity="127"/>
  </Event>
  <Event>
    <Absolute>62880</Absolute>
    <NoteOff Channel="1" Note="6" Velocity="0"/>
  </Event>
  <Event>
    <Absolute>62880</Absolute>
    <NoteOn Channel="1" Note="5" Velocity="127"/>
  </Event>
  <Event>
    <Absolute>63120</Absolute>
    <NoteOff Channel="1" Note="5" Velocity="0"/>
  </Event>
  <Event>
    <Absolute>63120</Absolute>
    <NoteOn Channel="1" Note="6" Velocity="127"/>
  </Event>
  <Event>
    <Absolute>63360</Absolute>
    <NoteOff Channel="1" Note="6" Velocity="0"/>
  </Event>
  <Event>
    <Absolute>63360</Absolute>
    <NoteOn Channel="1" Note="3" Velocity="127"/>
  </Event>
  <Event>
    <Absolute>63600</Absolute>
    <NoteOff Channel="1" Note="3" Velocity="0"/>
  </Event>
  <Event>
    <Absolute>63600</Absolute>
    <NoteOn Channel="1" Note="3" Velocity="127"/>
  </Event>
  <Event>
    <Absolute>63840</Absolute>
    <NoteOff Channel="1" Note="3" Velocity="0"/>
  </Event>
  <Event>
    <Absolute>63840</Absolute>
    <NoteOn Channel="1" Note="4" Velocity="96"/>
  </Event>
  <Event>
    <Absolute>64080</Absolute>
    <NoteOff Channel="1" Note="4" Velocity="0"/>
  </Event>
  <Event>
    <Absolute>64080</Absolute>
    <NoteOn Channel="1" Note="5" Velocity="127"/>
  </Event>
  <Event>
    <Absolute>64320</Absolute>
    <NoteOff Channel="1" Note="5" Velocity="0"/>
  </Event>
  <Event>
    <Absolute>64320</Absolute>
    <NoteOn Channel="1" Note="4" Velocity="127"/>
  </Event>
  <Event>
    <Absolute>64560</Absolute>
    <NoteOff Channel="1" Note="4" Velocity="0"/>
  </Event>
  <Event>
    <Absolute>64560</Absolute>
    <NoteOn Channel="1" Note="4" Velocity="127"/>
  </Event>
  <Event>
    <Absolute>64800</Absolute>
    <NoteOff Channel="1" Note="4" Velocity="0"/>
  </Event>
  <Event>
    <Absolute>64800</Absolute>
    <NoteOn Channel="1" Note="5" Velocity="96"/>
  </Event>
  <Event>
    <Absolute>65040</Absolute>
    <NoteOff Channel="1" Note="5" Velocity="0"/>
  </Event>
  <Event>
    <Absolute>65040</Absolute>
    <NoteOn Channel="1" Note="6" Velocity="96"/>
  </Event>
  <Event>
    <Absolute>65280</Absolute>
    <NoteOff Channel="1" Note="6" Velocity="0"/>
  </Event>
  <Event>
    <Absolute>65280</Absolute>
    <NoteOn Channel="1" Note="7" Velocity="96"/>
  </Event>
  <Event>
    <Absolute>65520</Absolute>
    <NoteOff Channel="1" Note="7" Velocity="0"/>
  </Event>
  <Event>
    <Absolute>65520</Absolute>
    <NoteOn Channel="1" Note="8" Velocity="127"/>
  </Event>
  <Event>
    <Absolute>65760</Absolute>
    <NoteOff Channel="1" Note="8" Velocity="0"/>
  </Event>
  <Event>
    <Absolute>65760</Absolute>
    <NoteOn Channel="1" Note="7" Velocity="96"/>
  </Event>
  <Event>
    <Absolute>66000</Absolute>
    <NoteOff Channel="1" Note="7" Velocity="0"/>
  </Event>
  <Event>
    <Absolute>66000</Absolute>
    <NoteOn Channel="1" Note="6" Velocity="96"/>
  </Event>
  <Event>
    <Absolute>66240</Absolute>
    <NoteOff Channel="1" Note="6" Velocity="0"/>
  </Event>
  <Event>
    <Absolute>66240</Absolute>
    <NoteOn Channel="1" Note="5" Velocity="96"/>
  </Event>
  <Event>
    <Absolute>66480</Absolute>
    <NoteOff Channel="1" Note="5" Velocity="0"/>
  </Event>
  <Event>
    <Absolute>66480</Absolute>
    <NoteOn Channel="1" Note="4" Velocity="95"/>
  </Event>
  <Event>
    <Absolute>66720</Absolute>
    <NoteOff Channel="1" Note="4" Velocity="0"/>
  </Event>
  <Event>
    <Absolute>66720</Absolute>
    <NoteOn Channel="1" Note="3" Velocity="96"/>
  </Event>
  <Event>
    <Absolute>66960</Absolute>
    <NoteOff Channel="1" Note="3" Velocity="0"/>
  </Event>
  <Event>
    <Absolute>66960</Absolute>
    <NoteOn Channel="1" Note="2" Velocity="96"/>
  </Event>
  <Event>
    <Absolute>67200</Absolute>
    <NoteOff Channel="1" Note="2" Velocity="0"/>
  </Event>
  <Event>
    <Absolute>67200</Absolute>
    <NoteOn Channel="1" Note="1" Velocity="95"/>
  </Event>
  <Event>
    <Absolute>67440</Absolute>
    <NoteOff Channel="1" Note="1" Velocity="0"/>
  </Event>
  <Event>
    <Absolute>67440</Absolute>
    <NoteOn Channel="1" Note="0" Velocity="127"/>
  </Event>
  <Event>
    <Absolute>67680</Absolute>
    <NoteOff Channel="1" Note="0" Velocity="0"/>
  </Event>
  <Event>
    <Absolute>130560</Absolute>
    <NoteOn Channel="1" Note="3" Velocity="127"/>
  </Event>
  <Event>
    <Absolute>130800</Absolute>
    <NoteOff Channel="1" Note="3" Velocity="0"/>
  </Event>
  <Event>
    <Absolute>130800</Absolute>
    <NoteOn Channel="1" Note="4" Velocity="96"/>
  </Event>
  <Event>
    <Absolute>131040</Absolute>
    <NoteOff Channel="1" Note="4" Velocity="0"/>
  </Event>
  <Event>
    <Absolute>131040</Absolute>
    <NoteOn Channel="1" Note="5" Velocity="96"/>
  </Event>
  <Event>
    <Absolute>131280</Absolute>
    <NoteOff Channel="1" Note="5" Velocity="0"/>
  </Event>
  <Event>
    <Absolute>131280</Absolute>
    <NoteOn Channel="1" Note="6" Velocity="96"/>
  </Event>
  <Event>
    <Absolute>131520</Absolute>
    <NoteOff Channel="1" Note="6" Velocity="0"/>
  </Event>
  <Event>
    <Absolute>131520</Absolute>
    <NoteOn Channel="1" Note="7" Velocity="96"/>
  </Event>
  <Event>
    <Absolute>131760</Absolute>
    <NoteOff Channel="1" Note="7" Velocity="0"/>
  </Event>
  <Event>
    <Absolute>131760</Absolute>
    <NoteOn Channel="1" Note="8" Velocity="127"/>
  </Event>
  <Event>
    <Absolute>132000</Absolute>
    <NoteOff Channel="1" Note="8" Velocity="0"/>
  </Event>
  <Event>
    <Absolute>132480</Absolute>
    <NoteOn Channel="1" Note="1" Velocity="127"/>
  </Event>
  <Event>
    <Absolute>132720</Absolute>
    <NoteOff Channel="1" Note="1" Velocity="0"/>
  </Event>
  <Event>
    <Absolute>132720</Absolute>
    <NoteOn Channel="1" Note="2" Velocity="96"/>
  </Event>
  <Event>
    <Absolute>132960</Absolute>
    <NoteOff Channel="1" Note="2" Velocity="0"/>
  </Event>
  <Event>
    <Absolute>132960</Absolute>
    <NoteOn Channel="1" Note="3" Velocity="96"/>
  </Event>
  <Event>
    <Absolute>133200</Absolute>
    <NoteOff Channel="1" Note="3" Velocity="0"/>
  </Event>
  <Event>
    <Absolute>133200</Absolute>
    <NoteOn Channel="1" Note="4" Velocity="96"/>
  </Event>
  <Event>
    <Absolute>133440</Absolute>
    <NoteOff Channel="1" Note="4" Velocity="0"/>
  </Event>
  <Event>
    <Absolute>133440</Absolute>
    <NoteOn Channel="1" Note="5" Velocity="96"/>
  </Event>
  <Event>
    <Absolute>133680</Absolute>
    <NoteOff Channel="1" Note="5" Velocity="0"/>
  </Event>
  <Event>
    <Absolute>133680</Absolute>
    <NoteOn Channel="1" Note="6" Velocity="127"/>
  </Event>
  <Event>
    <Absolute>133920</Absolute>
    <NoteOff Channel="1" Note="6" Velocity="0"/>
  </Event>
  <Event>
    <Absolute>134400</Absolute>
    <NoteOn Channel="1" Note="0" Velocity="127"/>
  </Event>
  <Event>
    <Absolute>134640</Absolute>
    <NoteOff Channel="1" Note="0" Velocity="0"/>
  </Event>
  <Event>
    <Absolute>134640</Absolute>
    <NoteOn Channel="1" Note="1" Velocity="96"/>
  </Event>
  <Event>
    <Absolute>134880</Absolute>
    <NoteOff Channel="1" Note="1" Velocity="0"/>
  </Event>
  <Event>
    <Absolute>134880</Absolute>
    <NoteOn Channel="1" Note="2" Velocity="127"/>
  </Event>
  <Event>
    <Absolute>135120</Absolute>
    <NoteOff Channel="1" Note="2" Velocity="0"/>
  </Event>
  <Event>
    <Absolute>135360</Absolute>
    <NoteOn Channel="1" Note="1" Velocity="127"/>
  </Event>
  <Event>
    <Absolute>135600</Absolute>
    <NoteOff Channel="1" Note="1" Velocity="0"/>
  </Event>
  <Event>
    <Absolute>135600</Absolute>
    <NoteOn Channel="1" Note="2" Velocity="96"/>
  </Event>
  <Event>
    <Absolute>135840</Absolute>
    <NoteOff Channel="1" Note="2" Velocity="0"/>
  </Event>
  <Event>
    <Absolute>135840</Absolute>
    <NoteOn Channel="1" Note="3" Velocity="127"/>
  </Event>
  <Event>
    <Absolute>136080</Absolute>
    <NoteOff Channel="1" Note="3" Velocity="0"/>
  </Event>
  <Event>
    <Absolute>136320</Absolute>
    <NoteOn Channel="1" Note="3" Velocity="127"/>
  </Event>
  <Event>
    <Absolute>136560</Absolute>
    <NoteOff Channel="1" Note="3" Velocity="0"/>
  </Event>
  <Event>
    <Absolute>136560</Absolute>
    <NoteOn Channel="1" Note="4" Velocity="96"/>
  </Event>
  <Event>
    <Absolute>136800</Absolute>
    <NoteOff Channel="1" Note="4" Velocity="0"/>
  </Event>
  <Event>
    <Absolute>136800</Absolute>
    <NoteOn Channel="1" Note="5" Velocity="127"/>
  </Event>
  <Event>
    <Absolute>137040</Absolute>
    <NoteOff Channel="1" Note="5" Velocity="0"/>
  </Event>
  <Event>
    <Absolute>137280</Absolute>
    <NoteOn Channel="1" Note="3" Velocity="127"/>
  </Event>
  <Event>
    <Absolute>137520</Absolute>
    <NoteOff Channel="1" Note="3" Velocity="0"/>
  </Event>
  <Event>
    <Absolute>137520</Absolute>
    <NoteOn Channel="1" Note="4" Velocity="96"/>
  </Event>
  <Event>
    <Absolute>137760</Absolute>
    <NoteOff Channel="1" Note="4" Velocity="0"/>
  </Event>
  <Event>
    <Absolute>137760</Absolute>
    <NoteOn Channel="1" Note="5" Velocity="127"/>
  </Event>
  <Event>
    <Absolute>138000</Absolute>
    <NoteOff Channel="1" Note="5" Velocity="0"/>
  </Event>
  <Event>
    <Absolute>138240</Absolute>
    <NoteOn Channel="1" Note="5" Velocity="127"/>
  </Event>
  <Event>
    <Absolute>138480</Absolute>
    <NoteOff Channel="1" Note="5" Velocity="0"/>
  </Event>
  <Event>
    <Absolute>138480</Absolute>
    <NoteOn Channel="1" Note="6" Velocity="96"/>
  </Event>
  <Event>
    <Absolute>138720</Absolute>
    <NoteOff Channel="1" Note="6" Velocity="0"/>
  </Event>
  <Event>
    <Absolute>138720</Absolute>
    <NoteOn Channel="1" Note="7" Velocity="127"/>
  </Event>
  <Event>
    <Absolute>138960</Absolute>
    <NoteOff Channel="1" Note="7" Velocity="0"/>
  </Event>
  <Event>
    <Absolute>139200</Absolute>
    <NoteOn Channel="1" Note="0" Velocity="127"/>
  </Event>
  <Event>
    <Absolute>139440</Absolute>
    <NoteOff Channel="1" Note="0" Velocity="0"/>
  </Event>
  <Event>
    <Absolute>139440</Absolute>
    <NoteOn Channel="1" Note="1" Velocity="96"/>
  </Event>
  <Event>
    <Absolute>139680</Absolute>
    <NoteOff Channel="1" Note="1" Velocity="0"/>
  </Event>
  <Event>
    <Absolute>139680</Absolute>
    <NoteOn Channel="1" Note="2" Velocity="127"/>
  </Event>
  <Event>
    <Absolute>139920</Absolute>
    <NoteOff Channel="1" Note="2" Velocity="0"/>
  </Event>
  <Event>
    <Absolute>140160</Absolute>
    <NoteOn Channel="1" Note="1" Velocity="127"/>
  </Event>
  <Event>
    <Absolute>140400</Absolute>
    <NoteOff Channel="1" Note="1" Velocity="0"/>
  </Event>
  <Event>
    <Absolute>140400</Absolute>
    <NoteOn Channel="1" Note="2" Velocity="96"/>
  </Event>
  <Event>
    <Absolute>140640</Absolute>
    <NoteOff Channel="1" Note="2" Velocity="0"/>
  </Event>
  <Event>
    <Absolute>140640</Absolute>
    <NoteOn Channel="1" Note="3" Velocity="127"/>
  </Event>
  <Event>
    <Absolute>140880</Absolute>
    <NoteOff Channel="1" Note="3" Velocity="0"/>
  </Event>
  <Event>
    <Absolute>141120</Absolute>
    <NoteOn Channel="1" Note="2" Velocity="127"/>
  </Event>
  <Event>
    <Absolute>141360</Absolute>
    <NoteOff Channel="1" Note="2" Velocity="0"/>
  </Event>
  <Event>
    <Absolute>141360</Absolute>
    <NoteOn Channel="1" Note="3" Velocity="96"/>
  </Event>
  <Event>
    <Absolute>141600</Absolute>
    <NoteOff Channel="1" Note="3" Velocity="0"/>
  </Event>
  <Event>
    <Absolute>141600</Absolute>
    <NoteOn Channel="1" Note="4" Velocity="127"/>
  </Event>
  <Event>
    <Absolute>141840</Absolute>
    <NoteOff Channel="1" Note="4" Velocity="0"/>
  </Event>
  <Event>
    <Absolute>142080</Absolute>
    <NoteOn Channel="1" Note="5" Velocity="127"/>
  </Event>
  <Event>
    <Absolute>142320</Absolute>
    <NoteOff Channel="1" Note="5" Velocity="0"/>
  </Event>
  <Event>
    <Absolute>142320</Absolute>
    <NoteOn Channel="1" Note="6" Velocity="96"/>
  </Event>
  <Event>
    <Absolute>142560</Absolute>
    <NoteOff Channel="1" Note="6" Velocity="0"/>
  </Event>
  <Event>
    <Absolute>142560</Absolute>
    <NoteOn Channel="1" Note="7" Velocity="96"/>
  </Event>
  <Event>
    <Absolute>142800</Absolute>
    <NoteOff Channel="1" Note="7" Velocity="0"/>
  </Event>
  <Event>
    <Absolute>142800</Absolute>
    <NoteOn Channel="1" Note="8" Velocity="127"/>
  </Event>
  <Event>
    <Absolute>143040</Absolute>
    <NoteOff Channel="1" Note="8" Velocity="0"/>
  </Event>
  <Event>
    <Absolute>143040</Absolute>
    <NoteOn Channel="1" Note="7" Velocity="96"/>
  </Event>
  <Event>
    <Absolute>143280</Absolute>
    <NoteOff Channel="1" Note="7" Velocity="0"/>
  </Event>
  <Event>
    <Absolute>143280</Absolute>
    <NoteOn Channel="1" Note="6" Velocity="96"/>
  </Event>
  <Event>
    <Absolute>143520</Absolute>
    <NoteOff Channel="1" Note="6" Velocity="0"/>
  </Event>
  <Event>
    <Absolute>143520</Absolute>
    <NoteOn Channel="1" Note="5" Velocity="96"/>
  </Event>
  <Event>
    <Absolute>143760</Absolute>
    <NoteOff Channel="1" Note="5" Velocity="0"/>
  </Event>
  <Event>
    <Absolute>143760</Absolute>
    <NoteOn Channel="1" Note="4" Velocity="127"/>
  </Event>
  <Event>
    <Absolute>144000</Absolute>
    <NoteOff Channel="1" Note="4" Velocity="0"/>
  </Event>
  <Event>
    <Absolute>144000</Absolute>
    <NoteOn Channel="1" Note="5" Velocity="96"/>
  </Event>
  <Event>
    <Absolute>144240</Absolute>
    <NoteOff Channel="1" Note="5" Velocity="0"/>
  </Event>
  <Event>
    <Absolute>144240</Absolute>
    <NoteOn Channel="1" Note="6" Velocity="96"/>
  </Event>
  <Event>
    <Absolute>144480</Absolute>
    <NoteOff Channel="1" Note="6" Velocity="0"/>
  </Event>
  <Event>
    <Absolute>144480</Absolute>
    <NoteOn Channel="1" Note="7" Velocity="96"/>
  </Event>
  <Event>
    <Absolute>144720</Absolute>
    <NoteOff Channel="1" Note="7" Velocity="0"/>
  </Event>
  <Event>
    <Absolute>144720</Absolute>
    <NoteOn Channel="1" Note="8" Velocity="127"/>
  </Event>
  <Event>
    <Absolute>144960</Absolute>
    <NoteOff Channel="1" Note="8" Velocity="0"/>
  </Event>
  <Event>
    <Absolute>145920</Absolute>
    <NoteOn Channel="1" Note="3" Velocity="127"/>
  </Event>
  <Event>
    <Absolute>146160</Absolute>
    <NoteOff Channel="1" Note="3" Velocity="0"/>
  </Event>
  <Event>
    <Absolute>146160</Absolute>
    <NoteOn Channel="1" Note="4" Velocity="96"/>
  </Event>
  <Event>
    <Absolute>146400</Absolute>
    <NoteOff Channel="1" Note="4" Velocity="0"/>
  </Event>
  <Event>
    <Absolute>146400</Absolute>
    <NoteOn Channel="1" Note="5" Velocity="96"/>
  </Event>
  <Event>
    <Absolute>146640</Absolute>
    <NoteOff Channel="1" Note="5" Velocity="0"/>
  </Event>
  <Event>
    <Absolute>146640</Absolute>
    <NoteOn Channel="1" Note="6" Velocity="96"/>
  </Event>
  <Event>
    <Absolute>146880</Absolute>
    <NoteOff Channel="1" Note="6" Velocity="0"/>
  </Event>
  <Event>
    <Absolute>146880</Absolute>
    <NoteOn Channel="1" Note="7" Velocity="96"/>
  </Event>
  <Event>
    <Absolute>147120</Absolute>
    <NoteOff Channel="1" Note="7" Velocity="0"/>
  </Event>
  <Event>
    <Absolute>147120</Absolute>
    <NoteOn Channel="1" Note="8" Velocity="127"/>
  </Event>
  <Event>
    <Absolute>147360</Absolute>
    <NoteOff Channel="1" Note="8" Velocity="0"/>
  </Event>
  <Event>
    <Absolute>147840</Absolute>
    <NoteOn Channel="1" Note="1" Velocity="127"/>
  </Event>
  <Event>
    <Absolute>148080</Absolute>
    <NoteOff Channel="1" Note="1" Velocity="0"/>
  </Event>
  <Event>
    <Absolute>148080</Absolute>
    <NoteOn Channel="1" Note="2" Velocity="96"/>
  </Event>
  <Event>
    <Absolute>148320</Absolute>
    <NoteOff Channel="1" Note="2" Velocity="0"/>
  </Event>
  <Event>
    <Absolute>148320</Absolute>
    <NoteOn Channel="1" Note="3" Velocity="96"/>
  </Event>
  <Event>
    <Absolute>148560</Absolute>
    <NoteOff Channel="1" Note="3" Velocity="0"/>
  </Event>
  <Event>
    <Absolute>148560</Absolute>
    <NoteOn Channel="1" Note="4" Velocity="96"/>
  </Event>
  <Event>
    <Absolute>148800</Absolute>
    <NoteOff Channel="1" Note="4" Velocity="0"/>
  </Event>
  <Event>
    <Absolute>148800</Absolute>
    <NoteOn Channel="1" Note="5" Velocity="96"/>
  </Event>
  <Event>
    <Absolute>149040</Absolute>
    <NoteOff Channel="1" Note="5" Velocity="0"/>
  </Event>
  <Event>
    <Absolute>149040</Absolute>
    <NoteOn Channel="1" Note="6" Velocity="127"/>
  </Event>
  <Event>
    <Absolute>149280</Absolute>
    <NoteOff Channel="1" Note="6" Velocity="0"/>
  </Event>
  <Event>
    <Absolute>149760</Absolute>
    <NoteOn Channel="1" Note="0" Velocity="127"/>
  </Event>
  <Event>
    <Absolute>150000</Absolute>
    <NoteOff Channel="1" Note="0" Velocity="0"/>
  </Event>
  <Event>
    <Absolute>150000</Absolute>
    <NoteOn Channel="1" Note="1" Velocity="96"/>
  </Event>
  <Event>
    <Absolute>150240</Absolute>
    <NoteOff Channel="1" Note="1" Velocity="0"/>
  </Event>
  <Event>
    <Absolute>150240</Absolute>
    <NoteOn Channel="1" Note="2" Velocity="127"/>
  </Event>
  <Event>
    <Absolute>150480</Absolute>
    <NoteOff Channel="1" Note="2" Velocity="0"/>
  </Event>
  <Event>
    <Absolute>150720</Absolute>
    <NoteOn Channel="1" Note="1" Velocity="127"/>
  </Event>
  <Event>
    <Absolute>150960</Absolute>
    <NoteOff Channel="1" Note="1" Velocity="0"/>
  </Event>
  <Event>
    <Absolute>150960</Absolute>
    <NoteOn Channel="1" Note="2" Velocity="96"/>
  </Event>
  <Event>
    <Absolute>151200</Absolute>
    <NoteOff Channel="1" Note="2" Velocity="0"/>
  </Event>
  <Event>
    <Absolute>151200</Absolute>
    <NoteOn Channel="1" Note="3" Velocity="127"/>
  </Event>
  <Event>
    <Absolute>151440</Absolute>
    <NoteOff Channel="1" Note="3" Velocity="0"/>
  </Event>
  <Event>
    <Absolute>151680</Absolute>
    <NoteOn Channel="1" Note="3" Velocity="127"/>
  </Event>
  <Event>
    <Absolute>151920</Absolute>
    <NoteOff Channel="1" Note="3" Velocity="0"/>
  </Event>
  <Event>
    <Absolute>151920</Absolute>
    <NoteOn Channel="1" Note="4" Velocity="96"/>
  </Event>
  <Event>
    <Absolute>152160</Absolute>
    <NoteOff Channel="1" Note="4" Velocity="0"/>
  </Event>
  <Event>
    <Absolute>152160</Absolute>
    <NoteOn Channel="1" Note="5" Velocity="127"/>
  </Event>
  <Event>
    <Absolute>152400</Absolute>
    <NoteOff Channel="1" Note="5" Velocity="0"/>
  </Event>
  <Event>
    <Absolute>152640</Absolute>
    <NoteOn Channel="1" Note="3" Velocity="127"/>
  </Event>
  <Event>
    <Absolute>152880</Absolute>
    <NoteOff Channel="1" Note="3" Velocity="0"/>
  </Event>
  <Event>
    <Absolute>152880</Absolute>
    <NoteOn Channel="1" Note="4" Velocity="96"/>
  </Event>
  <Event>
    <Absolute>153120</Absolute>
    <NoteOff Channel="1" Note="4" Velocity="0"/>
  </Event>
  <Event>
    <Absolute>153120</Absolute>
    <NoteOn Channel="1" Note="5" Velocity="127"/>
  </Event>
  <Event>
    <Absolute>153360</Absolute>
    <NoteOff Channel="1" Note="5" Velocity="0"/>
  </Event>
  <Event>
    <Absolute>153600</Absolute>
    <NoteOn Channel="1" Note="4" Velocity="127"/>
  </Event>
  <Event>
    <Absolute>153840</Absolute>
    <NoteOff Channel="1" Note="4" Velocity="0"/>
  </Event>
  <Event>
    <Absolute>153840</Absolute>
    <NoteOn Channel="1" Note="3" Velocity="96"/>
  </Event>
  <Event>
    <Absolute>154080</Absolute>
    <NoteOff Channel="1" Note="3" Velocity="0"/>
  </Event>
  <Event>
    <Absolute>154080</Absolute>
    <NoteOn Channel="1" Note="2" Velocity="127"/>
  </Event>
  <Event>
    <Absolute>154320</Absolute>
    <NoteOff Channel="1" Note="2" Velocity="0"/>
  </Event>
  <Event>
    <Absolute>154560</Absolute>
    <NoteOn Channel="1" Note="3" Velocity="127"/>
  </Event>
  <Event>
    <Absolute>154800</Absolute>
    <NoteOff Channel="1" Note="3" Velocity="0"/>
  </Event>
  <Event>
    <Absolute>154800</Absolute>
    <NoteOn Channel="1" Note="2" Velocity="96"/>
  </Event>
  <Event>
    <Absolute>155040</Absolute>
    <NoteOff Channel="1" Note="2" Velocity="0"/>
  </Event>
  <Event>
    <Absolute>155040</Absolute>
    <NoteOn Channel="1" Note="1" Velocity="127"/>
  </Event>
  <Event>
    <Absolute>155280</Absolute>
    <NoteOff Channel="1" Note="1" Velocity="0"/>
  </Event>
  <Event>
    <Absolute>155520</Absolute>
    <NoteOn Channel="1" Note="4" Velocity="127"/>
  </Event>
  <Event>
    <Absolute>155760</Absolute>
    <NoteOff Channel="1" Note="4" Velocity="0"/>
  </Event>
  <Event>
    <Absolute>155760</Absolute>
    <NoteOn Channel="1" Note="3" Velocity="96"/>
  </Event>
  <Event>
    <Absolute>156000</Absolute>
    <NoteOff Channel="1" Note="3" Velocity="0"/>
  </Event>
  <Event>
    <Absolute>156000</Absolute>
    <NoteOn Channel="1" Note="2" Velocity="127"/>
  </Event>
  <Event>
    <Absolute>156240</Absolute>
    <NoteOff Channel="1" Note="2" Velocity="0"/>
  </Event>
  <Event>
    <Absolute>156480</Absolute>
    <NoteOn Channel="1" Note="3" Velocity="127"/>
  </Event>
  <Event>
    <Absolute>156720</Absolute>
    <NoteOff Channel="1" Note="3" Velocity="0"/>
  </Event>
  <Event>
    <Absolute>156720</Absolute>
    <NoteOn Channel="1" Note="2" Velocity="96"/>
  </Event>
  <Event>
    <Absolute>156960</Absolute>
    <NoteOff Channel="1" Note="2" Velocity="0"/>
  </Event>
  <Event>
    <Absolute>156960</Absolute>
    <NoteOn Channel="1" Note="1" Velocity="127"/>
  </Event>
  <Event>
    <Absolute>157200</Absolute>
    <NoteOff Channel="1" Note="1" Velocity="0"/>
  </Event>
  <Event>
    <Absolute>157440</Absolute>
    <NoteOn Channel="1" Note="2" Velocity="127"/>
  </Event>
  <Event>
    <Absolute>157680</Absolute>
    <NoteOff Channel="1" Note="2" Velocity="0"/>
  </Event>
  <Event>
    <Absolute>157680</Absolute>
    <NoteOn Channel="1" Note="1" Velocity="96"/>
  </Event>
  <Event>
    <Absolute>157920</Absolute>
    <NoteOff Channel="1" Note="1" Velocity="0"/>
  </Event>
  <Event>
    <Absolute>157920</Absolute>
    <NoteOn Channel="1" Note="0" Velocity="127"/>
  </Event>
  <Event>
    <Absolute>158160</Absolute>
    <NoteOff Channel="1" Note="0" Velocity="0"/>
  </Event>
  <Event>
    <Absolute>158160</Absolute>
    <NoteOn Channel="1" Note="0" Velocity="96"/>
  </Event>
  <Event>
    <Absolute>158400</Absolute>
    <NoteOff Channel="1" Note="0" Velocity="0"/>
  </Event>
  <Event>
    <Absolute>158400</Absolute>
    <NoteOn Channel="1" Note="0" Velocity="96"/>
  </Event>
  <Event>
    <Absolute>158640</Absolute>
    <NoteOff Channel="1" Note="0" Velocity="0"/>
  </Event>
  <Event>
    <Absolute>158640</Absolute>
    <NoteOn Channel="1" Note="0" Velocity="96"/>
  </Event>
  <Event>
    <Absolute>158880</Absolute>
    <NoteOff Channel="1" Note="0" Velocity="0"/>
  </Event>
  <Event>
    <Absolute>158880</Absolute>
    <NoteOn Channel="1" Note="0" Velocity="96"/>
  </Event>
  <Event>
    <Absolute>159120</Absolute>
    <NoteOff Channel="1" Note="0" Velocity="0"/>
  </Event>
  <Event>
    <Absolute>159120</Absolute>
    <NoteOn Channel="1" Note="0" Velocity="96"/>
  </Event>
  <Event>
    <Absolute>159360</Absolute>
    <NoteOff Channel="1" Note="0" Velocity="0"/>
  </Event>
  <Event>
    <Absolute>159360</Absolute>
    <NoteOn Channel="1" Note="0" Velocity="96"/>
  </Event>
  <Event>
    <Absolute>159600</Absolute>
    <NoteOff Channel="1" Note="0" Velocity="0"/>
  </Event>
  <Event>
    <Absolute>159600</Absolute>
    <NoteOn Channel="1" Note="0" Velocity="96"/>
  </Event>
  <Event>
    <Absolute>159840</Absolute>
    <NoteOff Channel="1" Note="0" Velocity="0"/>
  </Event>
  <Event>
    <Absolute>159840</Absolute>
    <NoteOn Channel="1" Note="0" Velocity="96"/>
  </Event>
  <Event>
    <Absolute>160080</Absolute>
    <NoteOff Channel="1" Note="0" Velocity="0"/>
  </Event>
  <Event>
    <Absolute>160080</Absolute>
    <NoteOn Channel="1" Note="0" Velocity="127"/>
  </Event>
  <Event>
    <Absolute>160320</Absolute>
    <NoteOff Channel="1" Note="0" Velocity="0"/>
  </Event>
  <Event>
    <Absolute>192000</Absolute>
    <NoteOn Channel="1" Note="5" Velocity="127"/>
  </Event>
  <Event>
    <Absolute>192240</Absolute>
    <NoteOff Channel="1" Note="5" Velocity="0"/>
  </Event>
  <Event>
    <Absolute>192480</Absolute>
    <NoteOn Channel="1" Note="7" Velocity="127"/>
  </Event>
  <Event>
    <Absolute>192720</Absolute>
    <NoteOff Channel="1" Note="7" Velocity="0"/>
  </Event>
  <Event>
    <Absolute>192960</Absolute>
    <NoteOn Channel="1" Note="8" Velocity="127"/>
  </Event>
  <Event>
    <Absolute>193200</Absolute>
    <NoteOff Channel="1" Note="8" Velocity="0"/>
  </Event>
  <Event>
    <Absolute>193200</Absolute>
    <NoteOn Channel="1" Note="7" Velocity="96"/>
  </Event>
  <Event>
    <Absolute>193440</Absolute>
    <NoteOff Channel="1" Note="7" Velocity="0"/>
  </Event>
  <Event>
    <Absolute>193440</Absolute>
    <NoteOn Channel="1" Note="6" Velocity="127"/>
  </Event>
  <Event>
    <Absolute>193680</Absolute>
    <NoteOff Channel="1" Note="6" Velocity="0"/>
  </Event>
  <Event>
    <Absolute>193920</Absolute>
    <NoteOn Channel="1" Note="4" Velocity="127"/>
  </Event>
  <Event>
    <Absolute>194160</Absolute>
    <NoteOff Channel="1" Note="4" Velocity="0"/>
  </Event>
  <Event>
    <Absolute>194160</Absolute>
    <NoteOn Channel="1" Note="5" Velocity="96"/>
  </Event>
  <Event>
    <Absolute>194400</Absolute>
    <NoteOff Channel="1" Note="5" Velocity="0"/>
  </Event>
  <Event>
    <Absolute>194400</Absolute>
    <NoteOn Channel="1" Note="6" Velocity="127"/>
  </Event>
  <Event>
    <Absolute>194640</Absolute>
    <NoteOff Channel="1" Note="6" Velocity="0"/>
  </Event>
  <Event>
    <Absolute>194640</Absolute>
    <NoteOn Channel="1" Note="2" Velocity="127"/>
  </Event>
  <Event>
    <Absolute>194880</Absolute>
    <NoteOff Channel="1" Note="2" Velocity="0"/>
  </Event>
  <Event>
    <Absolute>194880</Absolute>
    <NoteOn Channel="1" Note="2" Velocity="127"/>
  </Event>
  <Event>
    <Absolute>195120</Absolute>
    <NoteOff Channel="1" Note="2" Velocity="0"/>
  </Event>
  <Event>
    <Absolute>195120</Absolute>
    <NoteOn Channel="1" Note="3" Velocity="96"/>
  </Event>
  <Event>
    <Absolute>195360</Absolute>
    <NoteOff Channel="1" Note="3" Velocity="0"/>
  </Event>
  <Event>
    <Absolute>195360</Absolute>
    <NoteOn Channel="1" Note="4" Velocity="127"/>
  </Event>
  <Event>
    <Absolute>195600</Absolute>
    <NoteOff Channel="1" Note="4" Velocity="0"/>
  </Event>
  <Event>
    <Absolute>195840</Absolute>
    <NoteOn Channel="1" Note="2" Velocity="127"/>
  </Event>
  <Event>
    <Absolute>196080</Absolute>
    <NoteOff Channel="1" Note="2" Velocity="0"/>
  </Event>
  <Event>
    <Absolute>196080</Absolute>
    <NoteOn Channel="1" Note="3" Velocity="96"/>
  </Event>
  <Event>
    <Absolute>196320</Absolute>
    <NoteOff Channel="1" Note="3" Velocity="0"/>
  </Event>
  <Event>
    <Absolute>196320</Absolute>
    <NoteOn Channel="1" Note="4" Velocity="127"/>
  </Event>
  <Event>
    <Absolute>196560</Absolute>
    <NoteOff Channel="1" Note="4" Velocity="0"/>
  </Event>
  <Event>
    <Absolute>196560</Absolute>
    <NoteOn Channel="1" Note="3" Velocity="96"/>
  </Event>
  <Event>
    <Absolute>196800</Absolute>
    <NoteOff Channel="1" Note="3" Velocity="0"/>
  </Event>
  <Event>
    <Absolute>196800</Absolute>
    <NoteOn Channel="1" Note="2" Velocity="127"/>
  </Event>
  <Event>
    <Absolute>197040</Absolute>
    <NoteOff Channel="1" Note="2" Velocity="0"/>
  </Event>
  <Event>
    <Absolute>197040</Absolute>
    <NoteOn Channel="1" Note="3" Velocity="127"/>
  </Event>
  <Event>
    <Absolute>197280</Absolute>
    <NoteOff Channel="1" Note="3" Velocity="0"/>
  </Event>
  <Event>
    <Absolute>197280</Absolute>
    <NoteOn Channel="1" Note="2" Velocity="96"/>
  </Event>
  <Event>
    <Absolute>197520</Absolute>
    <NoteOff Channel="1" Note="2" Velocity="0"/>
  </Event>
  <Event>
    <Absolute>197520</Absolute>
    <NoteOn Channel="1" Note="1" Velocity="96"/>
  </Event>
  <Event>
    <Absolute>197760</Absolute>
    <NoteOff Channel="1" Note="1" Velocity="0"/>
  </Event>
  <Event>
    <Absolute>197760</Absolute>
    <NoteOn Channel="1" Note="0" Velocity="127"/>
  </Event>
  <Event>
    <Absolute>198000</Absolute>
    <NoteOff Channel="1" Note="0" Velocity="0"/>
  </Event>
  <Event>
    <Absolute>198000</Absolute>
    <NoteOn Channel="1" Note="1" Velocity="96"/>
  </Event>
  <Event>
    <Absolute>198240</Absolute>
    <NoteOff Channel="1" Note="1" Velocity="0"/>
  </Event>
  <Event>
    <Absolute>198240</Absolute>
    <NoteOn Channel="1" Note="2" Velocity="96"/>
  </Event>
  <Event>
    <Absolute>198480</Absolute>
    <NoteOff Channel="1" Note="2" Velocity="0"/>
  </Event>
  <Event>
    <Absolute>198480</Absolute>
    <NoteOn Channel="1" Note="3" Velocity="96"/>
  </Event>
  <Event>
    <Absolute>198720</Absolute>
    <NoteOff Channel="1" Note="3" Velocity="0"/>
  </Event>
  <Event>
    <Absolute>198720</Absolute>
    <NoteOn Channel="1" Note="4" Velocity="96"/>
  </Event>
  <Event>
    <Absolute>198960</Absolute>
    <NoteOff Channel="1" Note="4" Velocity="0"/>
  </Event>
  <Event>
    <Absolute>198960</Absolute>
    <NoteOn Channel="1" Note="5" Velocity="96"/>
  </Event>
  <Event>
    <Absolute>199200</Absolute>
    <NoteOff Channel="1" Note="5" Velocity="0"/>
  </Event>
  <Event>
    <Absolute>199200</Absolute>
    <NoteOn Channel="1" Note="6" Velocity="96"/>
  </Event>
  <Event>
    <Absolute>199440</Absolute>
    <NoteOff Channel="1" Note="6" Velocity="0"/>
  </Event>
  <Event>
    <Absolute>199440</Absolute>
    <NoteOn Channel="1" Note="7" Velocity="127"/>
  </Event>
  <Event>
    <Absolute>199680</Absolute>
    <NoteOff Channel="1" Note="7" Velocity="0"/>
  </Event>
  <Event>
    <Absolute>199680</Absolute>
    <NoteOn Channel="1" Note="4" Velocity="127"/>
  </Event>
  <Event>
    <Absolute>199920</Absolute>
    <NoteOff Channel="1" Note="4" Velocity="0"/>
  </Event>
  <Event>
    <Absolute>199920</Absolute>
    <NoteOn Channel="1" Note="5" Velocity="96"/>
  </Event>
  <Event>
    <Absolute>200160</Absolute>
    <NoteOff Channel="1" Note="5" Velocity="0"/>
  </Event>
  <Event>
    <Absolute>200160</Absolute>
    <NoteOn Channel="1" Note="6" Velocity="127"/>
  </Event>
  <Event>
    <Absolute>200400</Absolute>
    <NoteOff Channel="1" Note="6" Velocity="0"/>
  </Event>
  <Event>
    <Absolute>200400</Absolute>
    <NoteOn Channel="1" Note="5" Velocity="127"/>
  </Event>
  <Event>
    <Absolute>200640</Absolute>
    <NoteOff Channel="1" Note="5" Velocity="0"/>
  </Event>
  <Event>
    <Absolute>200880</Absolute>
    <NoteOn Channel="1" Note="6" Velocity="127"/>
  </Event>
  <Event>
    <Absolute>201120</Absolute>
    <NoteOff Channel="1" Note="6" Velocity="0"/>
  </Event>
  <Event>
    <Absolute>201120</Absolute>
    <NoteOn Channel="1" Note="5" Velocity="127"/>
  </Event>
  <Event>
    <Absolute>201360</Absolute>
    <NoteOff Channel="1" Note="5" Velocity="0"/>
  </Event>
  <Event>
    <Absolute>201360</Absolute>
    <NoteOn Channel="1" Note="6" Velocity="127"/>
  </Event>
  <Event>
    <Absolute>201600</Absolute>
    <NoteOff Channel="1" Note="6" Velocity="0"/>
  </Event>
  <Event>
    <Absolute>201600</Absolute>
    <NoteOn Channel="1" Note="3" Velocity="127"/>
  </Event>
  <Event>
    <Absolute>201840</Absolute>
    <NoteOff Channel="1" Note="3" Velocity="0"/>
  </Event>
  <Event>
    <Absolute>201840</Absolute>
    <NoteOn Channel="1" Note="3" Velocity="127"/>
  </Event>
  <Event>
    <Absolute>202080</Absolute>
    <NoteOff Channel="1" Note="3" Velocity="0"/>
  </Event>
  <Event>
    <Absolute>202080</Absolute>
    <NoteOn Channel="1" Note="4" Velocity="96"/>
  </Event>
  <Event>
    <Absolute>202320</Absolute>
    <NoteOff Channel="1" Note="4" Velocity="0"/>
  </Event>
  <Event>
    <Absolute>202320</Absolute>
    <NoteOn Channel="1" Note="5" Velocity="127"/>
  </Event>
  <Event>
    <Absolute>202560</Absolute>
    <NoteOff Channel="1" Note="5" Velocity="0"/>
  </Event>
  <Event>
    <Absolute>202560</Absolute>
    <NoteOn Channel="1" Note="4" Velocity="127"/>
  </Event>
  <Event>
    <Absolute>202800</Absolute>
    <NoteOff Channel="1" Note="4" Velocity="0"/>
  </Event>
  <Event>
    <Absolute>202800</Absolute>
    <NoteOn Channel="1" Note="4" Velocity="127"/>
  </Event>
  <Event>
    <Absolute>203040</Absolute>
    <NoteOff Channel="1" Note="4" Velocity="0"/>
  </Event>
  <Event>
    <Absolute>203040</Absolute>
    <NoteOn Channel="1" Note="5" Velocity="96"/>
  </Event>
  <Event>
    <Absolute>203280</Absolute>
    <NoteOff Channel="1" Note="5" Velocity="0"/>
  </Event>
  <Event>
    <Absolute>203280</Absolute>
    <NoteOn Channel="1" Note="6" Velocity="96"/>
  </Event>
  <Event>
    <Absolute>203520</Absolute>
    <NoteOff Channel="1" Note="6" Velocity="0"/>
  </Event>
  <Event>
    <Absolute>203520</Absolute>
    <NoteOn Channel="1" Note="7" Velocity="96"/>
  </Event>
  <Event>
    <Absolute>203760</Absolute>
    <NoteOff Channel="1" Note="7" Velocity="0"/>
  </Event>
  <Event>
    <Absolute>203760</Absolute>
    <NoteOn Channel="1" Note="8" Velocity="127"/>
  </Event>
  <Event>
    <Absolute>204000</Absolute>
    <NoteOff Channel="1" Note="8" Velocity="0"/>
  </Event>
  <Event>
    <Absolute>204000</Absolute>
    <NoteOn Channel="1" Note="7" Velocity="96"/>
  </Event>
  <Event>
    <Absolute>204240</Absolute>
    <NoteOff Channel="1" Note="7" Velocity="0"/>
  </Event>
  <Event>
    <Absolute>204240</Absolute>
    <NoteOn Channel="1" Note="6" Velocity="96"/>
  </Event>
  <Event>
    <Absolute>204480</Absolute>
    <NoteOff Channel="1" Note="6" Velocity="0"/>
  </Event>
  <Event>
    <Absolute>204480</Absolute>
    <NoteOn Channel="1" Note="5" Velocity="96"/>
  </Event>
  <Event>
    <Absolute>204720</Absolute>
    <NoteOff Channel="1" Note="5" Velocity="0"/>
  </Event>
  <Event>
    <Absolute>204720</Absolute>
    <NoteOn Channel="1" Note="4" Velocity="127"/>
  </Event>
  <Event>
    <Absolute>204960</Absolute>
    <NoteOff Channel="1" Note="4" Velocity="0"/>
  </Event>
  <Event>
    <Absolute>204960</Absolute>
    <NoteOn Channel="1" Note="5" Velocity="96"/>
  </Event>
  <Event>
    <Absolute>205200</Absolute>
    <NoteOff Channel="1" Note="5" Velocity="0"/>
  </Event>
  <Event>
    <Absolute>205200</Absolute>
    <NoteOn Channel="1" Note="6" Velocity="96"/>
  </Event>
  <Event>
    <Absolute>205440</Absolute>
    <NoteOff Channel="1" Note="6" Velocity="0"/>
  </Event>
  <Event>
    <Absolute>205440</Absolute>
    <NoteOn Channel="1" Note="7" Velocity="96"/>
  </Event>
  <Event>
    <Absolute>205680</Absolute>
    <NoteOff Channel="1" Note="7" Velocity="0"/>
  </Event>
  <Event>
    <Absolute>205680</Absolute>
    <NoteOn Channel="1" Note="8" Velocity="127"/>
  </Event>
  <Event>
    <Absolute>205920</Absolute>
    <NoteOff Channel="1" Note="8" Velocity="0"/>
  </Event>
  <Event>
    <Absolute>205920</Absolute>
    <NoteOn Channel="1" Note="7" Velocity="96"/>
  </Event>
  <Event>
    <Absolute>206160</Absolute>
    <NoteOff Channel="1" Note="7" Velocity="0"/>
  </Event>
  <Event>
    <Absolute>206160</Absolute>
    <NoteOn Channel="1" Note="6" Velocity="96"/>
  </Event>
  <Event>
    <Absolute>206400</Absolute>
    <NoteOff Channel="1" Note="6" Velocity="0"/>
  </Event>
  <Event>
    <Absolute>206400</Absolute>
    <NoteOn Channel="1" Note="5" Velocity="96"/>
  </Event>
  <Event>
    <Absolute>206640</Absolute>
    <NoteOff Channel="1" Note="5" Velocity="0"/>
  </Event>
  <Event>
    <Absolute>206640</Absolute>
    <NoteOn Channel="1" Note="4" Velocity="127"/>
  </Event>
  <Event>
    <Absolute>206880</Absolute>
    <NoteOff Channel="1" Note="4" Velocity="0"/>
  </Event>
  <Event>
    <Absolute>206880</Absolute>
    <NoteOn Channel="1" Note="5" Velocity="96"/>
  </Event>
  <Event>
    <Absolute>207120</Absolute>
    <NoteOff Channel="1" Note="5" Velocity="0"/>
  </Event>
  <Event>
    <Absolute>207120</Absolute>
    <NoteOn Channel="1" Note="6" Velocity="96"/>
  </Event>
  <Event>
    <Absolute>207360</Absolute>
    <NoteOff Channel="1" Note="6" Velocity="0"/>
  </Event>
  <Event>
    <Absolute>207360</Absolute>
    <NoteOn Channel="1" Note="5" Velocity="127"/>
  </Event>
  <Event>
    <Absolute>207600</Absolute>
    <NoteOff Channel="1" Note="5" Velocity="0"/>
  </Event>
  <Event>
    <Absolute>207840</Absolute>
    <NoteOn Channel="1" Note="7" Velocity="127"/>
  </Event>
  <Event>
    <Absolute>208080</Absolute>
    <NoteOff Channel="1" Note="7" Velocity="0"/>
  </Event>
  <Event>
    <Absolute>208320</Absolute>
    <NoteOn Channel="1" Note="8" Velocity="127"/>
  </Event>
  <Event>
    <Absolute>208560</Absolute>
    <NoteOff Channel="1" Note="8" Velocity="0"/>
  </Event>
  <Event>
    <Absolute>208560</Absolute>
    <NoteOn Channel="1" Note="7" Velocity="96"/>
  </Event>
  <Event>
    <Absolute>208800</Absolute>
    <NoteOff Channel="1" Note="7" Velocity="0"/>
  </Event>
  <Event>
    <Absolute>208800</Absolute>
    <NoteOn Channel="1" Note="6" Velocity="127"/>
  </Event>
  <Event>
    <Absolute>209040</Absolute>
    <NoteOff Channel="1" Note="6" Velocity="0"/>
  </Event>
  <Event>
    <Absolute>209280</Absolute>
    <NoteOn Channel="1" Note="4" Velocity="127"/>
  </Event>
  <Event>
    <Absolute>209520</Absolute>
    <NoteOff Channel="1" Note="4" Velocity="0"/>
  </Event>
  <Event>
    <Absolute>209520</Absolute>
    <NoteOn Channel="1" Note="5" Velocity="96"/>
  </Event>
  <Event>
    <Absolute>209760</Absolute>
    <NoteOff Channel="1" Note="5" Velocity="0"/>
  </Event>
  <Event>
    <Absolute>209760</Absolute>
    <NoteOn Channel="1" Note="6" Velocity="127"/>
  </Event>
  <Event>
    <Absolute>210000</Absolute>
    <NoteOff Channel="1" Note="6" Velocity="0"/>
  </Event>
  <Event>
    <Absolute>210000</Absolute>
    <NoteOn Channel="1" Note="2" Velocity="127"/>
  </Event>
  <Event>
    <Absolute>210240</Absolute>
    <NoteOff Channel="1" Note="2" Velocity="0"/>
  </Event>
  <Event>
    <Absolute>210240</Absolute>
    <NoteOn Channel="1" Note="2" Velocity="127"/>
  </Event>
  <Event>
    <Absolute>210480</Absolute>
    <NoteOff Channel="1" Note="2" Velocity="0"/>
  </Event>
  <Event>
    <Absolute>210480</Absolute>
    <NoteOn Channel="1" Note="3" Velocity="96"/>
  </Event>
  <Event>
    <Absolute>210720</Absolute>
    <NoteOff Channel="1" Note="3" Velocity="0"/>
  </Event>
  <Event>
    <Absolute>210720</Absolute>
    <NoteOn Channel="1" Note="4" Velocity="127"/>
  </Event>
  <Event>
    <Absolute>210960</Absolute>
    <NoteOff Channel="1" Note="4" Velocity="0"/>
  </Event>
  <Event>
    <Absolute>211200</Absolute>
    <NoteOn Channel="1" Note="2" Velocity="127"/>
  </Event>
  <Event>
    <Absolute>211440</Absolute>
    <NoteOff Channel="1" Note="2" Velocity="0"/>
  </Event>
  <Event>
    <Absolute>211440</Absolute>
    <NoteOn Channel="1" Note="3" Velocity="96"/>
  </Event>
  <Event>
    <Absolute>211680</Absolute>
    <NoteOff Channel="1" Note="3" Velocity="0"/>
  </Event>
  <Event>
    <Absolute>211680</Absolute>
    <NoteOn Channel="1" Note="4" Velocity="127"/>
  </Event>
  <Event>
    <Absolute>211920</Absolute>
    <NoteOff Channel="1" Note="4" Velocity="0"/>
  </Event>
  <Event>
    <Absolute>211920</Absolute>
    <NoteOn Channel="1" Note="3" Velocity="96"/>
  </Event>
  <Event>
    <Absolute>212160</Absolute>
    <NoteOff Channel="1" Note="3" Velocity="0"/>
  </Event>
  <Event>
    <Absolute>212160</Absolute>
    <NoteOn Channel="1" Note="2" Velocity="127"/>
  </Event>
  <Event>
    <Absolute>212400</Absolute>
    <NoteOff Channel="1" Note="2" Velocity="0"/>
  </Event>
  <Event>
    <Absolute>212400</Absolute>
    <NoteOn Channel="1" Note="3" Velocity="127"/>
  </Event>
  <Event>
    <Absolute>212640</Absolute>
    <NoteOff Channel="1" Note="3" Velocity="0"/>
  </Event>
  <Event>
    <Absolute>212640</Absolute>
    <NoteOn Channel="1" Note="2" Velocity="96"/>
  </Event>
  <Event>
    <Absolute>212880</Absolute>
    <NoteOff Channel="1" Note="2" Velocity="0"/>
  </Event>
  <Event>
    <Absolute>212880</Absolute>
    <NoteOn Channel="1" Note="1" Velocity="96"/>
  </Event>
  <Event>
    <Absolute>213120</Absolute>
    <NoteOff Channel="1" Note="1" Velocity="0"/>
  </Event>
  <Event>
    <Absolute>213120</Absolute>
    <NoteOn Channel="1" Note="0" Velocity="127"/>
  </Event>
  <Event>
    <Absolute>213360</Absolute>
    <NoteOff Channel="1" Note="0" Velocity="0"/>
  </Event>
  <Event>
    <Absolute>213360</Absolute>
    <NoteOn Channel="1" Note="1" Velocity="96"/>
  </Event>
  <Event>
    <Absolute>213600</Absolute>
    <NoteOff Channel="1" Note="1" Velocity="0"/>
  </Event>
  <Event>
    <Absolute>213600</Absolute>
    <NoteOn Channel="1" Note="2" Velocity="96"/>
  </Event>
  <Event>
    <Absolute>213840</Absolute>
    <NoteOff Channel="1" Note="2" Velocity="0"/>
  </Event>
  <Event>
    <Absolute>213840</Absolute>
    <NoteOn Channel="1" Note="3" Velocity="96"/>
  </Event>
  <Event>
    <Absolute>214080</Absolute>
    <NoteOff Channel="1" Note="3" Velocity="0"/>
  </Event>
  <Event>
    <Absolute>214080</Absolute>
    <NoteOn Channel="1" Note="4" Velocity="96"/>
  </Event>
  <Event>
    <Absolute>214320</Absolute>
    <NoteOff Channel="1" Note="4" Velocity="0"/>
  </Event>
  <Event>
    <Absolute>214320</Absolute>
    <NoteOn Channel="1" Note="5" Velocity="96"/>
  </Event>
  <Event>
    <Absolute>214560</Absolute>
    <NoteOff Channel="1" Note="5" Velocity="0"/>
  </Event>
  <Event>
    <Absolute>214560</Absolute>
    <NoteOn Channel="1" Note="6" Velocity="96"/>
  </Event>
  <Event>
    <Absolute>214800</Absolute>
    <NoteOff Channel="1" Note="6" Velocity="0"/>
  </Event>
  <Event>
    <Absolute>214800</Absolute>
    <NoteOn Channel="1" Note="7" Velocity="127"/>
  </Event>
  <Event>
    <Absolute>215040</Absolute>
    <NoteOff Channel="1" Note="7" Velocity="0"/>
  </Event>
  <Event>
    <Absolute>215040</Absolute>
    <NoteOn Channel="1" Note="4" Velocity="127"/>
  </Event>
  <Event>
    <Absolute>215280</Absolute>
    <NoteOff Channel="1" Note="4" Velocity="0"/>
  </Event>
  <Event>
    <Absolute>215280</Absolute>
    <NoteOn Channel="1" Note="5" Velocity="96"/>
  </Event>
  <Event>
    <Absolute>215520</Absolute>
    <NoteOff Channel="1" Note="5" Velocity="0"/>
  </Event>
  <Event>
    <Absolute>215520</Absolute>
    <NoteOn Channel="1" Note="6" Velocity="127"/>
  </Event>
  <Event>
    <Absolute>215760</Absolute>
    <NoteOff Channel="1" Note="6" Velocity="0"/>
  </Event>
  <Event>
    <Absolute>215760</Absolute>
    <NoteOn Channel="1" Note="5" Velocity="127"/>
  </Event>
  <Event>
    <Absolute>216000</Absolute>
    <NoteOff Channel="1" Note="5" Velocity="0"/>
  </Event>
  <Event>
    <Absolute>216240</Absolute>
    <NoteOn Channel="1" Note="6" Velocity="127"/>
  </Event>
  <Event>
    <Absolute>216480</Absolute>
    <NoteOff Channel="1" Note="6" Velocity="0"/>
  </Event>
  <Event>
    <Absolute>216480</Absolute>
    <NoteOn Channel="1" Note="5" Velocity="127"/>
  </Event>
  <Event>
    <Absolute>216720</Absolute>
    <NoteOff Channel="1" Note="5" Velocity="0"/>
  </Event>
  <Event>
    <Absolute>216720</Absolute>
    <NoteOn Channel="1" Note="6" Velocity="127"/>
  </Event>
  <Event>
    <Absolute>216960</Absolute>
    <NoteOff Channel="1" Note="6" Velocity="0"/>
  </Event>
  <Event>
    <Absolute>216960</Absolute>
    <NoteOn Channel="1" Note="3" Velocity="127"/>
  </Event>
  <Event>
    <Absolute>217200</Absolute>
    <NoteOff Channel="1" Note="3" Velocity="0"/>
  </Event>
  <Event>
    <Absolute>217200</Absolute>
    <NoteOn Channel="1" Note="3" Velocity="127"/>
  </Event>
  <Event>
    <Absolute>217440</Absolute>
    <NoteOff Channel="1" Note="3" Velocity="0"/>
  </Event>
  <Event>
    <Absolute>217440</Absolute>
    <NoteOn Channel="1" Note="4" Velocity="96"/>
  </Event>
  <Event>
    <Absolute>217680</Absolute>
    <NoteOff Channel="1" Note="4" Velocity="0"/>
  </Event>
  <Event>
    <Absolute>217680</Absolute>
    <NoteOn Channel="1" Note="5" Velocity="127"/>
  </Event>
  <Event>
    <Absolute>217920</Absolute>
    <NoteOff Channel="1" Note="5" Velocity="0"/>
  </Event>
  <Event>
    <Absolute>217920</Absolute>
    <NoteOn Channel="1" Note="4" Velocity="127"/>
  </Event>
  <Event>
    <Absolute>218160</Absolute>
    <NoteOff Channel="1" Note="4" Velocity="0"/>
  </Event>
  <Event>
    <Absolute>218160</Absolute>
    <NoteOn Channel="1" Note="4" Velocity="127"/>
  </Event>
  <Event>
    <Absolute>218400</Absolute>
    <NoteOff Channel="1" Note="4" Velocity="0"/>
  </Event>
  <Event>
    <Absolute>218400</Absolute>
    <NoteOn Channel="1" Note="5" Velocity="96"/>
  </Event>
  <Event>
    <Absolute>218640</Absolute>
    <NoteOff Channel="1" Note="5" Velocity="0"/>
  </Event>
  <Event>
    <Absolute>218640</Absolute>
    <NoteOn Channel="1" Note="6" Velocity="96"/>
  </Event>
  <Event>
    <Absolute>218880</Absolute>
    <NoteOff Channel="1" Note="6" Velocity="0"/>
  </Event>
  <Event>
    <Absolute>218880</Absolute>
    <NoteOn Channel="1" Note="7" Velocity="96"/>
  </Event>
  <Event>
    <Absolute>219120</Absolute>
    <NoteOff Channel="1" Note="7" Velocity="0"/>
  </Event>
  <Event>
    <Absolute>219120</Absolute>
    <NoteOn Channel="1" Note="8" Velocity="127"/>
  </Event>
  <Event>
    <Absolute>219360</Absolute>
    <NoteOff Channel="1" Note="8" Velocity="0"/>
  </Event>
  <Event>
    <Absolute>219360</Absolute>
    <NoteOn Channel="1" Note="7" Velocity="96"/>
  </Event>
  <Event>
    <Absolute>219600</Absolute>
    <NoteOff Channel="1" Note="7" Velocity="0"/>
  </Event>
  <Event>
    <Absolute>219600</Absolute>
    <NoteOn Channel="1" Note="6" Velocity="96"/>
  </Event>
  <Event>
    <Absolute>219840</Absolute>
    <NoteOff Channel="1" Note="6" Velocity="0"/>
  </Event>
  <Event>
    <Absolute>219840</Absolute>
    <NoteOn Channel="1" Note="5" Velocity="96"/>
  </Event>
  <Event>
    <Absolute>220080</Absolute>
    <NoteOff Channel="1" Note="5" Velocity="0"/>
  </Event>
  <Event>
    <Absolute>220080</Absolute>
    <NoteOn Channel="1" Note="4" Velocity="95"/>
  </Event>
  <Event>
    <Absolute>220320</Absolute>
    <NoteOff Channel="1" Note="4" Velocity="0"/>
  </Event>
  <Event>
    <Absolute>220320</Absolute>
    <NoteOn Channel="1" Note="3" Velocity="96"/>
  </Event>
  <Event>
    <Absolute>220560</Absolute>
    <NoteOff Channel="1" Note="3" Velocity="0"/>
  </Event>
  <Event>
    <Absolute>220560</Absolute>
    <NoteOn Channel="1" Note="2" Velocity="96"/>
  </Event>
  <Event>
    <Absolute>220800</Absolute>
    <NoteOff Channel="1" Note="2" Velocity="0"/>
  </Event>
  <Event>
    <Absolute>220800</Absolute>
    <NoteOn Channel="1" Note="1" Velocity="95"/>
  </Event>
  <Event>
    <Absolute>221040</Absolute>
    <NoteOff Channel="1" Note="1" Velocity="0"/>
  </Event>
  <Event>
    <Absolute>221040</Absolute>
    <NoteOn Channel="1" Note="0" Velocity="127"/>
  </Event>
  <Event>
    <Absolute>221280</Absolute>
    <NoteOff Channel="1" Note="0" Velocity="0"/>
  </Event>
  <Event>
    <Absolute>257280</Absolute>
    <ControlChange Channel="1" Control="123" Value="0"/>
  </Event>
  <Event>
    <Absolute>257280</Absolute>
    <EndOfTrack/>
  </Event>
</Track>
</MIDIFile>