<MIDIFile>
<Format>0</Format>
<TrackCount>1</TrackCount>
<TicksPerBeat>960</TicksPerBeat>
<TimestampType>Absolute</TimestampType>
<Track Number="0">
  <Event>
    <Absolute>7680</Absolute>
    <NoteOn Channel="1" Note="0" Velocity="96"/>
  </Event>
  <Event>
    <Absolute>7920</Absolute>
    <NoteOff Channel="1" Note="0" Velocity="0"/>
  </Event>
  <Event>
    <Absolute>8640</Absolute>
    <NoteOn Channel="1" Note="1" Velocity="96"/>
  </Event>
  <Event>
    <Absolute>8880</Absolute>
    <NoteOff Channel="1" Note="1" Velocity="0"/>
  </Event>
  <Event>
    <Absolute>9600</Absolute>
    <NoteOn Channel="1" Note="0" Velocity="96"/>
  </Event>
  <Event>
    <Absolute>9840</Absolute>
    <NoteOff Channel="1" Note="0" Velocity="0"/>
  </Event>
  <Event>
    <Absolute>10560</Absolute>
    <NoteOn Channel="1" Note="1" Velocity="96"/>
  </Event>
  <Event>
    <Absolute>10800</Absolute>
    <NoteOff Channel="1" Note="1" Velocity="0"/>
  </Event>
  <Event>
    <Absolute>11520</Absolute>
    <NoteOn Channel="1" Note="0" Velocity="96"/>
  </Event>
  <Event>
    <Absolute>11760</Absolute>
    <NoteOff Channel="1" Note="0" Velocity="0"/>
  </Event>
  <Event>
    <Absolute>12480</Absolute>
    <NoteOn Channel="1" Note="2" Velocity="96"/>
  </Event>
  <Event>
    <Absolute>12720</Absolute>
    <NoteOff Channel="1" Note="2" Velocity="0"/>
  </Event>
  <Event>
    <Absolute>13440</Absolute>
    <NoteOn Channel="1" Note="0" Velocity="96"/>
  </Event>
  <Event>
    <Absolute>13680</Absolute>
    <NoteOff Channel="1" Note="0" Velocity="0"/>
  </Event>
  <Event>
    <Absolute>14400</Absolute>
    <NoteOn Channel="1" Note="2" Velocity="96"/>
  </Event>
  <Event>
    <Absolute>14640</Absolute>
    <NoteOff Channel="1" Note="2" Velocity="0"/>
  </Event>
  <Event>
    <Absolute>15360</Absolute>
    <NoteOn Channel="1" Note="0" Velocity="96"/>
  </Event>
  <Event>
    <Absolute>15600</Absolute>
    <NoteOff Channel="1" Note="0" Velocity="0"/>
  </Event>
  <Event>
    <Absolute>16320</Absolute>
    <NoteOn Channel="1" Note="3" Velocity="96"/>
  </Event>
  <Event>
    <Absolute>16560</Absolute>
    <NoteOff Channel="1" Note="3" Velocity="0"/>
  </Event>
  <Event>
    <Absolute>17280</Absolute>
    <NoteOn Channel="1" Note="0" Velocity="96"/>
  </Event>
  <Event>
    <Absolute>17520</Absolute>
    <NoteOff Channel="1" Note="0" Velocity="0"/>
  </Event>
  <Event>
    <Absolute>18240</Absolute>
    <NoteOn Channel="1" Note="3" Velocity="96"/>
  </Event>
  <Event>
    <Absolute>18480</Absolute>
    <NoteOff Channel="1" Note="3" Velocity="0"/>
  </Event>
  <Event>
    <Absolute>19200</Absolute>
    <NoteOn Channel="1" Note="0" Velocity="96"/>
  </Event>
  <Event>
    <Absolute>19440</Absolute>
    <NoteOff Channel="1" Note="0" Velocity="0"/>
  </Event>
  <Event>
    <Absolute>20160</Absolute>
    <NoteOn Channel="1" Note="3" Velocity="96"/>
  </Event>
  <Event>
    <Absolute>20400</Absolute>
    <NoteOff Channel="1" Note="3" Velocity="0"/>
  </Event>
  <Event>
    <Absolute>21120</Absolute>
    <NoteOn Channel="1" Note="0" Velocity="96"/>
  </Event>
  <Event>
    <Absolute>21360</Absolute>
    <NoteOff Channel="1" Note="0" Velocity="0"/>
  </Event>
  <Event>
    <Absolute>22080</Absolute>
    <NoteOn Channel="1" Note="3" Velocity="96"/>
  </Event>
  <Event>
    <Absolute>22320</Absolute>
    <NoteOff Channel="1" Note="3" Velocity="0"/>
  </Event>
  <Event>
    <Absolute>23040</Absolute>
    <NoteOn Channel="1" Note="0" Velocity="96"/>
  </Event>
  <Event>
    <Absolute>23280</Absolute>
    <NoteOff Channel="1" Note="0" Velocity="0"/>
  </Event>
  <Event>
    <Absolute>24000</Absolute>
    <NoteOn Channel="1" Note="1" Velocity="96"/>
  </Event>
  <Event>
    <Absolute>24240</Absolute>
    <NoteOff Channel="1" Note="1" Velocity="0"/>
  </Event>
  <Event>
    <Absolute>24960</Absolute>
    <NoteOn Channel="1" Note="0" Velocity="96"/>
  </Event>
  <Event>
    <Absolute>25200</Absolute>
    <NoteOff Channel="1" Note="0" Velocity="0"/>
  </Event>
  <Event>
    <Absolute>25920</Absolute>
    <NoteOn Channel="1" Note="1" Velocity="96"/>
  </Event>
  <Event>
    <Absolute>26160</Absolute>
    <NoteOff Channel="1" Note="1" Velocity="0"/>
  </Event>
  <Event>
    <Absolute>26880</Absolute>
    <NoteOn Channel="1" Note="0" Velocity="96"/>
  </Event>
  <Event>
    <Absolute>27120</Absolute>
    <NoteOff Channel="1" Note="0" Velocity="0"/>
  </Event>
  <Event>
    <Absolute>27840</Absolute>
    <NoteOn Channel="1" Note="2" Velocity="96"/>
  </Event>
  <Event>
    <Absolute>28080</Absolute>
    <NoteOff Channel="1" Note="2" Velocity="0"/>
  </Event>
  <Event>
    <Absolute>28800</Absolute>
    <NoteOn Channel="1" Note="0" Velocity="96"/>
  </Event>
  <Event>
    <Absolute>29040</Absolute>
    <NoteOff Channel="1" Note="0" Velocity="0"/>
  </Event>
  <Event>
    <Absolute>29760</Absolute>
    <NoteOn Channel="1" Note="2" Velocity="96"/>
  </Event>
  <Event>
    <Absolute>30000</Absolute>
    <NoteOff Channel="1" Note="2" Velocity="0"/>
  </Event>
  <Event>
    <Absolute>30720</Absolute>
    <NoteOn Channel="1" Note="0" Velocity="96"/>
  </Event>
  <Event>
    <Absolute>30960</Absolute>
    <NoteOff Channel="1" Note="0" Velocity="0"/>
  </Event>
  <Event>
    <Absolute>31680</Absolute>
    <NoteOn Channel="1" Note="3" Velocity="96"/>
  </Event>
  <Event>
    <Absolute>31920</Absolute>
    <NoteOff Channel="1" Note="3" Velocity="0"/>
  </Event>
  <Event>
    <Absolute>32640</Absolute>
    <NoteOn Channel="1" Note="0" Velocity="96"/>
  </Event>
  <Event>
    <Absolute>32880</Absolute>
    <NoteOff Channel="1" Note="0" Velocity="0"/>
  </Event>
  <Event>
    <Absolute>33600</Absolute>
    <NoteOn Channel="1" Note="3" Velocity="96"/>
  </Event>
  <Event>
    <Absolute>33840</Absolute>
    <NoteOff Channel="1" Note="3" Velocity="0"/>
  </Event>
  <Event>
    <Absolute>34560</Absolute>
    <NoteOn Channel="1" Note="1" Velocity="96"/>
  </Event>
  <Event>
    <Absolute>34800</Absolute>
    <NoteOff Channel="1" Note="1" Velocity="0"/>
  </Event>
  <Event>
    <Absolute>35040</Absolute>
    <NoteOn Channel="1" Note="4" Velocity="96"/>
  </Event>
  <Event>
    <Absolute>35280</Absolute>
    <NoteOff Channel="1" Note="4" Velocity="0"/>
  </Event>
  <Event>
    <Absolute>35520</Absolute>
    <NoteOn Channel="1" Note="1" Velocity="96"/>
  </Event>
  <Event>
    <Absolute>35760</Absolute>
    <NoteOff Channel="1" Note="1" Velocity="0"/>
  </Event>
  <Event>
    <Absolute>36480</Absolute>
    <NoteOn Channel="1" Note="0" Velocity="96"/>
  </Event>
  <Event>
    <Absolute>36720</Absolute>
    <NoteOff Channel="1" Note="0" Velocity="0"/>
  </Event>
  <Event>
    <Absolute>37440</Absolute>
    <NoteOn Channel="1" Note="2" Velocity="96"/>
  </Event>
  <Event>
    <Absolute>37680</Absolute>
    <NoteOff Channel="1" Note="2" Velocity="0"/>
  </Event>
  <Event>
    <Absolute>69120</Absolute>
    <NoteOn Channel="1" Note="4" Velocity="96"/>
  </Event>
  <Event>
    <Absolute>70800</Absolute>
    <NoteOff Channel="1" Note="4" Velocity="0"/>
  </Event>
  <Event>
    <Absolute>71040</Absolute>
    <NoteOn Channel="1" Note="3" Velocity="96"/>
  </Event>
  <Event>
    <Absolute>72720</Absolute>
    <NoteOff Channel="1" Note="3" Velocity="0"/>
  </Event>
  <Event>
    <Absolute>72960</Absolute>
    <NoteOn Channel="1" Note="2" Velocity="96"/>
  </Event>
  <Event>
    <Absolute>74640</Absolute>
    <NoteOff Channel="1" Note="2" Velocity="0"/>
  </Event>
  <Event>
    <Absolute>74880</Absolute>
    <NoteOn Channel="1" Note="0" Velocity="96"/>
  </Event>
  <Event>
    <Absolute>76560</Absolute>
    <NoteOff Channel="1" Note="0" Velocity="0"/>
  </Event>
  <Event>
    <Absolute>76800</Absolute>
    <NoteOn Channel="1" Note="2" Velocity="96"/>
  </Event>
  <Event>
    <Absolute>80400</Absolute>
    <NoteOff Channel="1" Note="2" Velocity="0"/>
  </Event>
  <Event>
    <Absolute>80640</Absolute>
    <NoteOn Channel="1" Note="0" Velocity="96"/>
  </Event>
  <Event>
    <Absolute>80880</Absolute>
    <NoteOff Channel="1" Note="0" Velocity="0"/>
  </Event>
  <Event>
    <Absolute>81600</Absolute>
    <NoteOn Channel="1" Note="2" Velocity="96"/>
  </Event>
  <Event>
    <Absolute>81840</Absolute>
    <NoteOff Channel="1" Note="2" Velocity="0"/>
  </Event>
  <Event>
    <Absolute>82560</Absolute>
    <NoteOn Channel="1" Note="3" Velocity="96"/>
  </Event>
  <Event>
    <Absolute>82800</Absolute>
    <NoteOff Channel="1" Note="3" Velocity="0"/>
  </Event>
  <Event>
    <Absolute>83520</Absolute>
    <NoteOn Channel="1" Note="2" Velocity="96"/>
  </Event>
  <Event>
    <Absolute>83760</Absolute>
    <NoteOff Channel="1" Note="2" Velocity="0"/>
  </Event>
  <Event>
    <Absolute>161280</Absolute>
    <NoteOn Channel="1" Note="0" Velocity="96"/>
  </Event>
  <Event>
    <Absolute>161520</Absolute>
    <NoteOff Channel="1" Note="0" Velocity="0"/>
  </Event>
  <Event>
    <Absolute>161760</Absolute>
    <NoteOn Channel="1" Note="2" Velocity="96"/>
  </Event>
  <Event>
    <Absolute>162000</Absolute>
    <NoteOff Channel="1" Note="2" Velocity="0"/>
  </Event>
  <Event>
    <Absolute>162240</Absolute>
    <NoteOn Channel="1" Note="1" Velocity="96"/>
  </Event>
  <Event>
    <Absolute>162480</Absolute>
    <NoteOff Channel="1" Note="1" Velocity="0"/>
  </Event>
  <Event>
    <Absolute>162720</Absolute>
    <NoteOn Channel="1" Note="0" Velocity="96"/>
  </Event>
  <Event>
    <Absolute>162960</Absolute>
    <NoteOff Channel="1" Note="0" Velocity="0"/>
  </Event>
  <Event>
    <Absolute>163200</Absolute>
    <NoteOn Channel="1" Note="3" Velocity="96"/>
  </Event>
  <Event>
    <Absolute>163440</Absolute>
    <NoteOff Channel="1" Note="3" Velocity="0"/>
  </Event>
  <Event>
    <Absolute>164160</Absolute>
    <NoteOn Channel="1" Note="0" Velocity="96"/>
  </Event>
  <Event>
    <Absolute>164400</Absolute>
    <NoteOff Channel="1" Note="0" Velocity="0"/>
  </Event>
  <Event>
    <Absolute>165120</Absolute>
    <NoteOn Channel="1" Note="1" Velocity="96"/>
  </Event>
  <Event>
    <Absolute>165360</Absolute>
    <NoteOff Channel="1" Note="1" Velocity="0"/>
  </Event>
  <Event>
    <Absolute>165600</Absolute>
    <NoteOn Channel="1" Note="2" Velocity="96"/>
  </Event>
  <Event>
    <Absolute>165840</Absolute>
    <NoteOff Channel="1" Note="2" Velocity="0"/>
  </Event>
  <Event>
    <Absolute>166080</Absolute>
    <NoteOn Channel="1" Note="1" Velocity="96"/>
  </Event>
  <Event>
    <Absolute>166320</Absolute>
    <NoteOff Channel="1" Note="1" Velocity="0"/>
  </Event>
  <Event>
    <Absolute>166560</Absolute>
    <NoteOn Channel="1" Note="0" Velocity="96"/>
  </Event>
  <Event>
    <Absolute>166800</Absolute>
    <NoteOff Channel="1" Note="0" Velocity="0"/>
  </Event>
  <Event>
    <Absolute>167040</Absolute>
    <NoteOn Channel="1" Note="3" Velocity="96"/>
  </Event>
  <Event>
    <Absolute>167280</Absolute>
    <NoteOff Channel="1" Note="3" Velocity="0"/>
  </Event>
  <Event>
    <Absolute>168000</Absolute>
    <NoteOn Channel="1" Note="0" Velocity="96"/>
  </Event>
  <Event>
    <Absolute>168240</Absolute>
    <NoteOff Channel="1" Note="0" Velocity="0"/>
  </Event>
  <Event>
    <Absolute>168480</Absolute>
    <NoteOn Channel="1" Note="3" Velocity="96"/>
  </Event>
  <Event>
    <Absolute>168720</Absolute>
    <NoteOff Channel="1" Note="3" Velocity="0"/>
  </Event>
  <Event>
    <Absolute>168960</Absolute>
    <NoteOn Channel="1" Note="0" Velocity="96"/>
  </Event>
  <Event>
    <Absolute>169200</Absolute>
    <NoteOff Channel="1" Note="0" Velocity="0"/>
  </Event>
  <Event>
    <Absolute>169440</Absolute>
    <NoteOn Channel="1" Note="2" Velocity="96"/>
  </Event>
  <Event>
    <Absolute>169680</Absolute>
    <NoteOff Channel="1" Note="2" Velocity="0"/>
  </Event>
  <Event>
    <Absolute>169920</Absolute>
    <NoteOn Channel="1" Note="4" Velocity="96"/>
  </Event>
  <Event>
    <Absolute>170160</Absolute>
    <NoteOff Channel="1" Note="4" Velocity="0"/>
  </Event>
  <Event>
    <Absolute>170400</Absolute>
    <NoteOn Channel="1" Note="2" Velocity="96"/>
  </Event>
  <Event>
    <Absolute>170640</Absolute>
    <NoteOff Channel="1" Note="2" Velocity="0"/>
  </Event>
  <Event>
    <Absolute>170880</Absolute>
    <NoteOn Channel="1" Note="1" Velocity="96"/>
  </Event>
  <Event>
    <Absolute>171120</Absolute>
    <NoteOff Channel="1" Note="1" Velocity="0"/>
  </Event>
  <Event>
    <Absolute>171360</Absolute>
    <NoteOn Channel="1" Note="2" Velocity="96"/>
  </Event>
  <Event>
    <Absolute>171600</Absolute>
    <NoteOff Channel="1" Note="2" Velocity="0"/>
  </Event>
  <Event>
    <Absolute>171840</Absolute>
    <NoteOn Channel="1" Note="3" Velocity="96"/>
  </Event>
  <Event>
    <Absolute>172080</Absolute>
    <NoteOff Channel="1" Note="3" Velocity="0"/>
  </Event>
  <Event>
    <Absolute>172320</Absolute>
    <NoteOn Channel="1" Note="4" Velocity="96"/>
  </Event>
  <Event>
    <Absolute>172560</Absolute>
    <NoteOff Channel="1" Note="4" Velocity="0"/>
  </Event>
  <Event>
    <Absolute>172800</Absolute>
    <NoteOn Channel="1" Note="2" Velocity="96"/>
  </Event>
  <Event>
    <Absolute>173040</Absolute>
    <NoteOff Channel="1" Note="2" Velocity="0"/>
  </Event>
  <Event>
    <Absolute>173760</Absolute>
    <NoteOn Channel="1" Note="1" Velocity="96"/>
  </Event>
  <Event>
    <Absolute>174000</Absolute>
    <NoteOff Channel="1" Note="1" Velocity="0"/>
  </Event>
  <Event>
    <Absolute>174720</Absolute>
    <NoteOn Channel="1" Note="2" Velocity="96"/>
  </Event>
  <Event>
    <Absolute>174960</Absolute>
    <NoteOff Channel="1" Note="2" Velocity="0"/>
  </Event>
  <Event>
    <Absolute>175680</Absolute>
    <NoteOn Channel="1" Note="1" Velocity="96"/>
  </Event>
  <Event>
    <Absolute>175920</Absolute>
    <NoteOff Channel="1" Note="1" Velocity="0"/>
  </Event>
  <Event>
    <Absolute>176640</Absolute>
    <NoteOn Channel="1" Note="0" Velocity="96"/>
  </Event>
  <Event>
    <Absolute>176880</Absolute>
    <NoteOff Channel="1" Note="0" Velocity="0"/>
  </Event>
  <Event>
    <Absolute>177120</Absolute>
    <NoteOn Channel="1" Note="2" Velocity="96"/>
  </Event>
  <Event>
    <Absolute>177360</Absolute>
    <NoteOff Channel="1" Note="2" Velocity="0"/>
  </Event>
  <Event>
    <Absolute>177600</Absolute>
    <NoteOn Channel="1" Note="1" Velocity="96"/>
  </Event>
  <Event>
    <Absolute>177840</Absolute>
    <NoteOff Channel="1" Note="1" Velocity="0"/>
  </Event>
  <Event>
    <Absolute>178080</Absolute>
    <NoteOn Channel="1" Note="0" Velocity="96"/>
  </Event>
  <Event>
    <Absolute>178320</Absolute>
    <NoteOff Channel="1" Note="0" Velocity="0"/>
  </Event>
  <Event>
    <Absolute>178560</Absolute>
    <NoteOn Channel="1" Note="3" Velocity="96"/>
  </Event>
  <Event>
    <Absolute>178800</Absolute>
    <NoteOff Channel="1" Note="3" Velocity="0"/>
  </Event>
  <Event>
    <Absolute>179520</Absolute>
    <NoteOn Channel="1" Note="0" Velocity="96"/>
  </Event>
  <Event>
    <Absolute>179760</Absolute>
    <NoteOff Channel="1" Note="0" Velocity="0"/>
  </Event>
  <Event>
    <Absolute>180480</Absolute>
    <NoteOn Channel="1" Note="1" Velocity="96"/>
  </Event>
  <Event>
    <Absolute>180720</Absolute>
    <NoteOff Channel="1" Note="1" Velocity="0"/>
  </Event>
  <Event>
    <Absolute>180960</Absolute>
    <NoteOn Channel="1" Note="2" Velocity="96"/>
  </Event>
  <Event>
    <Absolute>181200</Absolute>
    <NoteOff Channel="1" Note="2" Velocity="0"/>
  </Event>
  <Event>
    <Absolute>181440</Absolute>
    <NoteOn Channel="1" Note="1" Velocity="96"/>
  </Event>
  <Event>
    <Absolute>181680</Absolute>
    <NoteOff Channel="1" Note="1" Velocity="0"/>
  </Event>
  <Event>
    <Absolute>181920</Absolute>
    <NoteOn Channel="1" Note="0" Velocity="96"/>
  </Event>
  <Event>
    <Absolute>182160</Absolute>
    <NoteOff Channel="1" Note="0" Velocity="0"/>
  </Event>
  <Event>
    <Absolute>182400</Absolute>
    <NoteOn Channel="1" Note="3" Velocity="96"/>
  </Event>
  <Event>
    <Absolute>182640</Absolute>
    <NoteOff Channel="1" Note="3" Velocity="0"/>
  </Event>
  <Event>
    <Absolute>183360</Absolute>
    <NoteOn Channel="1" Note="0" Velocity="96"/>
  </Event>
  <Event>
    <Absolute>183600</Absolute>
    <NoteOff Channel="1" Note="0" Velocity="0"/>
  </Event>
  <Event>
    <Absolute>183840</Absolute>
    <NoteOn Channel="1" Note="1" Velocity="96"/>
  </Event>
  <Event>
    <Absolute>184080</Absolute>
    <NoteOff Channel="1" Note="1" Velocity="0"/>
  </Event>
  <Event>
    <Absolute>184320</Absolute>
    <NoteOn Channel="1" Note="2" Velocity="96"/>
  </Event>
  <Event>
    <Absolute>186000</Absolute>
    <NoteOff Channel="1" Note="2" Velocity="0"/>
  </Event>
  <Event>
    <Absolute>186240</Absolute>
    <NoteOn Channel="1" Note="3" Velocity="96"/>
  </Event>
  <Event>
    <Absolute>186480</Absolute>
    <NoteOff Channel="1" Note="3" Velocity="0"/>
  </Event>
  <Event>
    <Absolute>187200</Absolute>
    <NoteOn Channel="1" Note="2" Velocity="96"/>
  </Event>
  <Event>
    <Absolute>187440</Absolute>
    <NoteOff Channel="1" Note="2" Velocity="0"/>
  </Event>
  <Event>
    <Absolute>188160</Absolute>
    <NoteOn Channel="1" Note="4" Velocity="96"/>
  </Event>
  <Event>
    <Absolute>188400</Absolute>
    <NoteOff Channel="1" Note="4" Velocity="0"/>
  </Event>
  <Event>
    <Absolute>189120</Absolute>
    <NoteOn Channel="1" Note="2" Velocity="96"/>
  </Event>
  <Event>
    <Absolute>189360</Absolute>
    <NoteOff Channel="1" Note="2" Velocity="0"/>
  </Event>
  <Event>
    <Absolute>190080</Absolute>
    <NoteOn Channel="1" Note="1" Velocity="96"/>
  </Event>
  <Event>
    <Absolute>190320</Absolute>
    <NoteOff Channel="1" Note="1" Velocity="0"/>
  </Event>
  <Event>
    <Absolute>191040</Absolute>
    <NoteOn Channel="1" Note="0" Velocity="96"/>
  </Event>
  <Event>
    <Absolute>191280</Absolute>
    <NoteOff Channel="1" Note="0" Velocity="0"/>
  </Event>
  <Event>
    <Absolute>222720</Absolute>
    <NoteOn Channel="1" Note="4" Velocity="96"/>
  </Event>
  <Event>
    <Absolute>224400</Absolute>
    <NoteOff Channel="1" Note="4" Velocity="0"/>
  </Event>
  <Event>
    <Absolute>224640</Absolute>
    <NoteOn Channel="1" Note="3" Velocity="96"/>
  </Event>
  <Event>
    <Absolute>226320</Absolute>
    <NoteOff Channel="1" Note="3" Velocity="0"/>
  </Event>
  <Event>
    <Absolute>226560</Absolute>
    <NoteOn Channel="1" Note="2" Velocity="96"/>
  </Event>
  <Event>
    <Absolute>228240</Absolute>
    <NoteOff Channel="1" Note="2" Velocity="0"/>
  </Event>
  <Event>
    <Absolute>228480</Absolute>
    <NoteOn Channel="1" Note="0" Velocity="96"/>
  </Event>
  <Event>
    <Absolute>230160</Absolute>
    <NoteOff Channel="1" Note="0" Velocity="0"/>
  </Event>
  <Event>
    <Absolute>230400</Absolute>
    <NoteOn Channel="1" Note="2" Velocity="96"/>
  </Event>
  <Event>
    <Absolute>234000</Absolute>
    <NoteOff Channel="1" Note="2" Velocity="0"/>
  </Event>
  <Event>
    <Absolute>234240</Absolute>
    <NoteOn Channel="1" Note="0" Velocity="96"/>
  </Event>
  <Event>
    <Absolute>234480</Absolute>
    <NoteOff Channel="1" Note="0" Velocity="0"/>
  </Event>
  <Event>
    <Absolute>235200</Absolute>
    <NoteOn Channel="1" Note="2" Velocity="96"/>
  </Event>
  <Event>
    <Absolute>235440</Absolute>
    <NoteOff Channel="1" Note="2" Velocity="0"/>
  </Event>
  <Event>
    <Absolute>236160</Absolute>
    <NoteOn Channel="1" Note="3" Velocity="96"/>
  </Event>
  <Event>
    <Absolute>236400</Absolute>
    <NoteOff Channel="1" Note="3" Velocity="0"/>
  </Event>
  <Event>
    <Absolute>237120</Absolute>
    <NoteOn Channel="1" Note="2" Velocity="96"/>
  </Event>
  <Event>
    <Absolute>237360</Absolute>
    <NoteOff Channel="1" Note="2" Velocity="0"/>
  </Event>
  <Event>
    <Absolute>257280</Absolute>
    <ControlChange Channel="1" Control="123" Value="0"/>
  </Event>
  <Event>
    <Absolute>257280</Absolute>
    <EndOfTrack/>
  </Event>
</Track>
</MIDIFile>