<title> Binary MIDI file to MIDI XML conversion </title>
<h1> Binary MIDI file to MIDI XML conversion </h1>
<link href="../gif/style.css" rel="stylesheet" type="text/css">

<table id="tbl" cellspacing="0">
<tr valign="top"><td>

<p>&nbsp;</p>
<h1><a href=index.html>Midi online tools</a></h1>
<table center border="0" width="100%">
<tr>
<td>&nbsp;<!--#include file="banner_doska.html"--></td>
<td>&nbsp;<!--#include file="banner_doska.html"--></td>
</tr>
</table>

<p>&nbsp;</p>
<p>
<?xml version="1.0" encoding="ISO-8859-1"?>
<!DOCTYPE MIDIFile PUBLIC
  "-//Recordare//DTD MusicXML 0.9 MIDI//EN"
  "http://www.musicxml.org/dtds/midixml.dtd">
<MIDIFile>
<Format>0</Format>
<TrackCount>1</TrackCount>
<TicksPerBeat>960</TicksPerBeat>
<TimestampType>Absolute</TimestampType>
<Track Number="0">
  <Event>
    <Absolute>15360</Absolute>
    <NoteOn Channel="1" Note="0" Velocity="127"/>
  </Event>
  <Event>
    <Absolute>15600</Absolute>
    <NoteOff Channel="1" Note="0" Velocity="0"/>
  </Event>
  <Event>
    <Absolute>15600</Absolute>
    <NoteOn Channel="1" Note="0" Velocity="96"/>
  </Event>
  <Event>
    <Absolute>15840</Absolute>
    <NoteOff Channel="1" Note="0" Velocity="0"/>
  </Event>
  <Event>
    <Absolute>15840</Absolute>
    <NoteOn Channel="1" Note="0" Velocity="96"/>
  </Event>
  <Event>
    <Absolute>16080</Absolute>
    <NoteOff Channel="1" Note="0" Velocity="0"/>
  </Event>
  <Event>
    <Absolute>16080</Absolute>
    <NoteOn Channel="1" Note="0" Velocity="127"/>
  </Event>
  <Event>
    <Absolute>16320</Absolute>
    <NoteOff Channel="1" Note="0" Velocity="0"/>
  </Event>
  <Event>
    <Absolute>16320</Absolute>
    <NoteOn Channel="1" Note="1" Velocity="127"/>
  </Event>
  <Event>
    <Absolute>16560</Absolute>
    <NoteOff Channel="1" Note="1" Velocity="0"/>
  </Event>
  <Event>
    <Absolute>16560</Absolute>
    <NoteOn Channel="1" Note="1" Velocity="96"/>
  </Event>
  <Event>
    <Absolute>16800</Absolute>
    <NoteOff Channel="1" Note="1" Velocity="0"/>
  </Event>
  <Event>
    <Absolute>16800</Absolute>
    <NoteOn Channel="1" Note="1" Velocity="96"/>
  </Event>
  <Event>
    <Absolute>17040</Absolute>
    <NoteOff Channel="1" Note="1" Velocity="0"/>
  </Event>
  <Event>
    <Absolute>17040</Absolute>
    <NoteOn Channel="1" Note="1" Velocity="127"/>
  </Event>
  <Event>
    <Absolute>17280</Absolute>
    <NoteOff Channel="1" Note="1" Velocity="0"/>
  </Event>
  <Event>
    <Absolute>17280</Absolute>
    <NoteOn Channel="1" Note="2" Velocity="127"/>
  </Event>
  <Event>
    <Absolute>17520</Absolute>
    <NoteOff Channel="1" Note="2" Velocity="0"/>
  </Event>
  <Event>
    <Absolute>17520</Absolute>
    <NoteOn Channel="1" Note="2" Velocity="96"/>
  </Event>
  <Event>
    <Absolute>17760</Absolute>
    <NoteOff Channel="1" Note="2" Velocity="0"/>
  </Event>
  <Event>
    <Absolute>17760</Absolute>
    <NoteOn Channel="1" Note="2" Velocity="96"/>
  </Event>
  <Event>
    <Absolute>18000</Absolute>
    <NoteOff Channel="1" Note="2" Velocity="0"/>
  </Event>
  <Event>
    <Absolute>18000</Absolute>
    <NoteOn Channel="1" Note="2" Velocity="127"/>
  </Event>
  <Event>
    <Absolute>18240</Absolute>
    <NoteOff Channel="1" Note="2" Velocity="0"/>
  </Event>
  <Event>
    <Absolute>18240</Absolute>
    <NoteOn Channel="1" Note="3" Velocity="127"/>
  </Event>
  <Event>
    <Absolute>18480</Absolute>
    <NoteOff Channel="1" Note="3" Velocity="0"/>
  </Event>
  <Event>
    <Absolute>18480</Absolute>
    <NoteOn Channel="1" Note="3" Velocity="96"/>
  </Event>
  <Event>
    <Absolute>18720</Absolute>
    <NoteOff Channel="1" Note="3" Velocity="0"/>
  </Event>
  <Event>
    <Absolute>18720</Absolute>
    <NoteOn Channel="1" Note="3" Velocity="96"/>
  </Event>
  <Event>
    <Absolute>18960</Absolute>
    <NoteOff Channel="1" Note="3" Velocity="0"/>
  </Event>
  <Event>
    <Absolute>18960</Absolute>
    <NoteOn Channel="1" Note="3" Velocity="127"/>
  </Event>
  <Event>
    <Absolute>19200</Absolute>
    <NoteOff Channel="1" Note="3" Velocity="0"/>
  </Event>
  <Event>
    <Absolute>19200</Absolute>
    <NoteOn Channel="1" Note="4" Velocity="127"/>
  </Event>
  <Event>
    <Absolute>19440</Absolute>
    <NoteOff Channel="1" Note="4" Velocity="0"/>
  </Event>
  <Event>
    <Absolute>19440</Absolute>
    <NoteOn Channel="1" Note="4" Velocity="96"/>
  </Event>
  <Event>
    <Absolute>19680</Absolute>
    <NoteOff Channel="1" Note="4" Velocity="0"/>
  </Event>
  <Event>
    <Absolute>19680</Absolute>
    <NoteOn Channel="1" Note="4" Velocity="96"/>
  </Event>
  <Event>
    <Absolute>19920</Absolute>
    <NoteOff Channel="1" Note="4" Velocity="0"/>
  </Event>
  <Event>
    <Absolute>19920</Absolute>
    <NoteOn Channel="1" Note="4" Velocity="127"/>
  </Event>
  <Event>
    <Absolute>20160</Absolute>
    <NoteOff Channel="1" Note="4" Velocity="0"/>
  </Event>
  <Event>
    <Absolute>20160</Absolute>
    <NoteOn Channel="1" Note="5" Velocity="127"/>
  </Event>
  <Event>
    <Absolute>20400</Absolute>
    <NoteOff Channel="1" Note="5" Velocity="0"/>
  </Event>
  <Event>
    <Absolute>20400</Absolute>
    <NoteOn Channel="1" Note="5" Velocity="96"/>
  </Event>
  <Event>
    <Absolute>20640</Absolute>
    <NoteOff Channel="1" Note="5" Velocity="0"/>
  </Event>
  <Event>
    <Absolute>20640</Absolute>
    <NoteOn Channel="1" Note="5" Velocity="96"/>
  </Event>
  <Event>
    <Absolute>20880</Absolute>
    <NoteOff Channel="1" Note="5" Velocity="0"/>
  </Event>
  <Event>
    <Absolute>20880</Absolute>
    <NoteOn Channel="1" Note="5" Velocity="127"/>
  </Event>
  <Event>
    <Absolute>21120</Absolute>
    <NoteOff Channel="1" Note="5" Velocity="0"/>
  </Event>
  <Event>
    <Absolute>21120</Absolute>
    <NoteOn Channel="1" Note="6" Velocity="127"/>
  </Event>
  <Event>
    <Absolute>21360</Absolute>
    <NoteOff Channel="1" Note="6" Velocity="0"/>
  </Event>
  <Event>
    <Absolute>21360</Absolute>
    <NoteOn Channel="1" Note="6" Velocity="96"/>
  </Event>
  <Event>
    <Absolute>21600</Absolute>
    <NoteOff Channel="1" Note="6" Velocity="0"/>
  </Event>
  <Event>
    <Absolute>21600</Absolute>
    <NoteOn Channel="1" Note="6" Velocity="96"/>
  </Event>
  <Event>
    <Absolute>21840</Absolute>
    <NoteOff Channel="1" Note="6" Velocity="0"/>
  </Event>
  <Event>
    <Absolute>21840</Absolute>
    <NoteOn Channel="1" Note="6" Velocity="127"/>
  </Event>
  <Event>
    <Absolute>22080</Absolute>
    <NoteOff Channel="1" Note="6" Velocity="0"/>
  </Event>
  <Event>
    <Absolute>22080</Absolute>
    <NoteOn Channel="1" Note="7" Velocity="127"/>
  </Event>
  <Event>
    <Absolute>22320</Absolute>
    <NoteOff Channel="1" Note="7" Velocity="0"/>
  </Event>
  <Event>
    <Absolute>22320</Absolute>
    <NoteOn Channel="1" Note="7" Velocity="96"/>
  </Event>
  <Event>
    <Absolute>22560</Absolute>
    <NoteOff Channel="1" Note="7" Velocity="0"/>
  </Event>
  <Event>
    <Absolute>22560</Absolute>
    <NoteOn Channel="1" Note="7" Velocity="96"/>
  </Event>
  <Event>
    <Absolute>22800</Absolute>
    <NoteOff Channel="1" Note="7" Velocity="0"/>
  </Event>
  <Event>
    <Absolute>22800</Absolute>
    <NoteOn Channel="1" Note="7" Velocity="127"/>
  </Event>
  <Event>
    <Absolute>23040</Absolute>
    <NoteOff Channel="1" Note="7" Velocity="0"/>
  </Event>
  <Event>
    <Absolute>23040</Absolute>
    <NoteOn Channel="1" Note="8" Velocity="127"/>
  </Event>
  <Event>
    <Absolute>23280</Absolute>
    <NoteOff Channel="1" Note="8" Velocity="0"/>
  </Event>
  <Event>
    <Absolute>23280</Absolute>
    <NoteOn Channel="1" Note="8" Velocity="127"/>
  </Event>
  <Event>
    <Absolute>23520</Absolute>
    <NoteOff Channel="1" Note="8" Velocity="0"/>
  </Event>
  <Event>
    <Absolute>23520</Absolute>
    <NoteOn Channel="1" Note="7" Velocity="127"/>
  </Event>
  <Event>
    <Absolute>23760</Absolute>
    <NoteOff Channel="1" Note="7" Velocity="0"/>
  </Event>
  <Event>
    <Absolute>23760</Absolute>
    <NoteOn Channel="1" Note="7" Velocity="127"/>
  </Event>
  <Event>
    <Absolute>24000</Absolute>
    <NoteOff Channel="1" Note="7" Velocity="0"/>
  </Event>
  <Event>
    <Absolute>24000</Absolute>
    <NoteOn Channel="1" Note="6" Velocity="127"/>
  </Event>
  <Event>
    <Absolute>24240</Absolute>
    <NoteOff Channel="1" Note="6" Velocity="0"/>
  </Event>
  <Event>
    <Absolute>24240</Absolute>
    <NoteOn Channel="1" Note="6" Velocity="127"/>
  </Event>
  <Event>
    <Absolute>24480</Absolute>
    <NoteOff Channel="1" Note="6" Velocity="0"/>
  </Event>
  <Event>
    <Absolute>24480</Absolute>
    <NoteOn Channel="1" Note="5" Velocity="127"/>
  </Event>
  <Event>
    <Absolute>24720</Absolute>
    <NoteOff Channel="1" Note="5" Velocity="0"/>
  </Event>
  <Event>
    <Absolute>24720</Absolute>
    <NoteOn Channel="1" Note="5" Velocity="127"/>
  </Event>
  <Event>
    <Absolute>24960</Absolute>
    <NoteOff Channel="1" Note="5" Velocity="0"/>
  </Event>
  <Event>
    <Absolute>24960</Absolute>
    <NoteOn Channel="1" Note="3" Velocity="127"/>
  </Event>
  <Event>
    <Absolute>25200</Absolute>
    <NoteOff Channel="1" Note="3" Velocity="0"/>
  </Event>
  <Event>
    <Absolute>25200</Absolute>
    <NoteOn Channel="1" Note="3" Velocity="127"/>
  </Event>
  <Event>
    <Absolute>25440</Absolute>
    <NoteOff Channel="1" Note="3" Velocity="0"/>
  </Event>
  <Event>
    <Absolute>25440</Absolute>
    <NoteOn Channel="1" Note="2" Velocity="127"/>
  </Event>
  <Event>
    <Absolute>25680</Absolute>
    <NoteOff Channel="1" Note="2" Velocity="0"/>
  </Event>
  <Event>
    <Absolute>25680</Absolute>
    <NoteOn Channel="1" Note="2" Velocity="127"/>
  </Event>
  <Event>
    <Absolute>25920</Absolute>
    <NoteOff Channel="1" Note="2" Velocity="0"/>
  </Event>
  <Event>
    <Absolute>25920</Absolute>
    <NoteOn Channel="1" Note="1" Velocity="127"/>
  </Event>
  <Event>
    <Absolute>26160</Absolute>
    <NoteOff Channel="1" Note="1" Velocity="0"/>
  </Event>
  <Event>
    <Absolute>26160</Absolute>
    <NoteOn Channel="1" Note="1" Velocity="127"/>
  </Event>
  <Event>
    <Absolute>26400</Absolute>
    <NoteOff Channel="1" Note="1" Velocity="0"/>
  </Event>
  <Event>
    <Absolute>26400</Absolute>
    <NoteOn Channel="1" Note="0" Velocity="127"/>
  </Event>
  <Event>
    <Absolute>26640</Absolute>
    <NoteOff Channel="1" Note="0" Velocity="0"/>
  </Event>
  <Event>
    <Absolute>26640</Absolute>
    <NoteOn Channel="1" Note="0" Velocity="127"/>
  </Event>
  <Event>
    <Absolute>26880</Absolute>
    <NoteOff Channel="1" Note="0" Velocity="0"/>
  </Event>
  <Event>
    <Absolute>80640</Absolute>
    <NoteOn Channel="1" Note="2" Velocity="127"/>
  </Event>
  <Event>
    <Absolute>80880</Absolute>
    <NoteOff Channel="1" Note="2" Velocity="0"/>
  </Event>
  <Event>
    <Absolute>80880</Absolute>
    <NoteOn Channel="1" Note="2" Velocity="127"/>
  </Event>
  <Event>
    <Absolute>81120</Absolute>
    <NoteOff Channel="1" Note="2" Velocity="0"/>
  </Event>
  <Event>
    <Absolute>81120</Absolute>
    <NoteOn Channel="1" Note="3" Velocity="96"/>
  </Event>
  <Event>
    <Absolute>81360</Absolute>
    <NoteOff Channel="1" Note="3" Velocity="0"/>
  </Event>
  <Event>
    <Absolute>81360</Absolute>
    <NoteOn Channel="1" Note="4" Velocity="96"/>
  </Event>
  <Event>
    <Absolute>81600</Absolute>
    <NoteOff Channel="1" Note="4" Velocity="0"/>
  </Event>
  <Event>
    <Absolute>81600</Absolute>
    <NoteOn Channel="1" Note="5" Velocity="127"/>
  </Event>
  <Event>
    <Absolute>81840</Absolute>
    <NoteOff Channel="1" Note="5" Velocity="0"/>
  </Event>
  <Event>
    <Absolute>81840</Absolute>
    <NoteOn Channel="1" Note="5" Velocity="127"/>
  </Event>
  <Event>
    <Absolute>82080</Absolute>
    <NoteOff Channel="1" Note="5" Velocity="0"/>
  </Event>
  <Event>
    <Absolute>82080</Absolute>
    <NoteOn Channel="1" Note="6" Velocity="96"/>
  </Event>
  <Event>
    <Absolute>82320</Absolute>
    <NoteOff Channel="1" Note="6" Velocity="0"/>
  </Event>
  <Event>
    <Absolute>82320</Absolute>
    <NoteOn Channel="1" Note="7" Velocity="96"/>
  </Event>
  <Event>
    <Absolute>82560</Absolute>
    <NoteOff Channel="1" Note="7" Velocity="0"/>
  </Event>
  <Event>
    <Absolute>82560</Absolute>
    <NoteOn Channel="1" Note="8" Velocity="127"/>
  </Event>
  <Event>
    <Absolute>82800</Absolute>
    <NoteOff Channel="1" Note="8" Velocity="0"/>
  </Event>
  <Event>
    <Absolute>82800</Absolute>
    <NoteOn Channel="1" Note="7" Velocity="96"/>
  </Event>
  <Event>
    <Absolute>83040</Absolute>
    <NoteOff Channel="1" Note="7" Velocity="0"/>
  </Event>
  <Event>
    <Absolute>83040</Absolute>
    <NoteOn Channel="1" Note="6" Velocity="127"/>
  </Event>
  <Event>
    <Absolute>83280</Absolute>
    <NoteOff Channel="1" Note="6" Velocity="0"/>
  </Event>
  <Event>
    <Absolute>83280</Absolute>
    <NoteOn Channel="1" Note="6" Velocity="96"/>
  </Event>
  <Event>
    <Absolute>83520</Absolute>
    <NoteOff Channel="1" Note="6" Velocity="0"/>
  </Event>
  <Event>
    <Absolute>83520</Absolute>
    <NoteOn Channel="1" Note="6" Velocity="96"/>
  </Event>
  <Event>
    <Absolute>83760</Absolute>
    <NoteOff Channel="1" Note="6" Velocity="0"/>
  </Event>
  <Event>
    <Absolute>83760</Absolute>
    <NoteOn Channel="1" Note="6" Velocity="127"/>
  </Event>
  <Event>
    <Absolute>84000</Absolute>
    <NoteOff Channel="1" Note="6" Velocity="0"/>
  </Event>
  <Event>
    <Absolute>84480</Absolute>
    <NoteOn Channel="1" Note="8" Velocity="127"/>
  </Event>
  <Event>
    <Absolute>84720</Absolute>
    <NoteOff Channel="1" Note="8" Velocity="0"/>
  </Event>
  <Event>
    <Absolute>84720</Absolute>
    <NoteOn Channel="1" Note="8" Velocity="96"/>
  </Event>
  <Event>
    <Absolute>84960</Absolute>
    <NoteOff Channel="1" Note="8" Velocity="0"/>
  </Event>
  <Event>
    <Absolute>84960</Absolute>
    <NoteOn Channel="1" Note="8" Velocity="96"/>
  </Event>
  <Event>
    <Absolute>85200</Absolute>
    <NoteOff Channel="1" Note="8" Velocity="0"/>
  </Event>
  <Event>
    <Absolute>85200</Absolute>
    <NoteOn Channel="1" Note="8" Velocity="127"/>
  </Event>
  <Event>
    <Absolute>85440</Absolute>
    <NoteOff Channel="1" Note="8" Velocity="0"/>
  </Event>
  <Event>
    <Absolute>85440</Absolute>
    <NoteOn Channel="1" Note="6" Velocity="127"/>
  </Event>
  <Event>
    <Absolute>85680</Absolute>
    <NoteOff Channel="1" Note="6" Velocity="0"/>
  </Event>
  <Event>
    <Absolute>85680</Absolute>
    <NoteOn Channel="1" Note="6" Velocity="96"/>
  </Event>
  <Event>
    <Absolute>85920</Absolute>
    <NoteOff Channel="1" Note="6" Velocity="0"/>
  </Event>
  <Event>
    <Absolute>85920</Absolute>
    <NoteOn Channel="1" Note="6" Velocity="96"/>
  </Event>
  <Event>
    <Absolute>86160</Absolute>
    <NoteOff Channel="1" Note="6" Velocity="0"/>
  </Event>
  <Event>
    <Absolute>86160</Absolute>
    <NoteOn Channel="1" Note="6" Velocity="127"/>
  </Event>
  <Event>
    <Absolute>86400</Absolute>
    <NoteOff Channel="1" Note="6" Velocity="0"/>
  </Event>
  <Event>
    <Absolute>86400</Absolute>
    <NoteOn Channel="1" Note="8" Velocity="127"/>
  </Event>
  <Event>
    <Absolute>86640</Absolute>
    <NoteOff Channel="1" Note="8" Velocity="0"/>
  </Event>
  <Event>
    <Absolute>86640</Absolute>
    <NoteOn Channel="1" Note="8" Velocity="127"/>
  </Event>
  <Event>
    <Absolute>86880</Absolute>
    <NoteOff Channel="1" Note="8" Velocity="0"/>
  </Event>
  <Event>
    <Absolute>86880</Absolute>
    <NoteOn Channel="1" Note="4" Velocity="127"/>
  </Event>
  <Event>
    <Absolute>87120</Absolute>
    <NoteOff Channel="1" Note="4" Velocity="0"/>
  </Event>
  <Event>
    <Absolute>87120</Absolute>
    <NoteOn Channel="1" Note="4" Velocity="127"/>
  </Event>
  <Event>
    <Absolute>87360</Absolute>
    <NoteOff Channel="1" Note="4" Velocity="0"/>
  </Event>
  <Event>
    <Absolute>88320</Absolute>
    <NoteOn Channel="1" Note="2" Velocity="127"/>
  </Event>
  <Event>
    <Absolute>88560</Absolute>
    <NoteOff Channel="1" Note="2" Velocity="0"/>
  </Event>
  <Event>
    <Absolute>88560</Absolute>
    <NoteOn Channel="1" Note="2" Velocity="127"/>
  </Event>
  <Event>
    <Absolute>88800</Absolute>
    <NoteOff Channel="1" Note="2" Velocity="0"/>
  </Event>
  <Event>
    <Absolute>88800</Absolute>
    <NoteOn Channel="1" Note="3" Velocity="96"/>
  </Event>
  <Event>
    <Absolute>89040</Absolute>
    <NoteOff Channel="1" Note="3" Velocity="0"/>
  </Event>
  <Event>
    <Absolute>89040</Absolute>
    <NoteOn Channel="1" Note="4" Velocity="96"/>
  </Event>
  <Event>
    <Absolute>89280</Absolute>
    <NoteOff Channel="1" Note="4" Velocity="0"/>
  </Event>
  <Event>
    <Absolute>89280</Absolute>
    <NoteOn Channel="1" Note="5" Velocity="127"/>
  </Event>
  <Event>
    <Absolute>89520</Absolute>
    <NoteOff Channel="1" Note="5" Velocity="0"/>
  </Event>
  <Event>
    <Absolute>89520</Absolute>
    <NoteOn Channel="1" Note="5" Velocity="127"/>
  </Event>
  <Event>
    <Absolute>89760</Absolute>
    <NoteOff Channel="1" Note="5" Velocity="0"/>
  </Event>
  <Event>
    <Absolute>89760</Absolute>
    <NoteOn Channel="1" Note="6" Velocity="96"/>
  </Event>
  <Event>
    <Absolute>90000</Absolute>
    <NoteOff Channel="1" Note="6" Velocity="0"/>
  </Event>
  <Event>
    <Absolute>90000</Absolute>
    <NoteOn Channel="1" Note="7" Velocity="96"/>
  </Event>
  <Event>
    <Absolute>90240</Absolute>
    <NoteOff Channel="1" Note="7" Velocity="0"/>
  </Event>
  <Event>
    <Absolute>90240</Absolute>
    <NoteOn Channel="1" Note="8" Velocity="127"/>
  </Event>
  <Event>
    <Absolute>90480</Absolute>
    <NoteOff Channel="1" Note="8" Velocity="0"/>
  </Event>
  <Event>
    <Absolute>90480</Absolute>
    <NoteOn Channel="1" Note="7" Velocity="96"/>
  </Event>
  <Event>
    <Absolute>90720</Absolute>
    <NoteOff Channel="1" Note="7" Velocity="0"/>
  </Event>
  <Event>
    <Absolute>90720</Absolute>
    <NoteOn Channel="1" Note="6" Velocity="127"/>
  </Event>
  <Event>
    <Absolute>90960</Absolute>
    <NoteOff Channel="1" Note="6" Velocity="0"/>
  </Event>
  <Event>
    <Absolute>90960</Absolute>
    <NoteOn Channel="1" Note="6" Velocity="96"/>
  </Event>
  <Event>
    <Absolute>91200</Absolute>
    <NoteOff Channel="1" Note="6" Velocity="0"/>
  </Event>
  <Event>
    <Absolute>91200</Absolute>
    <NoteOn Channel="1" Note="6" Velocity="96"/>
  </Event>
  <Event>
    <Absolute>91440</Absolute>
    <NoteOff Channel="1" Note="6" Velocity="0"/>
  </Event>
  <Event>
    <Absolute>91440</Absolute>
    <NoteOn Channel="1" Note="6" Velocity="127"/>
  </Event>
  <Event>
    <Absolute>91680</Absolute>
    <NoteOff Channel="1" Note="6" Velocity="0"/>
  </Event>
  <Event>
    <Absolute>92160</Absolute>
    <NoteOn Channel="1" Note="5" Velocity="127"/>
  </Event>
  <Event>
    <Absolute>92400</Absolute>
    <NoteOff Channel="1" Note="5" Velocity="0"/>
  </Event>
  <Event>
    <Absolute>92400</Absolute>
    <NoteOn Channel="1" Note="6" Velocity="127"/>
  </Event>
  <Event>
    <Absolute>92640</Absolute>
    <NoteOff Channel="1" Note="6" Velocity="0"/>
  </Event>
  <Event>
    <Absolute>92640</Absolute>
    <NoteOn Channel="1" Note="5" Velocity="127"/>
  </Event>
  <Event>
    <Absolute>92880</Absolute>
    <NoteOff Channel="1" Note="5" Velocity="0"/>
  </Event>
  <Event>
    <Absolute>92880</Absolute>
    <NoteOn Channel="1" Note="6" Velocity="127"/>
  </Event>
  <Event>
    <Absolute>93120</Absolute>
    <NoteOff Channel="1" Note="6" Velocity="0"/>
  </Event>
  <Event>
    <Absolute>93120</Absolute>
    <NoteOn Channel="1" Note="3" Velocity="127"/>
  </Event>
  <Event>
    <Absolute>93360</Absolute>
    <NoteOff Channel="1" Note="3" Velocity="0"/>
  </Event>
  <Event>
    <Absolute>93360</Absolute>
    <NoteOn Channel="1" Note="4" Velocity="127"/>
  </Event>
  <Event>
    <Absolute>93600</Absolute>
    <NoteOff Channel="1" Note="4" Velocity="0"/>
  </Event>
  <Event>
    <Absolute>93600</Absolute>
    <NoteOn Channel="1" Note="3" Velocity="127"/>
  </Event>
  <Event>
    <Absolute>93840</Absolute>
    <NoteOff Channel="1" Note="3" Velocity="0"/>
  </Event>
  <Event>
    <Absolute>93840</Absolute>
    <NoteOn Channel="1" Note="4" Velocity="127"/>
  </Event>
  <Event>
    <Absolute>94080</Absolute>
    <NoteOff Channel="1" Note="4" Velocity="0"/>
  </Event>
  <Event>
    <Absolute>94080</Absolute>
    <NoteOn Channel="1" Note="1" Velocity="127"/>
  </Event>
  <Event>
    <Absolute>94320</Absolute>
    <NoteOff Channel="1" Note="1" Velocity="0"/>
  </Event>
  <Event>
    <Absolute>94560</Absolute>
    <NoteOn Channel="1" Note="1" Velocity="127"/>
  </Event>
  <Event>
    <Absolute>94800</Absolute>
    <NoteOff Channel="1" Note="1" Velocity="0"/>
  </Event>
  <Event>
    <Absolute>95040</Absolute>
    <NoteOn Channel="1" Note="1" Velocity="127"/>
  </Event>
  <Event>
    <Absolute>95280</Absolute>
    <NoteOff Channel="1" Note="1" Velocity="0"/>
  </Event>
  <Event>
    <Absolute>95280</Absolute>
    <NoteOn Channel="1" Note="1" Velocity="96"/>
  </Event>
  <Event>
    <Absolute>95520</Absolute>
    <NoteOff Channel="1" Note="1" Velocity="0"/>
  </Event>
  <Event>
    <Absolute>95520</Absolute>
    <NoteOn Channel="1" Note="1" Velocity="96"/>
  </Event>
  <Event>
    <Absolute>95760</Absolute>
    <NoteOff Channel="1" Note="1" Velocity="0"/>
  </Event>
  <Event>
    <Absolute>95760</Absolute>
    <NoteOn Channel="1" Note="1" Velocity="127"/>
  </Event>
  <Event>
    <Absolute>96000</Absolute>
    <NoteOff Channel="1" Note="1" Velocity="0"/>
  </Event>
  <Event>
    <Absolute>96000</Absolute>
    <NoteOn Channel="1" Note="2" Velocity="96"/>
  </Event>
  <Event>
    <Absolute>96240</Absolute>
    <NoteOff Channel="1" Note="2" Velocity="0"/>
  </Event>
  <Event>
    <Absolute>96240</Absolute>
    <NoteOn Channel="1" Note="3" Velocity="127"/>
  </Event>
  <Event>
    <Absolute>96480</Absolute>
    <NoteOff Channel="1" Note="3" Velocity="0"/>
  </Event>
  <Event>
    <Absolute>96480</Absolute>
    <NoteOn Channel="1" Note="2" Velocity="127"/>
  </Event>
  <Event>
    <Absolute>96720</Absolute>
    <NoteOff Channel="1" Note="2" Velocity="0"/>
  </Event>
  <Event>
    <Absolute>96720</Absolute>
    <NoteOn Channel="1" Note="3" Velocity="127"/>
  </Event>
  <Event>
    <Absolute>96960</Absolute>
    <NoteOff Channel="1" Note="3" Velocity="0"/>
  </Event>
  <Event>
    <Absolute>96960</Absolute>
    <NoteOn Channel="1" Note="2" Velocity="127"/>
  </Event>
  <Event>
    <Absolute>97200</Absolute>
    <NoteOff Channel="1" Note="2" Velocity="0"/>
  </Event>
  <Event>
    <Absolute>97440</Absolute>
    <NoteOn Channel="1" Note="2" Velocity="127"/>
  </Event>
  <Event>
    <Absolute>97680</Absolute>
    <NoteOff Channel="1" Note="2" Velocity="0"/>
  </Event>
  <Event>
    <Absolute>97920</Absolute>
    <NoteOn Channel="1" Note="1" Velocity="127"/>
  </Event>
  <Event>
    <Absolute>98160</Absolute>
    <NoteOff Channel="1" Note="1" Velocity="0"/>
  </Event>
  <Event>
    <Absolute>98160</Absolute>
    <NoteOn Channel="1" Note="2" Velocity="127"/>
  </Event>
  <Event>
    <Absolute>98400</Absolute>
    <NoteOff Channel="1" Note="2" Velocity="0"/>
  </Event>
  <Event>
    <Absolute>98400</Absolute>
    <NoteOn Channel="1" Note="1" Velocity="127"/>
  </Event>
  <Event>
    <Absolute>98640</Absolute>
    <NoteOff Channel="1" Note="1" Velocity="0"/>
  </Event>
  <Event>
    <Absolute>98640</Absolute>
    <NoteOn Channel="1" Note="2" Velocity="96"/>
  </Event>
  <Event>
    <Absolute>98880</Absolute>
    <NoteOff Channel="1" Note="2" Velocity="0"/>
  </Event>
  <Event>
    <Absolute>98880</Absolute>
    <NoteOn Channel="1" Note="3" Velocity="127"/>
  </Event>
  <Event>
    <Absolute>99120</Absolute>
    <NoteOff Channel="1" Note="3" Velocity="0"/>
  </Event>
  <Event>
    <Absolute>99120</Absolute>
    <NoteOn Channel="1" Note="3" Velocity="96"/>
  </Event>
  <Event>
    <Absolute>99360</Absolute>
    <NoteOff Channel="1" Note="3" Velocity="0"/>
  </Event>
  <Event>
    <Absolute>99360</Absolute>
    <NoteOn Channel="1" Note="3" Velocity="96"/>
  </Event>
  <Event>
    <Absolute>99600</Absolute>
    <NoteOff Channel="1" Note="3" Velocity="0"/>
  </Event>
  <Event>
    <Absolute>99600</Absolute>
    <NoteOn Channel="1" Note="3" Velocity="127"/>
  </Event>
  <Event>
    <Absolute>99840</Absolute>
    <NoteOff Channel="1" Note="3" Velocity="0"/>
  </Event>
  <Event>
    <Absolute>99840</Absolute>
    <NoteOn Channel="1" Note="2" Velocity="127"/>
  </Event>
  <Event>
    <Absolute>100080</Absolute>
    <NoteOff Channel="1" Note="2" Velocity="0"/>
  </Event>
  <Event>
    <Absolute>100080</Absolute>
    <NoteOn Channel="1" Note="3" Velocity="96"/>
  </Event>
  <Event>
    <Absolute>100320</Absolute>
    <NoteOff Channel="1" Note="3" Velocity="0"/>
  </Event>
  <Event>
    <Absolute>100320</Absolute>
    <NoteOn Channel="1" Note="4" Velocity="127"/>
  </Event>
  <Event>
    <Absolute>100560</Absolute>
    <NoteOff Channel="1" Note="4" Velocity="0"/>
  </Event>
  <Event>
    <Absolute>100560</Absolute>
    <NoteOn Channel="1" Note="3" Velocity="96"/>
  </Event>
  <Event>
    <Absolute>100800</Absolute>
    <NoteOff Channel="1" Note="3" Velocity="0"/>
  </Event>
  <Event>
    <Absolute>100800</Absolute>
    <NoteOn Channel="1" Note="2" Velocity="127"/>
  </Event>
  <Event>
    <Absolute>101040</Absolute>
    <NoteOff Channel="1" Note="2" Velocity="0"/>
  </Event>
  <Event>
    <Absolute>101040</Absolute>
    <NoteOn Channel="1" Note="3" Velocity="96"/>
  </Event>
  <Event>
    <Absolute>101280</Absolute>
    <NoteOff Channel="1" Note="3" Velocity="0"/>
  </Event>
  <Event>
    <Absolute>101280</Absolute>
    <NoteOn Channel="1" Note="4" Velocity="127"/>
  </Event>
  <Event>
    <Absolute>101520</Absolute>
    <NoteOff Channel="1" Note="4" Velocity="0"/>
  </Event>
  <Event>
    <Absolute>101520</Absolute>
    <NoteOn Channel="1" Note="3" Velocity="127"/>
  </Event>
  <Event>
    <Absolute>101760</Absolute>
    <NoteOff Channel="1" Note="3" Velocity="0"/>
  </Event>
  <Event>
    <Absolute>101760</Absolute>
    <NoteOn Channel="1" Note="4" Velocity="96"/>
  </Event>
  <Event>
    <Absolute>102000</Absolute>
    <NoteOff Channel="1" Note="4" Velocity="0"/>
  </Event>
  <Event>
    <Absolute>102000</Absolute>
    <NoteOn Channel="1" Note="5" Velocity="96"/>
  </Event>
  <Event>
    <Absolute>102240</Absolute>
    <NoteOff Channel="1" Note="5" Velocity="0"/>
  </Event>
  <Event>
    <Absolute>102240</Absolute>
    <NoteOn Channel="1" Note="6" Velocity="127"/>
  </Event>
  <Event>
    <Absolute>102480</Absolute>
    <NoteOff Channel="1" Note="6" Velocity="0"/>
  </Event>
  <Event>
    <Absolute>102720</Absolute>
    <NoteOn Channel="1" Note="4" Velocity="127"/>
  </Event>
  <Event>
    <Absolute>102960</Absolute>
    <NoteOff Channel="1" Note="4" Velocity="0"/>
  </Event>
  <Event>
    <Absolute>102960</Absolute>
    <NoteOn Channel="1" Note="5" Velocity="96"/>
  </Event>
  <Event>
    <Absolute>103200</Absolute>
    <NoteOff Channel="1" Note="5" Velocity="0"/>
  </Event>
  <Event>
    <Absolute>103200</Absolute>
    <NoteOn Channel="1" Note="6" Velocity="127"/>
  </Event>
  <Event>
    <Absolute>103440</Absolute>
    <NoteOff Channel="1" Note="6" Velocity="0"/>
  </Event>
  <Event>
    <Absolute>103440</Absolute>
    <NoteOn Channel="1" Note="5" Velocity="96"/>
  </Event>
  <Event>
    <Absolute>103680</Absolute>
    <NoteOff Channel="1" Note="5" Velocity="0"/>
  </Event>
  <Event>
    <Absolute>103680</Absolute>
    <NoteOn Channel="1" Note="4" Velocity="127"/>
  </Event>
  <Event>
    <Absolute>103920</Absolute>
    <NoteOff Channel="1" Note="4" Velocity="0"/>
  </Event>
  <Event>
    <Absolute>103920</Absolute>
    <NoteOn Channel="1" Note="5" Velocity="127"/>
  </Event>
  <Event>
    <Absolute>104160</Absolute>
    <NoteOff Channel="1" Note="5" Velocity="0"/>
  </Event>
  <Event>
    <Absolute>104160</Absolute>
    <NoteOn Channel="1" Note="4" Velocity="127"/>
  </Event>
  <Event>
    <Absolute>104400</Absolute>
    <NoteOff Channel="1" Note="4" Velocity="0"/>
  </Event>
  <Event>
    <Absolute>104400</Absolute>
    <NoteOn Channel="1" Note="5" Velocity="127"/>
  </Event>
  <Event>
    <Absolute>104640</Absolute>
    <NoteOff Channel="1" Note="5" Velocity="0"/>
  </Event>
  <Event>
    <Absolute>104640</Absolute>
    <NoteOn Channel="1" Note="4" Velocity="127"/>
  </Event>
  <Event>
    <Absolute>104880</Absolute>
    <NoteOff Channel="1" Note="4" Velocity="0"/>
  </Event>
  <Event>
    <Absolute>105120</Absolute>
    <NoteOn Channel="1" Note="4" Velocity="127"/>
  </Event>
  <Event>
    <Absolute>105360</Absolute>
    <NoteOff Channel="1" Note="4" Velocity="0"/>
  </Event>
  <Event>
    <Absolute>105600</Absolute>
    <NoteOn Channel="1" Note="3" Velocity="127"/>
  </Event>
  <Event>
    <Absolute>105840</Absolute>
    <NoteOff Channel="1" Note="3" Velocity="0"/>
  </Event>
  <Event>
    <Absolute>106080</Absolute>
    <NoteOn Channel="1" Note="3" Velocity="127"/>
  </Event>
  <Event>
    <Absolute>106320</Absolute>
    <NoteOff Channel="1" Note="3" Velocity="0"/>
  </Event>
  <Event>
    <Absolute>133920</Absolute>
    <ControlChange Channel="1" Control="123" Value="0"/>
  </Event>
  <Event>
    <Absolute>133920</Absolute>
    <EndOfTrack/>
  </Event>
</Track>
</MIDIFile>