<MIDIFile>
<Format>0</Format>
<TrackCount>1</TrackCount>
<TicksPerBeat>960</TicksPerBeat>
<TimestampType>Absolute</TimestampType>
<Track Number="0">
  <Event>
    <Absolute>30720</Absolute>
    <NoteOn Channel="1" Note="1" Velocity="96"/>
  </Event>
  <Event>
    <Absolute>30960</Absolute>
    <NoteOff Channel="1" Note="1" Velocity="0"/>
  </Event>
  <Event>
    <Absolute>31440</Absolute>
    <NoteOn Channel="1" Note="1" Velocity="96"/>
  </Event>
  <Event>
    <Absolute>31680</Absolute>
    <NoteOff Channel="1" Note="1" Velocity="0"/>
  </Event>
  <Event>
    <Absolute>31680</Absolute>
    <NoteOn Channel="1" Note="2" Velocity="96"/>
  </Event>
  <Event>
    <Absolute>31920</Absolute>
    <NoteOff Channel="1" Note="2" Velocity="0"/>
  </Event>
  <Event>
    <Absolute>32640</Absolute>
    <NoteOn Channel="1" Note="1" Velocity="96"/>
  </Event>
  <Event>
    <Absolute>32880</Absolute>
    <NoteOff Channel="1" Note="1" Velocity="0"/>
  </Event>
  <Event>
    <Absolute>33600</Absolute>
    <NoteOn Channel="1" Note="1" Velocity="96"/>
  </Event>
  <Event>
    <Absolute>33840</Absolute>
    <NoteOff Channel="1" Note="1" Velocity="0"/>
  </Event>
  <Event>
    <Absolute>34560</Absolute>
    <NoteOn Channel="1" Note="0" Velocity="96"/>
  </Event>
  <Event>
    <Absolute>34800</Absolute>
    <NoteOff Channel="1" Note="0" Velocity="0"/>
  </Event>
  <Event>
    <Absolute>35520</Absolute>
    <NoteOn Channel="1" Note="1" Velocity="96"/>
  </Event>
  <Event>
    <Absolute>35760</Absolute>
    <NoteOff Channel="1" Note="1" Velocity="0"/>
  </Event>
  <Event>
    <Absolute>36000</Absolute>
    <NoteOn Channel="1" Note="0" Velocity="96"/>
  </Event>
  <Event>
    <Absolute>36240</Absolute>
    <NoteOff Channel="1" Note="0" Velocity="0"/>
  </Event>
  <Event>
    <Absolute>36480</Absolute>
    <NoteOn Channel="1" Note="0" Velocity="96"/>
  </Event>
  <Event>
    <Absolute>36720</Absolute>
    <NoteOff Channel="1" Note="0" Velocity="0"/>
  </Event>
  <Event>
    <Absolute>36960</Absolute>
    <NoteOn Channel="1" Note="4" Velocity="96"/>
  </Event>
  <Event>
    <Absolute>37200</Absolute>
    <NoteOff Channel="1" Note="4" Velocity="0"/>
  </Event>
  <Event>
    <Absolute>37920</Absolute>
    <NoteOn Channel="1" Note="1" Velocity="96"/>
  </Event>
  <Event>
    <Absolute>38160</Absolute>
    <NoteOff Channel="1" Note="1" Velocity="0"/>
  </Event>
  <Event>
    <Absolute>38400</Absolute>
    <NoteOn Channel="1" Note="1" Velocity="96"/>
  </Event>
  <Event>
    <Absolute>38640</Absolute>
    <NoteOff Channel="1" Note="1" Velocity="0"/>
  </Event>
  <Event>
    <Absolute>39360</Absolute>
    <NoteOn Channel="1" Note="2" Velocity="96"/>
  </Event>
  <Event>
    <Absolute>39600</Absolute>
    <NoteOff Channel="1" Note="2" Velocity="0"/>
  </Event>
  <Event>
    <Absolute>40320</Absolute>
    <NoteOn Channel="1" Note="1" Velocity="96"/>
  </Event>
  <Event>
    <Absolute>40560</Absolute>
    <NoteOff Channel="1" Note="1" Velocity="0"/>
  </Event>
  <Event>
    <Absolute>41280</Absolute>
    <NoteOn Channel="1" Note="1" Velocity="96"/>
  </Event>
  <Event>
    <Absolute>41520</Absolute>
    <NoteOff Channel="1" Note="1" Velocity="0"/>
  </Event>
  <Event>
    <Absolute>42240</Absolute>
    <NoteOn Channel="1" Note="0" Velocity="96"/>
  </Event>
  <Event>
    <Absolute>42480</Absolute>
    <NoteOff Channel="1" Note="0" Velocity="0"/>
  </Event>
  <Event>
    <Absolute>43200</Absolute>
    <NoteOn Channel="1" Note="1" Velocity="96"/>
  </Event>
  <Event>
    <Absolute>43440</Absolute>
    <NoteOff Channel="1" Note="1" Velocity="0"/>
  </Event>
  <Event>
    <Absolute>43680</Absolute>
    <NoteOn Channel="1" Note="0" Velocity="96"/>
  </Event>
  <Event>
    <Absolute>43920</Absolute>
    <NoteOff Channel="1" Note="0" Velocity="0"/>
  </Event>
  <Event>
    <Absolute>44160</Absolute>
    <NoteOn Channel="1" Note="0" Velocity="96"/>
  </Event>
  <Event>
    <Absolute>44400</Absolute>
    <NoteOff Channel="1" Note="0" Velocity="0"/>
  </Event>
  <Event>
    <Absolute>44640</Absolute>
    <NoteOn Channel="1" Note="4" Velocity="96"/>
  </Event>
  <Event>
    <Absolute>44880</Absolute>
    <NoteOff Channel="1" Note="4" Velocity="0"/>
  </Event>
  <Event>
    <Absolute>45600</Absolute>
    <NoteOn Channel="1" Note="1" Velocity="96"/>
  </Event>
  <Event>
    <Absolute>45840</Absolute>
    <NoteOff Channel="1" Note="1" Velocity="0"/>
  </Event>
  <Event>
    <Absolute>61440</Absolute>
    <NoteOn Channel="1" Note="1" Velocity="96"/>
  </Event>
  <Event>
    <Absolute>61680</Absolute>
    <NoteOff Channel="1" Note="1" Velocity="0"/>
  </Event>
  <Event>
    <Absolute>62400</Absolute>
    <NoteOn Channel="1" Note="2" Velocity="96"/>
  </Event>
  <Event>
    <Absolute>62640</Absolute>
    <NoteOff Channel="1" Note="2" Velocity="0"/>
  </Event>
  <Event>
    <Absolute>63360</Absolute>
    <NoteOn Channel="1" Note="1" Velocity="96"/>
  </Event>
  <Event>
    <Absolute>63600</Absolute>
    <NoteOff Channel="1" Note="1" Velocity="0"/>
  </Event>
  <Event>
    <Absolute>64320</Absolute>
    <NoteOn Channel="1" Note="2" Velocity="96"/>
  </Event>
  <Event>
    <Absolute>64560</Absolute>
    <NoteOff Channel="1" Note="2" Velocity="0"/>
  </Event>
  <Event>
    <Absolute>65280</Absolute>
    <NoteOn Channel="1" Note="1" Velocity="96"/>
  </Event>
  <Event>
    <Absolute>65520</Absolute>
    <NoteOff Channel="1" Note="1" Velocity="0"/>
  </Event>
  <Event>
    <Absolute>65760</Absolute>
    <NoteOn Channel="1" Note="2" Velocity="96"/>
  </Event>
  <Event>
    <Absolute>66000</Absolute>
    <NoteOff Channel="1" Note="2" Velocity="0"/>
  </Event>
  <Event>
    <Absolute>66240</Absolute>
    <NoteOn Channel="1" Note="1" Velocity="96"/>
  </Event>
  <Event>
    <Absolute>66480</Absolute>
    <NoteOff Channel="1" Note="1" Velocity="0"/>
  </Event>
  <Event>
    <Absolute>66720</Absolute>
    <NoteOn Channel="1" Note="2" Velocity="96"/>
  </Event>
  <Event>
    <Absolute>66960</Absolute>
    <NoteOff Channel="1" Note="2" Velocity="0"/>
  </Event>
  <Event>
    <Absolute>67200</Absolute>
    <NoteOn Channel="1" Note="1" Velocity="96"/>
  </Event>
  <Event>
    <Absolute>67440</Absolute>
    <NoteOff Channel="1" Note="1" Velocity="0"/>
  </Event>
  <Event>
    <Absolute>67680</Absolute>
    <NoteOn Channel="1" Note="0" Velocity="96"/>
  </Event>
  <Event>
    <Absolute>67920</Absolute>
    <NoteOff Channel="1" Note="0" Velocity="0"/>
  </Event>
  <Event>
    <Absolute>68160</Absolute>
    <NoteOn Channel="1" Note="3" Velocity="96"/>
  </Event>
  <Event>
    <Absolute>68400</Absolute>
    <NoteOff Channel="1" Note="3" Velocity="0"/>
  </Event>
  <Event>
    <Absolute>69120</Absolute>
    <NoteOn Channel="1" Note="1" Velocity="96"/>
  </Event>
  <Event>
    <Absolute>69360</Absolute>
    <NoteOff Channel="1" Note="1" Velocity="0"/>
  </Event>
  <Event>
    <Absolute>70080</Absolute>
    <NoteOn Channel="1" Note="2" Velocity="96"/>
  </Event>
  <Event>
    <Absolute>70320</Absolute>
    <NoteOff Channel="1" Note="2" Velocity="0"/>
  </Event>
  <Event>
    <Absolute>71040</Absolute>
    <NoteOn Channel="1" Note="1" Velocity="96"/>
  </Event>
  <Event>
    <Absolute>71280</Absolute>
    <NoteOff Channel="1" Note="1" Velocity="0"/>
  </Event>
  <Event>
    <Absolute>72000</Absolute>
    <NoteOn Channel="1" Note="2" Velocity="96"/>
  </Event>
  <Event>
    <Absolute>72240</Absolute>
    <NoteOff Channel="1" Note="2" Velocity="0"/>
  </Event>
  <Event>
    <Absolute>72960</Absolute>
    <NoteOn Channel="1" Note="1" Velocity="96"/>
  </Event>
  <Event>
    <Absolute>73200</Absolute>
    <NoteOff Channel="1" Note="1" Velocity="0"/>
  </Event>
  <Event>
    <Absolute>73440</Absolute>
    <NoteOn Channel="1" Note="2" Velocity="96"/>
  </Event>
  <Event>
    <Absolute>73680</Absolute>
    <NoteOff Channel="1" Note="2" Velocity="0"/>
  </Event>
  <Event>
    <Absolute>73920</Absolute>
    <NoteOn Channel="1" Note="1" Velocity="96"/>
  </Event>
  <Event>
    <Absolute>74160</Absolute>
    <NoteOff Channel="1" Note="1" Velocity="0"/>
  </Event>
  <Event>
    <Absolute>74400</Absolute>
    <NoteOn Channel="1" Note="2" Velocity="96"/>
  </Event>
  <Event>
    <Absolute>74640</Absolute>
    <NoteOff Channel="1" Note="2" Velocity="0"/>
  </Event>
  <Event>
    <Absolute>74880</Absolute>
    <NoteOn Channel="1" Note="1" Velocity="96"/>
  </Event>
  <Event>
    <Absolute>75120</Absolute>
    <NoteOff Channel="1" Note="1" Velocity="0"/>
  </Event>
  <Event>
    <Absolute>75360</Absolute>
    <NoteOn Channel="1" Note="0" Velocity="96"/>
  </Event>
  <Event>
    <Absolute>75600</Absolute>
    <NoteOff Channel="1" Note="0" Velocity="0"/>
  </Event>
  <Event>
    <Absolute>75840</Absolute>
    <NoteOn Channel="1" Note="3" Velocity="96"/>
  </Event>
  <Event>
    <Absolute>76080</Absolute>
    <NoteOff Channel="1" Note="3" Velocity="0"/>
  </Event>
  <Event>
    <Absolute>123840</Absolute>
    <NoteOn Channel="1" Note="1" Velocity="96"/>
  </Event>
  <Event>
    <Absolute>124080</Absolute>
    <NoteOff Channel="1" Note="1" Velocity="0"/>
  </Event>
  <Event>
    <Absolute>124320</Absolute>
    <NoteOn Channel="1" Note="1" Velocity="96"/>
  </Event>
  <Event>
    <Absolute>124560</Absolute>
    <NoteOff Channel="1" Note="1" Velocity="0"/>
  </Event>
  <Event>
    <Absolute>124800</Absolute>
    <NoteOn Channel="1" Note="1" Velocity="96"/>
  </Event>
  <Event>
    <Absolute>125040</Absolute>
    <NoteOff Channel="1" Note="1" Velocity="0"/>
  </Event>
  <Event>
    <Absolute>125280</Absolute>
    <NoteOn Channel="1" Note="1" Velocity="96"/>
  </Event>
  <Event>
    <Absolute>125520</Absolute>
    <NoteOff Channel="1" Note="1" Velocity="0"/>
  </Event>
  <Event>
    <Absolute>125760</Absolute>
    <NoteOn Channel="1" Note="1" Velocity="96"/>
  </Event>
  <Event>
    <Absolute>126000</Absolute>
    <NoteOff Channel="1" Note="1" Velocity="0"/>
  </Event>
  <Event>
    <Absolute>126240</Absolute>
    <NoteOn Channel="1" Note="1" Velocity="96"/>
  </Event>
  <Event>
    <Absolute>126480</Absolute>
    <NoteOff Channel="1" Note="1" Velocity="0"/>
  </Event>
  <Event>
    <Absolute>126720</Absolute>
    <NoteOn Channel="1" Note="1" Velocity="96"/>
  </Event>
  <Event>
    <Absolute>126960</Absolute>
    <NoteOff Channel="1" Note="1" Velocity="0"/>
  </Event>
  <Event>
    <Absolute>126960</Absolute>
    <NoteOn Channel="1" Note="2" Velocity="96"/>
  </Event>
  <Event>
    <Absolute>127200</Absolute>
    <NoteOff Channel="1" Note="2" Velocity="0"/>
  </Event>
  <Event>
    <Absolute>127680</Absolute>
    <NoteOn Channel="1" Note="1" Velocity="96"/>
  </Event>
  <Event>
    <Absolute>127920</Absolute>
    <NoteOff Channel="1" Note="1" Velocity="0"/>
  </Event>
  <Event>
    <Absolute>128160</Absolute>
    <NoteOn Channel="1" Note="1" Velocity="96"/>
  </Event>
  <Event>
    <Absolute>128400</Absolute>
    <NoteOff Channel="1" Note="1" Velocity="0"/>
  </Event>
  <Event>
    <Absolute>128640</Absolute>
    <NoteOn Channel="1" Note="1" Velocity="96"/>
  </Event>
  <Event>
    <Absolute>128880</Absolute>
    <NoteOff Channel="1" Note="1" Velocity="0"/>
  </Event>
  <Event>
    <Absolute>129120</Absolute>
    <NoteOn Channel="1" Note="1" Velocity="96"/>
  </Event>
  <Event>
    <Absolute>129360</Absolute>
    <NoteOff Channel="1" Note="1" Velocity="0"/>
  </Event>
  <Event>
    <Absolute>129600</Absolute>
    <NoteOn Channel="1" Note="1" Velocity="96"/>
  </Event>
  <Event>
    <Absolute>129840</Absolute>
    <NoteOff Channel="1" Note="1" Velocity="0"/>
  </Event>
  <Event>
    <Absolute>130080</Absolute>
    <NoteOn Channel="1" Note="1" Velocity="96"/>
  </Event>
  <Event>
    <Absolute>130320</Absolute>
    <NoteOff Channel="1" Note="1" Velocity="0"/>
  </Event>
  <Event>
    <Absolute>130320</Absolute>
    <NoteOn Channel="1" Note="0" Velocity="96"/>
  </Event>
  <Event>
    <Absolute>130440</Absolute>
    <NoteOff Channel="1" Note="0" Velocity="0"/>
  </Event>
  <Event>
    <Absolute>130440</Absolute>
    <NoteOn Channel="1" Note="3" Velocity="96"/>
  </Event>
  <Event>
    <Absolute>130560</Absolute>
    <NoteOff Channel="1" Note="3" Velocity="0"/>
  </Event>
  <Event>
    <Absolute>131520</Absolute>
    <NoteOn Channel="1" Note="1" Velocity="96"/>
  </Event>
  <Event>
    <Absolute>131640</Absolute>
    <NoteOff Channel="1" Note="1" Velocity="0"/>
  </Event>
  <Event>
    <Absolute>132480</Absolute>
    <NoteOn Channel="1" Note="0" Velocity="96"/>
  </Event>
  <Event>
    <Absolute>132600</Absolute>
    <NoteOff Channel="1" Note="0" Velocity="0"/>
  </Event>
  <Event>
    <Absolute>132960</Absolute>
    <NoteOn Channel="1" Note="3" Velocity="96"/>
  </Event>
  <Event>
    <Absolute>133080</Absolute>
    <NoteOff Channel="1" Note="3" Velocity="0"/>
  </Event>
  <Event>
    <Absolute>133440</Absolute>
    <NoteOn Channel="1" Note="1" Velocity="96"/>
  </Event>
  <Event>
    <Absolute>133560</Absolute>
    <NoteOff Channel="1" Note="1" Velocity="0"/>
  </Event>
  <Event>
    <Absolute>133920</Absolute>
    <ControlChange Channel="1" Control="123" Value="0"/>
  </Event>
  <Event>
    <Absolute>133920</Absolute>
    <EndOfTrack/>
  </Event>
</Track>
</MIDIFile>