<MIDIFile>
<Format>0</Format>
<TrackCount>1</TrackCount>
<TicksPerBeat>960</TicksPerBeat>
<TimestampType>Absolute</TimestampType>
<Track Number="0">
  <Event>
    <Absolute>57600</Absolute>
    <NoteOn Channel="1" Note="8" Velocity="127"/>
  </Event>
  <Event>
    <Absolute>57840</Absolute>
    <NoteOff Channel="1" Note="8" Velocity="0"/>
  </Event>
  <Event>
    <Absolute>57840</Absolute>
    <NoteOn Channel="1" Note="8" Velocity="96"/>
  </Event>
  <Event>
    <Absolute>58080</Absolute>
    <NoteOff Channel="1" Note="8" Velocity="0"/>
  </Event>
  <Event>
    <Absolute>58080</Absolute>
    <NoteOn Channel="1" Note="8" Velocity="127"/>
  </Event>
  <Event>
    <Absolute>58320</Absolute>
    <NoteOff Channel="1" Note="8" Velocity="0"/>
  </Event>
  <Event>
    <Absolute>58320</Absolute>
    <NoteOn Channel="1" Note="7" Velocity="96"/>
  </Event>
  <Event>
    <Absolute>58560</Absolute>
    <NoteOff Channel="1" Note="7" Velocity="0"/>
  </Event>
  <Event>
    <Absolute>58560</Absolute>
    <NoteOn Channel="1" Note="6" Velocity="96"/>
  </Event>
  <Event>
    <Absolute>58800</Absolute>
    <NoteOff Channel="1" Note="6" Velocity="0"/>
  </Event>
  <Event>
    <Absolute>58800</Absolute>
    <NoteOn Channel="1" Note="5" Velocity="96"/>
  </Event>
  <Event>
    <Absolute>59040</Absolute>
    <NoteOff Channel="1" Note="5" Velocity="0"/>
  </Event>
  <Event>
    <Absolute>59040</Absolute>
    <NoteOn Channel="1" Note="4" Velocity="127"/>
  </Event>
  <Event>
    <Absolute>59160</Absolute>
    <NoteOff Channel="1" Note="4" Velocity="0"/>
  </Event>
  <Event>
    <Absolute>59160</Absolute>
    <NoteOn Channel="1" Note="5" Velocity="96"/>
  </Event>
  <Event>
    <Absolute>59280</Absolute>
    <NoteOff Channel="1" Note="5" Velocity="0"/>
  </Event>
  <Event>
    <Absolute>59280</Absolute>
    <NoteOn Channel="1" Note="6" Velocity="127"/>
  </Event>
  <Event>
    <Absolute>59400</Absolute>
    <NoteOff Channel="1" Note="6" Velocity="0"/>
  </Event>
  <Event>
    <Absolute>59400</Absolute>
    <NoteOn Channel="1" Note="5" Velocity="96"/>
  </Event>
  <Event>
    <Absolute>59520</Absolute>
    <NoteOff Channel="1" Note="5" Velocity="0"/>
  </Event>
  <Event>
    <Absolute>59520</Absolute>
    <NoteOn Channel="1" Note="4" Velocity="96"/>
  </Event>
  <Event>
    <Absolute>59640</Absolute>
    <NoteOff Channel="1" Note="4" Velocity="0"/>
  </Event>
  <Event>
    <Absolute>59640</Absolute>
    <NoteOn Channel="1" Note="3" Velocity="96"/>
  </Event>
  <Event>
    <Absolute>59760</Absolute>
    <NoteOff Channel="1" Note="3" Velocity="0"/>
  </Event>
  <Event>
    <Absolute>59760</Absolute>
    <NoteOn Channel="1" Note="2" Velocity="127"/>
  </Event>
  <Event>
    <Absolute>60000</Absolute>
    <NoteOff Channel="1" Note="2" Velocity="0"/>
  </Event>
  <Event>
    <Absolute>60000</Absolute>
    <NoteOn Channel="1" Note="2" Velocity="96"/>
  </Event>
  <Event>
    <Absolute>60240</Absolute>
    <NoteOff Channel="1" Note="2" Velocity="0"/>
  </Event>
  <Event>
    <Absolute>60240</Absolute>
    <NoteOn Channel="1" Note="2" Velocity="127"/>
  </Event>
  <Event>
    <Absolute>60480</Absolute>
    <NoteOff Channel="1" Note="2" Velocity="0"/>
  </Event>
  <Event>
    <Absolute>60480</Absolute>
    <NoteOn Channel="1" Note="1" Velocity="127"/>
  </Event>
  <Event>
    <Absolute>60720</Absolute>
    <NoteOff Channel="1" Note="1" Velocity="0"/>
  </Event>
  <Event>
    <Absolute>60720</Absolute>
    <NoteOn Channel="1" Note="2" Velocity="96"/>
  </Event>
  <Event>
    <Absolute>60960</Absolute>
    <NoteOff Channel="1" Note="2" Velocity="0"/>
  </Event>
  <Event>
    <Absolute>60960</Absolute>
    <NoteOn Channel="1" Note="3" Velocity="96"/>
  </Event>
  <Event>
    <Absolute>61200</Absolute>
    <NoteOff Channel="1" Note="3" Velocity="0"/>
  </Event>
  <Event>
    <Absolute>61200</Absolute>
    <NoteOn Channel="1" Note="4" Velocity="96"/>
  </Event>
  <Event>
    <Absolute>61440</Absolute>
    <NoteOff Channel="1" Note="4" Velocity="0"/>
  </Event>
  <Event>
    <Absolute>61440</Absolute>
    <NoteOn Channel="1" Note="5" Velocity="96"/>
  </Event>
  <Event>
    <Absolute>61680</Absolute>
    <NoteOff Channel="1" Note="5" Velocity="0"/>
  </Event>
  <Event>
    <Absolute>61680</Absolute>
    <NoteOn Channel="1" Note="6" Velocity="96"/>
  </Event>
  <Event>
    <Absolute>61920</Absolute>
    <NoteOff Channel="1" Note="6" Velocity="0"/>
  </Event>
  <Event>
    <Absolute>61920</Absolute>
    <NoteOn Channel="1" Note="7" Velocity="96"/>
  </Event>
  <Event>
    <Absolute>62160</Absolute>
    <NoteOff Channel="1" Note="7" Velocity="0"/>
  </Event>
  <Event>
    <Absolute>62160</Absolute>
    <NoteOn Channel="1" Note="8" Velocity="127"/>
  </Event>
  <Event>
    <Absolute>62400</Absolute>
    <NoteOff Channel="1" Note="8" Velocity="0"/>
  </Event>
  <Event>
    <Absolute>62400</Absolute>
    <NoteOn Channel="1" Note="5" Velocity="127"/>
  </Event>
  <Event>
    <Absolute>62640</Absolute>
    <NoteOff Channel="1" Note="5" Velocity="0"/>
  </Event>
  <Event>
    <Absolute>62640</Absolute>
    <NoteOn Channel="1" Note="4" Velocity="96"/>
  </Event>
  <Event>
    <Absolute>62880</Absolute>
    <NoteOff Channel="1" Note="4" Velocity="0"/>
  </Event>
  <Event>
    <Absolute>62880</Absolute>
    <NoteOn Channel="1" Note="3" Velocity="127"/>
  </Event>
  <Event>
    <Absolute>63120</Absolute>
    <NoteOff Channel="1" Note="3" Velocity="0"/>
  </Event>
  <Event>
    <Absolute>63120</Absolute>
    <NoteOn Channel="1" Note="4" Velocity="96"/>
  </Event>
  <Event>
    <Absolute>63360</Absolute>
    <NoteOff Channel="1" Note="4" Velocity="0"/>
  </Event>
  <Event>
    <Absolute>63360</Absolute>
    <NoteOn Channel="1" Note="5" Velocity="127"/>
  </Event>
  <Event>
    <Absolute>63600</Absolute>
    <NoteOff Channel="1" Note="5" Velocity="0"/>
  </Event>
  <Event>
    <Absolute>63600</Absolute>
    <NoteOn Channel="1" Note="4" Velocity="96"/>
  </Event>
  <Event>
    <Absolute>63840</Absolute>
    <NoteOff Channel="1" Note="4" Velocity="0"/>
  </Event>
  <Event>
    <Absolute>63840</Absolute>
    <NoteOn Channel="1" Note="3" Velocity="127"/>
  </Event>
  <Event>
    <Absolute>64080</Absolute>
    <NoteOff Channel="1" Note="3" Velocity="0"/>
  </Event>
  <Event>
    <Absolute>64080</Absolute>
    <NoteOn Channel="1" Note="4" Velocity="96"/>
  </Event>
  <Event>
    <Absolute>64320</Absolute>
    <NoteOff Channel="1" Note="4" Velocity="0"/>
  </Event>
  <Event>
    <Absolute>64320</Absolute>
    <NoteOn Channel="1" Note="5" Velocity="127"/>
  </Event>
  <Event>
    <Absolute>64560</Absolute>
    <NoteOff Channel="1" Note="5" Velocity="0"/>
  </Event>
  <Event>
    <Absolute>64560</Absolute>
    <NoteOn Channel="1" Note="4" Velocity="96"/>
  </Event>
  <Event>
    <Absolute>64800</Absolute>
    <NoteOff Channel="1" Note="4" Velocity="0"/>
  </Event>
  <Event>
    <Absolute>64800</Absolute>
    <NoteOn Channel="1" Note="3" Velocity="127"/>
  </Event>
  <Event>
    <Absolute>65040</Absolute>
    <NoteOff Channel="1" Note="3" Velocity="0"/>
  </Event>
  <Event>
    <Absolute>65040</Absolute>
    <NoteOn Channel="1" Note="4" Velocity="127"/>
  </Event>
  <Event>
    <Absolute>65280</Absolute>
    <NoteOff Channel="1" Note="4" Velocity="0"/>
  </Event>
  <Event>
    <Absolute>65280</Absolute>
    <NoteOn Channel="1" Note="3" Velocity="96"/>
  </Event>
  <Event>
    <Absolute>65520</Absolute>
    <NoteOff Channel="1" Note="3" Velocity="0"/>
  </Event>
  <Event>
    <Absolute>65520</Absolute>
    <NoteOn Channel="1" Note="2" Velocity="127"/>
  </Event>
  <Event>
    <Absolute>65760</Absolute>
    <NoteOff Channel="1" Note="2" Velocity="0"/>
  </Event>
  <Event>
    <Absolute>65760</Absolute>
    <NoteOn Channel="1" Note="3" Velocity="96"/>
  </Event>
  <Event>
    <Absolute>66000</Absolute>
    <NoteOff Channel="1" Note="3" Velocity="0"/>
  </Event>
  <Event>
    <Absolute>66000</Absolute>
    <NoteOn Channel="1" Note="4" Velocity="127"/>
  </Event>
  <Event>
    <Absolute>66240</Absolute>
    <NoteOff Channel="1" Note="4" Velocity="0"/>
  </Event>
  <Event>
    <Absolute>66240</Absolute>
    <NoteOn Channel="1" Note="3" Velocity="96"/>
  </Event>
  <Event>
    <Absolute>66480</Absolute>
    <NoteOff Channel="1" Note="3" Velocity="0"/>
  </Event>
  <Event>
    <Absolute>66480</Absolute>
    <NoteOn Channel="1" Note="2" Velocity="127"/>
  </Event>
  <Event>
    <Absolute>66720</Absolute>
    <NoteOff Channel="1" Note="2" Velocity="0"/>
  </Event>
  <Event>
    <Absolute>66720</Absolute>
    <NoteOn Channel="1" Note="3" Velocity="96"/>
  </Event>
  <Event>
    <Absolute>66960</Absolute>
    <NoteOff Channel="1" Note="3" Velocity="0"/>
  </Event>
  <Event>
    <Absolute>66960</Absolute>
    <NoteOn Channel="1" Note="4" Velocity="96"/>
  </Event>
  <Event>
    <Absolute>67200</Absolute>
    <NoteOff Channel="1" Note="4" Velocity="0"/>
  </Event>
  <Event>
    <Absolute>67200</Absolute>
    <NoteOn Channel="1" Note="5" Velocity="127"/>
  </Event>
  <Event>
    <Absolute>67440</Absolute>
    <NoteOff Channel="1" Note="5" Velocity="0"/>
  </Event>
  <Event>
    <Absolute>67440</Absolute>
    <NoteOn Channel="1" Note="5" Velocity="127"/>
  </Event>
  <Event>
    <Absolute>67680</Absolute>
    <NoteOff Channel="1" Note="5" Velocity="0"/>
  </Event>
  <Event>
    <Absolute>67680</Absolute>
    <NoteOn Channel="1" Note="1" Velocity="127"/>
  </Event>
  <Event>
    <Absolute>67920</Absolute>
    <NoteOff Channel="1" Note="1" Velocity="0"/>
  </Event>
  <Event>
    <Absolute>67920</Absolute>
    <NoteOn Channel="1" Note="1" Velocity="127"/>
  </Event>
  <Event>
    <Absolute>68160</Absolute>
    <NoteOff Channel="1" Note="1" Velocity="0"/>
  </Event>
  <Event>
    <Absolute>68160</Absolute>
    <NoteOn Channel="1" Note="3" Velocity="127"/>
  </Event>
  <Event>
    <Absolute>68400</Absolute>
    <NoteOff Channel="1" Note="3" Velocity="0"/>
  </Event>
  <Event>
    <Absolute>68400</Absolute>
    <NoteOn Channel="1" Note="3" Velocity="127"/>
  </Event>
  <Event>
    <Absolute>68640</Absolute>
    <NoteOff Channel="1" Note="3" Velocity="0"/>
  </Event>
  <Event>
    <Absolute>68640</Absolute>
    <NoteOn Channel="1" Note="1" Velocity="127"/>
  </Event>
  <Event>
    <Absolute>68880</Absolute>
    <NoteOff Channel="1" Note="1" Velocity="0"/>
  </Event>
  <Event>
    <Absolute>68880</Absolute>
    <NoteOn Channel="1" Note="1" Velocity="127"/>
  </Event>
  <Event>
    <Absolute>69120</Absolute>
    <NoteOff Channel="1" Note="1" Velocity="0"/>
  </Event>
  <Event>
    <Absolute>92160</Absolute>
    <NoteOn Channel="1" Note="0" Velocity="127"/>
  </Event>
  <Event>
    <Absolute>92400</Absolute>
    <NoteOff Channel="1" Note="0" Velocity="0"/>
  </Event>
  <Event>
    <Absolute>92400</Absolute>
    <NoteOn Channel="1" Note="1" Velocity="95"/>
  </Event>
  <Event>
    <Absolute>92640</Absolute>
    <NoteOff Channel="1" Note="1" Velocity="0"/>
  </Event>
  <Event>
    <Absolute>92640</Absolute>
    <NoteOn Channel="1" Note="2" Velocity="95"/>
  </Event>
  <Event>
    <Absolute>92880</Absolute>
    <NoteOff Channel="1" Note="2" Velocity="0"/>
  </Event>
  <Event>
    <Absolute>92880</Absolute>
    <NoteOn Channel="1" Note="3" Velocity="95"/>
  </Event>
  <Event>
    <Absolute>93120</Absolute>
    <NoteOff Channel="1" Note="3" Velocity="0"/>
  </Event>
  <Event>
    <Absolute>93120</Absolute>
    <NoteOn Channel="1" Note="4" Velocity="95"/>
  </Event>
  <Event>
    <Absolute>93360</Absolute>
    <NoteOff Channel="1" Note="4" Velocity="0"/>
  </Event>
  <Event>
    <Absolute>93360</Absolute>
    <NoteOn Channel="1" Note="5" Velocity="95"/>
  </Event>
  <Event>
    <Absolute>93600</Absolute>
    <NoteOff Channel="1" Note="5" Velocity="0"/>
  </Event>
  <Event>
    <Absolute>93600</Absolute>
    <NoteOn Channel="1" Note="6" Velocity="95"/>
  </Event>
  <Event>
    <Absolute>93840</Absolute>
    <NoteOff Channel="1" Note="6" Velocity="0"/>
  </Event>
  <Event>
    <Absolute>93840</Absolute>
    <NoteOn Channel="1" Note="7" Velocity="127"/>
  </Event>
  <Event>
    <Absolute>94080</Absolute>
    <NoteOff Channel="1" Note="7" Velocity="0"/>
  </Event>
  <Event>
    <Absolute>94080</Absolute>
    <NoteOn Channel="1" Note="2" Velocity="127"/>
  </Event>
  <Event>
    <Absolute>94320</Absolute>
    <NoteOff Channel="1" Note="2" Velocity="0"/>
  </Event>
  <Event>
    <Absolute>94320</Absolute>
    <NoteOn Channel="1" Note="3" Velocity="95"/>
  </Event>
  <Event>
    <Absolute>94560</Absolute>
    <NoteOff Channel="1" Note="3" Velocity="0"/>
  </Event>
  <Event>
    <Absolute>94560</Absolute>
    <NoteOn Channel="1" Note="4" Velocity="95"/>
  </Event>
  <Event>
    <Absolute>94800</Absolute>
    <NoteOff Channel="1" Note="4" Velocity="0"/>
  </Event>
  <Event>
    <Absolute>94800</Absolute>
    <NoteOn Channel="1" Note="5" Velocity="127"/>
  </Event>
  <Event>
    <Absolute>95040</Absolute>
    <NoteOff Channel="1" Note="5" Velocity="0"/>
  </Event>
  <Event>
    <Absolute>95040</Absolute>
    <NoteOn Channel="1" Note="4" Velocity="95"/>
  </Event>
  <Event>
    <Absolute>95280</Absolute>
    <NoteOff Channel="1" Note="4" Velocity="0"/>
  </Event>
  <Event>
    <Absolute>95280</Absolute>
    <NoteOn Channel="1" Note="3" Velocity="95"/>
  </Event>
  <Event>
    <Absolute>95520</Absolute>
    <NoteOff Channel="1" Note="3" Velocity="0"/>
  </Event>
  <Event>
    <Absolute>95520</Absolute>
    <NoteOn Channel="1" Note="2" Velocity="95"/>
  </Event>
  <Event>
    <Absolute>95760</Absolute>
    <NoteOff Channel="1" Note="2" Velocity="0"/>
  </Event>
  <Event>
    <Absolute>95760</Absolute>
    <NoteOn Channel="1" Note="1" Velocity="95"/>
  </Event>
  <Event>
    <Absolute>96000</Absolute>
    <NoteOff Channel="1" Note="1" Velocity="0"/>
  </Event>
  <Event>
    <Absolute>96000</Absolute>
    <NoteOn Channel="1" Note="0" Velocity="127"/>
  </Event>
  <Event>
    <Absolute>96240</Absolute>
    <NoteOff Channel="1" Note="0" Velocity="0"/>
  </Event>
  <Event>
    <Absolute>96240</Absolute>
    <NoteOn Channel="1" Note="1" Velocity="95"/>
  </Event>
  <Event>
    <Absolute>96480</Absolute>
    <NoteOff Channel="1" Note="1" Velocity="0"/>
  </Event>
  <Event>
    <Absolute>96480</Absolute>
    <NoteOn Channel="1" Note="2" Velocity="127"/>
  </Event>
  <Event>
    <Absolute>96720</Absolute>
    <NoteOff Channel="1" Note="2" Velocity="0"/>
  </Event>
  <Event>
    <Absolute>96720</Absolute>
    <NoteOn Channel="1" Note="1" Velocity="95"/>
  </Event>
  <Event>
    <Absolute>96960</Absolute>
    <NoteOff Channel="1" Note="1" Velocity="0"/>
  </Event>
  <Event>
    <Absolute>96960</Absolute>
    <NoteOn Channel="1" Note="0" Velocity="127"/>
  </Event>
  <Event>
    <Absolute>97200</Absolute>
    <NoteOff Channel="1" Note="0" Velocity="0"/>
  </Event>
  <Event>
    <Absolute>97200</Absolute>
    <NoteOn Channel="1" Note="1" Velocity="95"/>
  </Event>
  <Event>
    <Absolute>97440</Absolute>
    <NoteOff Channel="1" Note="1" Velocity="0"/>
  </Event>
  <Event>
    <Absolute>97440</Absolute>
    <NoteOn Channel="1" Note="2" Velocity="127"/>
  </Event>
  <Event>
    <Absolute>97680</Absolute>
    <NoteOff Channel="1" Note="2" Velocity="0"/>
  </Event>
  <Event>
    <Absolute>97920</Absolute>
    <NoteOn Channel="1" Note="1" Velocity="127"/>
  </Event>
  <Event>
    <Absolute>98160</Absolute>
    <NoteOff Channel="1" Note="1" Velocity="0"/>
  </Event>
  <Event>
    <Absolute>98160</Absolute>
    <NoteOn Channel="1" Note="2" Velocity="95"/>
  </Event>
  <Event>
    <Absolute>98400</Absolute>
    <NoteOff Channel="1" Note="2" Velocity="0"/>
  </Event>
  <Event>
    <Absolute>98400</Absolute>
    <NoteOn Channel="1" Note="3" Velocity="95"/>
  </Event>
  <Event>
    <Absolute>98640</Absolute>
    <NoteOff Channel="1" Note="3" Velocity="0"/>
  </Event>
  <Event>
    <Absolute>98640</Absolute>
    <NoteOn Channel="1" Note="4" Velocity="95"/>
  </Event>
  <Event>
    <Absolute>98880</Absolute>
    <NoteOff Channel="1" Note="4" Velocity="0"/>
  </Event>
  <Event>
    <Absolute>98880</Absolute>
    <NoteOn Channel="1" Note="5" Velocity="95"/>
  </Event>
  <Event>
    <Absolute>99120</Absolute>
    <NoteOff Channel="1" Note="5" Velocity="0"/>
  </Event>
  <Event>
    <Absolute>99120</Absolute>
    <NoteOn Channel="1" Note="6" Velocity="95"/>
  </Event>
  <Event>
    <Absolute>99360</Absolute>
    <NoteOff Channel="1" Note="6" Velocity="0"/>
  </Event>
  <Event>
    <Absolute>99360</Absolute>
    <NoteOn Channel="1" Note="7" Velocity="95"/>
  </Event>
  <Event>
    <Absolute>99600</Absolute>
    <NoteOff Channel="1" Note="7" Velocity="0"/>
  </Event>
  <Event>
    <Absolute>99600</Absolute>
    <NoteOn Channel="1" Note="8" Velocity="127"/>
  </Event>
  <Event>
    <Absolute>99840</Absolute>
    <NoteOff Channel="1" Note="8" Velocity="0"/>
  </Event>
  <Event>
    <Absolute>99840</Absolute>
    <NoteOn Channel="1" Note="3" Velocity="127"/>
  </Event>
  <Event>
    <Absolute>100080</Absolute>
    <NoteOff Channel="1" Note="3" Velocity="0"/>
  </Event>
  <Event>
    <Absolute>100080</Absolute>
    <NoteOn Channel="1" Note="4" Velocity="95"/>
  </Event>
  <Event>
    <Absolute>100320</Absolute>
    <NoteOff Channel="1" Note="4" Velocity="0"/>
  </Event>
  <Event>
    <Absolute>100320</Absolute>
    <NoteOn Channel="1" Note="5" Velocity="95"/>
  </Event>
  <Event>
    <Absolute>100560</Absolute>
    <NoteOff Channel="1" Note="5" Velocity="0"/>
  </Event>
  <Event>
    <Absolute>100560</Absolute>
    <NoteOn Channel="1" Note="6" Velocity="127"/>
  </Event>
  <Event>
    <Absolute>100800</Absolute>
    <NoteOff Channel="1" Note="6" Velocity="0"/>
  </Event>
  <Event>
    <Absolute>100800</Absolute>
    <NoteOn Channel="1" Note="5" Velocity="95"/>
  </Event>
  <Event>
    <Absolute>101040</Absolute>
    <NoteOff Channel="1" Note="5" Velocity="0"/>
  </Event>
  <Event>
    <Absolute>101040</Absolute>
    <NoteOn Channel="1" Note="4" Velocity="95"/>
  </Event>
  <Event>
    <Absolute>101280</Absolute>
    <NoteOff Channel="1" Note="4" Velocity="0"/>
  </Event>
  <Event>
    <Absolute>101280</Absolute>
    <NoteOn Channel="1" Note="3" Velocity="95"/>
  </Event>
  <Event>
    <Absolute>101520</Absolute>
    <NoteOff Channel="1" Note="3" Velocity="0"/>
  </Event>
  <Event>
    <Absolute>101520</Absolute>
    <NoteOn Channel="1" Note="2" Velocity="95"/>
  </Event>
  <Event>
    <Absolute>101760</Absolute>
    <NoteOff Channel="1" Note="2" Velocity="0"/>
  </Event>
  <Event>
    <Absolute>101760</Absolute>
    <NoteOn Channel="1" Note="1" Velocity="127"/>
  </Event>
  <Event>
    <Absolute>102000</Absolute>
    <NoteOff Channel="1" Note="1" Velocity="0"/>
  </Event>
  <Event>
    <Absolute>102000</Absolute>
    <NoteOn Channel="1" Note="2" Velocity="95"/>
  </Event>
  <Event>
    <Absolute>102240</Absolute>
    <NoteOff Channel="1" Note="2" Velocity="0"/>
  </Event>
  <Event>
    <Absolute>102240</Absolute>
    <NoteOn Channel="1" Note="3" Velocity="127"/>
  </Event>
  <Event>
    <Absolute>102480</Absolute>
    <NoteOff Channel="1" Note="3" Velocity="0"/>
  </Event>
  <Event>
    <Absolute>102480</Absolute>
    <NoteOn Channel="1" Note="2" Velocity="95"/>
  </Event>
  <Event>
    <Absolute>102720</Absolute>
    <NoteOff Channel="1" Note="2" Velocity="0"/>
  </Event>
  <Event>
    <Absolute>102720</Absolute>
    <NoteOn Channel="1" Note="1" Velocity="127"/>
  </Event>
  <Event>
    <Absolute>102960</Absolute>
    <NoteOff Channel="1" Note="1" Velocity="0"/>
  </Event>
  <Event>
    <Absolute>102960</Absolute>
    <NoteOn Channel="1" Note="2" Velocity="95"/>
  </Event>
  <Event>
    <Absolute>103200</Absolute>
    <NoteOff Channel="1" Note="2" Velocity="0"/>
  </Event>
  <Event>
    <Absolute>103200</Absolute>
    <NoteOn Channel="1" Note="3" Velocity="127"/>
  </Event>
  <Event>
    <Absolute>103440</Absolute>
    <NoteOff Channel="1" Note="3" Velocity="0"/>
  </Event>
  <Event>
    <Absolute>103680</Absolute>
    <NoteOn Channel="1" Note="5" Velocity="127"/>
  </Event>
  <Event>
    <Absolute>103920</Absolute>
    <NoteOff Channel="1" Note="5" Velocity="0"/>
  </Event>
  <Event>
    <Absolute>103920</Absolute>
    <NoteOn Channel="1" Note="4" Velocity="95"/>
  </Event>
  <Event>
    <Absolute>104160</Absolute>
    <NoteOff Channel="1" Note="4" Velocity="0"/>
  </Event>
  <Event>
    <Absolute>104160</Absolute>
    <NoteOn Channel="1" Note="3" Velocity="95"/>
  </Event>
  <Event>
    <Absolute>104400</Absolute>
    <NoteOff Channel="1" Note="3" Velocity="0"/>
  </Event>
  <Event>
    <Absolute>104400</Absolute>
    <NoteOn Channel="1" Note="2" Velocity="95"/>
  </Event>
  <Event>
    <Absolute>104640</Absolute>
    <NoteOff Channel="1" Note="2" Velocity="0"/>
  </Event>
  <Event>
    <Absolute>104640</Absolute>
    <NoteOn Channel="1" Note="1" Velocity="127"/>
  </Event>
  <Event>
    <Absolute>104880</Absolute>
    <NoteOff Channel="1" Note="1" Velocity="0"/>
  </Event>
  <Event>
    <Absolute>105120</Absolute>
    <NoteOn Channel="1" Note="3" Velocity="127"/>
  </Event>
  <Event>
    <Absolute>105360</Absolute>
    <NoteOff Channel="1" Note="3" Velocity="0"/>
  </Event>
  <Event>
    <Absolute>105360</Absolute>
    <NoteOn Channel="1" Note="2" Velocity="95"/>
  </Event>
  <Event>
    <Absolute>105600</Absolute>
    <NoteOff Channel="1" Note="2" Velocity="0"/>
  </Event>
  <Event>
    <Absolute>105600</Absolute>
    <NoteOn Channel="1" Note="1" Velocity="127"/>
  </Event>
  <Event>
    <Absolute>105840</Absolute>
    <NoteOff Channel="1" Note="1" Velocity="0"/>
  </Event>
  <Event>
    <Absolute>105840</Absolute>
    <NoteOn Channel="1" Note="2" Velocity="127"/>
  </Event>
  <Event>
    <Absolute>106080</Absolute>
    <NoteOff Channel="1" Note="2" Velocity="0"/>
  </Event>
  <Event>
    <Absolute>106080</Absolute>
    <NoteOn Channel="1" Note="1" Velocity="95"/>
  </Event>
  <Event>
    <Absolute>106320</Absolute>
    <NoteOff Channel="1" Note="1" Velocity="0"/>
  </Event>
  <Event>
    <Absolute>106320</Absolute>
    <NoteOn Channel="1" Note="0" Velocity="127"/>
  </Event>
  <Event>
    <Absolute>106560</Absolute>
    <NoteOff Channel="1" Note="0" Velocity="0"/>
  </Event>
  <Event>
    <Absolute>106560</Absolute>
    <NoteOn Channel="1" Note="0" Velocity="95"/>
  </Event>
  <Event>
    <Absolute>106800</Absolute>
    <NoteOff Channel="1" Note="0" Velocity="0"/>
  </Event>
  <Event>
    <Absolute>106800</Absolute>
    <NoteOn Channel="1" Note="0" Velocity="95"/>
  </Event>
  <Event>
    <Absolute>107040</Absolute>
    <NoteOff Channel="1" Note="0" Velocity="0"/>
  </Event>
  <Event>
    <Absolute>107040</Absolute>
    <NoteOn Channel="1" Note="0" Velocity="95"/>
  </Event>
  <Event>
    <Absolute>107280</Absolute>
    <NoteOff Channel="1" Note="0" Velocity="0"/>
  </Event>
  <Event>
    <Absolute>107280</Absolute>
    <NoteOn Channel="1" Note="0" Velocity="127"/>
  </Event>
  <Event>
    <Absolute>107520</Absolute>
    <NoteOff Channel="1" Note="0" Velocity="0"/>
  </Event>
  <Event>
    <Absolute>107520</Absolute>
    <NoteOn Channel="1" Note="1" Velocity="95"/>
  </Event>
  <Event>
    <Absolute>107760</Absolute>
    <NoteOff Channel="1" Note="1" Velocity="0"/>
  </Event>
  <Event>
    <Absolute>107760</Absolute>
    <NoteOn Channel="1" Note="2" Velocity="127"/>
  </Event>
  <Event>
    <Absolute>108000</Absolute>
    <NoteOff Channel="1" Note="2" Velocity="0"/>
  </Event>
  <Event>
    <Absolute>108000</Absolute>
    <NoteOn Channel="1" Note="0" Velocity="127"/>
  </Event>
  <Event>
    <Absolute>108240</Absolute>
    <NoteOff Channel="1" Note="0" Velocity="0"/>
  </Event>
  <Event>
    <Absolute>108240</Absolute>
    <NoteOn Channel="1" Note="1" Velocity="95"/>
  </Event>
  <Event>
    <Absolute>108480</Absolute>
    <NoteOff Channel="1" Note="1" Velocity="0"/>
  </Event>
  <Event>
    <Absolute>108480</Absolute>
    <NoteOn Channel="1" Note="2" Velocity="127"/>
  </Event>
  <Event>
    <Absolute>108720</Absolute>
    <NoteOff Channel="1" Note="2" Velocity="0"/>
  </Event>
  <Event>
    <Absolute>108720</Absolute>
    <NoteOn Channel="1" Note="0" Velocity="127"/>
  </Event>
  <Event>
    <Absolute>108960</Absolute>
    <NoteOff Channel="1" Note="0" Velocity="0"/>
  </Event>
  <Event>
    <Absolute>108960</Absolute>
    <NoteOn Channel="1" Note="0" Velocity="95"/>
  </Event>
  <Event>
    <Absolute>109200</Absolute>
    <NoteOff Channel="1" Note="0" Velocity="0"/>
  </Event>
  <Event>
    <Absolute>109200</Absolute>
    <NoteOn Channel="1" Note="0" Velocity="95"/>
  </Event>
  <Event>
    <Absolute>109440</Absolute>
    <NoteOff Channel="1" Note="0" Velocity="0"/>
  </Event>
  <Event>
    <Absolute>109440</Absolute>
    <NoteOn Channel="1" Note="0" Velocity="95"/>
  </Event>
  <Event>
    <Absolute>109680</Absolute>
    <NoteOff Channel="1" Note="0" Velocity="0"/>
  </Event>
  <Event>
    <Absolute>109680</Absolute>
    <NoteOn Channel="1" Note="0" Velocity="95"/>
  </Event>
  <Event>
    <Absolute>109920</Absolute>
    <NoteOff Channel="1" Note="0" Velocity="0"/>
  </Event>
  <Event>
    <Absolute>109920</Absolute>
    <NoteOn Channel="1" Note="0" Velocity="95"/>
  </Event>
  <Event>
    <Absolute>110160</Absolute>
    <NoteOff Channel="1" Note="0" Velocity="0"/>
  </Event>
  <Event>
    <Absolute>110160</Absolute>
    <NoteOn Channel="1" Note="0" Velocity="95"/>
  </Event>
  <Event>
    <Absolute>110400</Absolute>
    <NoteOff Channel="1" Note="0" Velocity="0"/>
  </Event>
  <Event>
    <Absolute>110400</Absolute>
    <NoteOn Channel="1" Note="0" Velocity="95"/>
  </Event>
  <Event>
    <Absolute>110640</Absolute>
    <NoteOff Channel="1" Note="0" Velocity="0"/>
  </Event>
  <Event>
    <Absolute>110640</Absolute>
    <NoteOn Channel="1" Note="0" Velocity="95"/>
  </Event>
  <Event>
    <Absolute>110880</Absolute>
    <NoteOff Channel="1" Note="0" Velocity="0"/>
  </Event>
  <Event>
    <Absolute>110880</Absolute>
    <NoteOn Channel="1" Note="0" Velocity="95"/>
  </Event>
  <Event>
    <Absolute>111120</Absolute>
    <NoteOff Channel="1" Note="0" Velocity="0"/>
  </Event>
  <Event>
    <Absolute>111120</Absolute>
    <NoteOn Channel="1" Note="0" Velocity="127"/>
  </Event>
  <Event>
    <Absolute>111360</Absolute>
    <NoteOff Channel="1" Note="0" Velocity="0"/>
  </Event>
  <Event>
    <Absolute>149760</Absolute>
    <ControlChange Channel="1" Control="123" Value="0"/>
  </Event>
  <Event>
    <Absolute>149760</Absolute>
    <EndOfTrack/>
  </Event>
</Track>
</MIDIFile>